<svg xmlns="http://www.w3.org/2000/svg" viewBox="0 0 387.9 399" xmlns:v="https://vecta.io/nano"><path fill="#01004c" fill-rule="evenodd" d="M244 .6c-25.6 5.5-32.8 34.5-22.9 91.3 1.7 9.3 4.2 30.6 3.7 31-.7.7-18-23.8-23.6-33.3a295.9 295.9 0 0 0-24.1-36.2c-4.1-5.2-12.5-14-16.6-17.5-23.7-20-49.2-12.2-57.7 17.5-1.8 6.5-2.8 12.4-3.8 22.4-.2 2.7-.3 34.9-.2 115.5V303l-40.1-38.2H0l6 5.8 68.6 66.9 62.7 61V257.9l-.1-152.8c-.5-16.2.3-31.9 1.7-36 .7-2.2 17.1 20 25.8 35 5.6 9.6 10 16.4 16.2 25.1 26.4 37.3 45.5 50 63.7 42.4 19.2-8 23.6-33.8 14.9-85.7a232.3 232.3 0 0 1-3.8-35.2l-.2-7.8 2 1.5c7 5.4 19.3 19 30 33.2 12.1 15.8 31 35.8 43 45.4 17.8 14.2 34.4 16.7 46.3 7 14.1-11.5 14.7-34.5 2.1-79.7-1.6-5.7-1.6-5.8-2.4-5.7-.6.2-35.3 10.2-36.3 10.6a32 32 0 0 0 1.2 4.8 227 227 0 0 1 6 26.4c-.7.8-21.8-22.8-29.4-32.9-28.9-38.5-55-57.1-74-53m-16.3 180.6c-34.6 3-62.6 31.2-73.2 73.5-17.8 71.8 21 144.3 77.3 144.3 58.7.1 97.5-78.3 75.2-151.6-12.7-41.5-45.7-69-79.3-66.2M330.8 290v108.7h44.4V181.4h-44.4V290m-94.5-64.8c14.7 3.6 27.5 22.6 31.9 47 6 34.2-6.5 71.3-27.4 81.3-25.4 12-51.3-29.4-46.6-74.5 3.5-33 23.3-58.4 42-53.8"/></svg>