<?xml version="1.0" encoding="UTF-8"?>
<svg version="1.1" viewBox="0 0 63.701 65.522" xmlns="http://www.w3.org/2000/svg">
<g transform="matrix(.16421 0 0 .16421 -.85223 -.92175)" fill="#fff">
<path d="m249.15 6.178c-25.508 5.482-32.758 34.52-22.806 91.341 1.626 9.284 4.136 30.557 3.661 31.032-0.663 0.663-18.068-23.888-23.649-33.357-9.805-16.638-15.804-25.651-24.094-36.202-4.09-5.204-12.463-14.038-16.553-17.462-23.837-19.956-49.254-12.25-57.777 17.519-1.853 6.469-2.855 12.387-3.785 22.346-0.25 2.684-0.328 34.873-0.277 115.46l0.071 111.74-40.136-38.207h-58.615l6.011 5.847c3.306 3.216 34.197 33.285 68.647 66.82l62.636 60.973 0.091-140.39c0.059-89.933-0.022-144.84-0.225-152.79-0.416-16.244 0.328-31.906 1.715-36.101 0.716-2.166 17.156 20.107 25.846 35.015 5.611 9.626 10.011 16.478 16.168 25.173 26.382 37.26 45.503 49.967 63.76 42.375 19.13-7.956 23.602-33.817 14.817-85.687-2.454-14.488-3.5-24.224-3.777-35.176l-0.201-7.889 1.976 1.532c6.971 5.408 19.373 19.08 30.081 33.161 12.068 15.869 30.996 35.893 42.936 45.422 17.811 14.214 34.419 16.739 46.339 7.047 14.127-11.487 14.734-34.483 2.104-79.701-1.604-5.74-1.643-5.833-2.406-5.68-0.583 0.118-35.331 10.186-36.313 10.522-0.104 0.035 0.421 2.227 1.166 4.87 2.855 10.127 6.52 25.944 6.107 26.351-0.795 0.784-21.9-22.74-29.484-32.862-28.842-38.496-54.892-57.162-74.034-53.047m-16.279 180.67c-34.595 2.965-62.615 31.109-73.134 73.459-17.841 71.824 20.923 144.26 77.245 144.33 58.676 0.081 97.551-78.293 75.207-151.62-12.658-41.542-45.642-69.059-79.318-66.172m103.26 108.81v108.68h44.341v-217.36h-44.341v108.68m-94.574-64.831c14.694 3.604 27.589 22.6 31.906 47.001 6.039 34.133-6.498 71.301-27.398 81.231-25.352 12.046-51.241-29.354-46.532-74.409 3.461-33.119 23.227-58.434 42.024-53.823" fill="#fff" fill-rule="evenodd"/>
</g>
</svg>
