<svg xmlns="http://www.w3.org/2000/svg" width="562.946" height="571.982" viewBox="0 0 148.946 151.337" xmlns:v="https://vecta.io/nano"><style><![CDATA[.B{stroke-width:2}.C{font-weight:600}.D{font-size:7.056px}.E{font-family:Spartan}.F{font-size:10.583px}.G{font-family:sans-serif}.H{word-spacing:0px}.I{text-anchor:middle}]]></style><g transform="translate(-38.687 -53.604)"><g fill="#01004c"><g stroke="#fff"><path d="M39.688 60.387h48.759v48.759H39.688zm0 94.796h48.759v48.759H39.688z" class="B"/><path d="M57.544 125.271h15.052v21.324H57.544z" stroke-width="1.996"/><path d="M80.465 130.207l-29.964.112 14.764-16.655z" class="B"/></g><path d="M58.521 127.15h13.052v11.559H58.521z"/></g><text xml:space="preserve" x="64.674" y="79.928" letter-spacing="0" word-spacing="-12.801" fill="#fff" class="F G"><tspan x="64.542" y="79.928" letter-spacing="-.265" class="C D E H I">Oscillator 1</tspan><tspan x="64.542" y="93.157" letter-spacing="-.265" word-spacing="-17.292" class="C D E I">(Carrier)</tspan></text><text xml:space="preserve" x="42.601" y="174.678" letter-spacing="0" fill="#fff" class="F G H"><tspan x="42.601" y="174.678" letter-spacing="-.265" class="C D E">Oscillator 2</tspan><tspan x="42.601" y="187.908" letter-spacing="-.265" class="C D E">(Modulator)</tspan></text><g fill="#01004c"><g stroke="#fff" class="B"><path transform="rotate(90)" d="M78.613-115.956h15.119v21.319H78.613z"/><path d="M111.022 101.603l-.112-29.964 16.655 14.764z"/></g><path d="M114.08 79.612v13.123H102.52V79.612z"/><path d="M185.732 55.256c-.58-.507-1.346-.73-2.101-.607l-33.036 5.342c-1.268.205-2.201 1.324-2.201 2.638v10.683 16.915h-5.216c-5.752 0-10.433 4.393-10.433 9.793s4.68 9.793 10.433 9.793 10.433-4.393 10.433-9.793v-7.122-17.304l27.82-4.498v14.68h-5.216c-5.752 0-10.433 4.393-10.433 9.793s4.68 9.793 10.433 9.793 10.432-4.393 10.432-9.793v-7.122V67.97 57.287a2.7 2.7 0 0 0-.914-2.031z" stroke="#fff" class="B"/></g></g></svg>