<?xml version="1.0" encoding="UTF-8" standalone="no"?>
<!-- Generator: Adobe Illustrator 23.1.0, SVG Export Plug-In . SVG Version: 6.00 Build 0)  -->

<svg
   xmlns:dc="http://purl.org/dc/elements/1.1/"
   xmlns:cc="http://creativecommons.org/ns#"
   xmlns:rdf="http://www.w3.org/1999/02/22-rdf-syntax-ns#"
   xmlns:svg="http://www.w3.org/2000/svg"
   xmlns="http://www.w3.org/2000/svg"
   xmlns:sodipodi="http://sodipodi.sourceforge.net/DTD/sodipodi-0.dtd"
   xmlns:inkscape="http://www.inkscape.org/namespaces/inkscape"
   version="1.1"
   id="Layer_1"
   x="0px"
   y="0px"
   viewBox="0 0 2034.3 1229.7"
   style="enable-background:new 0 0 2034.3 1229.7;"
   xml:space="preserve"
   sodipodi:docname="lizard-01-gray.svg"
   inkscape:version="0.92.5 (2060ec1f9f, 2020-04-08)"><metadata
   id="metadata25"><rdf:RDF><cc:Work
       rdf:about=""><dc:format>image/svg+xml</dc:format><dc:type
         rdf:resource="http://purl.org/dc/dcmitype/StillImage" /></cc:Work></rdf:RDF></metadata><defs
   id="defs23" /><sodipodi:namedview
   pagecolor="#ffffff"
   bordercolor="#666666"
   borderopacity="1"
   objecttolerance="10"
   gridtolerance="10"
   guidetolerance="10"
   inkscape:pageopacity="0"
   inkscape:pageshadow="2"
   inkscape:window-width="1571"
   inkscape:window-height="891"
   id="namedview21"
   showgrid="false"
   inkscape:zoom="0.1767767"
   inkscape:cx="382.67624"
   inkscape:cy="1034.7444"
   inkscape:window-x="0"
   inkscape:window-y="28"
   inkscape:window-maximized="0"
   inkscape:current-layer="Layer_1" />
<style
   type="text/css"
   id="style2">
	.st0{fill:#E6E6E6;}
</style>
<g
   id="g18"
   transform="matrix(0.7,0,0,0.7,305.13465,184.41968)">
	<path
   class="st0"
   d="m 2012.5,162.2 c -14.3,-28.4 -36.8,-53.4 -65.1,-68.4 -35,-18.6 -76.9,-19.9 -107.7,-46 -4.6,-19.9 -17.2,-45.9 -38.3,-47.7 -11.4,-0.9 -21,6.1 -25.9,16.2 -1.4,2.9 -2.3,6.1 -2.8,9.2 -3.1,2 -5.3,5.8 -4.6,10.6 4.2,29.8 20.8,58.3 43.1,78.5 10.3,9.4 22,17.4 34.6,23.4 17.3,8.3 37.8,10.2 53.5,21.4 76.3,54.6 0.6,170.3 -49,214.7 -114,102.2 -272.8,102 -415.4,134.7 -1.2,-1.2 -2.6,-2.1 -4.5,-2.6 -77.6,-19.9 -164.7,-15.4 -243.3,-3.8 -41.7,6.2 -82.9,15.7 -122.9,28.9 -17.8,5.9 -34.9,12.4 -49.5,22.6 -1.6,-2.3 -4.4,-3.8 -8.2,-3.3 -21.6,2.8 -64.5,3 -71.9,29.6 -3.8,13.6 4.1,23.6 8.1,35.7 9.9,30 -26.5,48.1 -49.4,29.6 -1.4,-1.2 -2.9,-1.9 -4.4,-2.2 -10.7,-35.7 -33.1,-65.2 -69,-85.7 -11.4,-19.8 -7.1,-50.2 -11.5,-72.3 -4.2,-21.3 -11.9,-43.4 -27.4,-59.4 -24.4,-25.1 -67.8,-30 -88.6,1.3 -0.2,0.3 -0.3,0.6 -0.4,0.8 -12.1,-1.6 -24.4,-0.6 -35.9,3.1 -0.4,-0.3 -0.8,-0.5 -1.3,-0.7 -9.2,-4 -10.9,-13.4 -14.7,-21.7 -3.1,-6.9 -7.2,-12.5 -14,-16.4 -11.1,-6.5 -25,-6.1 -37.3,-2.5 -22.9,-4.6 -46.1,-6.1 -68.6,-13.3 -22.6,-7.3 -43.1,-19 -65,-27.9 -18.4,-7.5 -39.8,-12.1 -59.1,-8.3 -12,-4 -25.9,1.5 -33.6,11.9 -12,16.1 -6.8,37.4 3.4,52.8 1.2,1.8 2.6,3 4.1,3.8 21.5,48.7 73.2,83.9 114.2,115.1 5.5,4.2 11,8.3 16.5,12.5 -0.3,0.5 -0.7,1 -0.9,1.6 -14.6,30.9 -35.9,57.2 -67.1,72.6 -35.7,17.6 -74.6,10.1 -112.3,17.6 -18.5,3.7 -43.2,15.3 -33.5,38.6 0.3,0.7 0.7,1.3 1,2 -0.1,30 19.3,57 40.8,77.8 35,33.9 77.2,62 118.4,87.7 26.4,16.5 53.6,32.6 81.3,48.2 -15.7,5.3 -31.2,12.9 -44,22.5 -115.7,16.3 -229.7,142.2 -349.5,76.8 -22.8,-12.4 -92.1,-55.1 -95.8,0.6 -1.9,28.1 16.1,41.5 39.2,48.8 -21.5,3.3 -42.2,10.3 -60.4,23 -8.9,6.3 -20.4,15.9 -17.4,28.4 4.3,17.8 22.9,13.9 35.8,13.5 2.1,-0.1 3.8,-0.6 5.3,-1.4 21.1,2.4 42.6,1.1 63.8,-2.3 -1.4,1.2 -2.9,2.5 -4.3,3.7 -7.8,6.8 -21,14.7 -25.1,24.9 -6.5,16.1 6.5,29.7 21.8,32.3 38.4,6.4 86.9,-21.8 106,-56.7 20.9,-13.3 42.3,36.1 56.3,46.8 15.4,11.7 34.9,16.4 52.7,6.9 14.5,-7.8 22.6,-23 19.1,-39.3 -3,-14.3 -14.1,-24.8 -26.1,-33.5 49.6,-12.4 99.2,-27.3 147.8,-42.9 13.4,-4.3 27.4,-10 39.5,-17.6 36.7,11.7 76.6,2.2 113.5,-4.5 32.9,-6 77.8,-8.5 103.6,-32.4 32.8,74.6 139.6,92.4 213.6,87.2 27.8,-2 56.6,-8.7 83.2,-20.2 -4.4,8.4 -9.4,16.6 -15.2,24.3 -11.1,15.1 -25.7,26.6 -38.3,40 -20.7,2.1 -49.1,5.4 -62.5,19.4 -11.4,12 -11.5,32.4 -2.3,45.5 10.8,15.4 31.1,20.5 48.9,16.5 10.9,-2.4 20.7,-7.9 29.5,-14.7 8.7,-6.7 23.9,-27.3 37.1,-26.1 -12.4,16.3 -9.6,41.4 3.9,56.6 14.1,15.8 45.8,27.3 65.8,16.8 10.9,-5.7 15.1,-18.2 12.5,-29.8 -1.5,-6.6 -5.1,-12.5 -7.6,-18.7 -1.7,-4.2 -2.6,-8.3 -3.1,-12.5 33.4,2.8 58.6,20.8 88.9,33.4 20.3,8.5 51.1,17.3 70.3,1.3 18.9,-15.7 8.7,-39.8 -10,-50.2 -9.8,-5.4 -21.7,-8.1 -33.2,-10.7 41,-3.9 80,-18.3 72.5,-59.8 -3.8,-20.9 -25,-35.1 -45.4,-27.2 -15.5,6 -25.5,19.7 -42.6,23.2 -17,3.5 -39.9,4 -57,-2.9 16.9,-27.8 37.4,-52.5 55.2,-80.5 8,-12.6 16.4,-28.5 21.6,-45 36.8,5.8 70.4,-20 85.2,-53.7 10,-22.7 12.3,-47.8 11.2,-72.4 -0.6,-13.4 -4.6,-28 -3.7,-41.3 1.1,-16.6 10.4,-24.4 22.7,-34.6 0.8,-0.6 1.3,-1.3 1.8,-2.1 2,1.7 4,3.3 6,4.9 22.4,17.3 48.2,29.2 72.6,43.3 23.2,13.4 70.3,37.6 74.2,67.4 0.5,4.1 2.6,7.2 5.2,9.4 -7.3,19.1 -42,17 -43.7,38.9 -1.4,18.2 19.9,20.7 33.3,20 26.2,-1.4 52.6,-16.5 66.2,-39 5.9,6.5 14.2,11.4 22.5,15.1 1.9,2.4 4.8,3.9 8.3,3.7 18.7,-1.3 37.9,-12.3 45,-29.9 33.5,18.2 83.2,-5.4 102.7,-38.4 2.5,-4.2 4.3,-8.8 5.6,-13.6 22.4,-1.7 42.5,-9.5 60.1,-24.4 13.2,-11.2 31.2,-30.3 18.6,-48.2 -11.6,-16.3 -39.1,-15.2 -55.2,-7.1 -16.5,8.3 -23.6,25.7 -36.2,37.8 -0.9,-0.6 -1.8,-1.3 -2.8,-1.8 -15.5,-8.7 -32.6,-3 -44.7,8 -52.3,-13.5 -117.2,-18.3 -158.2,-55.5 -14.4,-13 -25.5,-29 -34.9,-45.9 0.7,-0.7 1.3,-1.4 1.9,-2.3 21.5,-33.5 55.6,-44.7 91.8,-56.7 41.3,-13.7 82.9,-26.4 124.8,-38.2 75.5,-21.2 149.5,-37.7 212,-87.7 98.3,-78.4 188.7,-211.9 124.2,-339.5 z m -1303.6,303 c 23,14.3 30.2,47.3 18.5,70.9 -18.9,38 -54.7,34.4 -79.6,15 0.1,-0.1 0.1,-0.2 0.2,-0.3 10.7,-20.3 23.8,-39.6 33.7,-60.2 4.3,-8.9 -6.9,-19.3 -14.5,-11.2 -14.4,15.5 -25.9,35 -36.2,53.8 -11.6,-17.2 -15,-38.5 -2.1,-56.1 1.6,-0.4 3.2,-1.1 4.6,-2.3 20.5,-17 51.6,-24.3 75.4,-9.6 z M 435.1,636.1 c 38.4,-16.3 69,-48 82.3,-87.4 24.8,17.9 50.4,34.9 77.3,49.5 11.2,6.1 22.9,11.2 34.4,16.8 0,0.9 0.1,1.8 0.4,2.6 1.3,16.3 -1.8,34.7 -8.9,50.9 -24.8,5.1 -49.9,8.8 -75.4,9.7 -20.9,0.7 -42,-0.2 -62.6,-3.6 -9.2,-1.5 -18.4,-3.6 -27.4,-6.1 -6.1,-1.7 -12,-3.7 -17.9,-5.8 -9.3,-3.2 -16.9,-8.7 -22.9,-16.7 4,0.3 6.4,-2.1 7.4,-5.1 4.4,-1.4 8.9,-2.9 13.3,-4.8 z M 316,657.9 c 2.5,-10.5 38,-8.1 47.1,-8.5 11.6,-0.6 22.9,-1.4 34,-3.1 0.1,5.7 2.4,11.7 6.2,17 16.1,22.1 53.3,28.9 78,33 40.1,6.7 81.1,4.8 121.4,-1.7 -6.5,6.2 -14.1,11.1 -23,13.7 -21.9,1.5 -43.8,0.8 -61.6,0.6 -58.4,-0.5 -118.6,-6.7 -172.4,-30.9 -7.4,-3.3 -31.5,-12.4 -29.7,-20.1 z m 200.9,336.9 c 6,-8.8 9.8,-19.1 10.3,-31.4 0.4,-10.2 -15.5,-15.3 -20,-5.4 -19,41 -58.5,49.2 -98.3,61.2 -40.9,12.3 -82.2,23.9 -122.4,38.3 -4.1,1.5 -6.5,4.2 -7.6,7.4 -6.5,2.8 -10,12.4 -4.2,18.9 5.9,6.6 19.2,12.4 23.4,19.2 1.4,7.9 2.8,15.9 4.2,23.8 -7.7,4.2 -15.3,3.8 -22.9,-1.2 -15.2,-8.5 -21.8,-26.9 -33.3,-39 -11.7,-12.4 -27.7,-18.6 -42.2,-13.4 -3.7,-2 -8.5,-2 -11.6,1.7 -20.1,23.9 -37.2,45.2 -69.6,52.6 -3.7,0.9 -19.4,5.2 -22.2,1.3 -0.2,-0.3 16.7,-14.5 17.7,-15.4 13,-11.3 26,-22.6 38.9,-34 9.4,-8.2 -0.6,-23.2 -11.8,-20.2 -37,10 -72.5,13.7 -110,12.6 2.8,-1.8 5.6,-3.4 8.5,-4.9 9.9,-5.1 20.5,-8.4 31.3,-10.9 26.5,-6 54.3,-4.7 81.3,-5.5 6.9,-0.2 9.8,-5.6 9,-10.6 2.4,-5.5 0.9,-12.9 -6.5,-15 -23.2,-6.7 -49.2,-3.3 -71.7,-11.6 -9.3,-3.1 -16.9,-8.6 -22.9,-16.4 3.3,-19.1 11.6,-23.9 24.8,-14.3 10.5,4.8 19.7,12.2 29.7,18.1 35.2,20.9 74.6,26.4 114.9,21 43,-5.8 83,-22.6 121.7,-41.6 35.8,-17.6 70.5,-33.8 107.3,-47 1.7,6.6 10.4,11.2 17.2,7.6 14.4,-7.8 26.3,-19.7 40.8,-27.7 11.5,-6.4 23.5,-10.8 35.8,-15 43.4,23.4 87.9,45.1 132.7,63.8 -26.1,9.9 -52.1,15.8 -80,21.3 -30.6,6 -61.2,12.9 -92.3,11.7 z m 541.1,208.5 c -5.1,1.5 -14.2,-1.4 -19.1,-3.4 -11.1,-4.5 -20.8,-15.2 -18.6,-27.9 2.4,-13.5 16.9,-14.3 25.3,-6 2.4,2.4 5,3.2 7.5,3 0.5,6.6 2.2,13.2 4.7,19.8 1.2,3.1 3.9,6.6 3.6,9.9 -0.1,4.4 1.1,3.4 -3.4,4.6 z M 1579.3,867 c -4.2,9.8 -16.4,12.9 -25.4,17.1 -6.4,-3.8 -13.3,-8.8 -14.2,-15.7 -1.7,-12.9 15,-16.7 24.7,-16.6 9.4,0.1 19.8,3.9 14.9,15.2 z m 177.9,-103.2 c 12.5,0.7 12.8,2.7 4.6,11.8 -5.2,5.8 -11.3,10.8 -17.8,15 -9.7,6.2 -20.8,10.7 -32.1,13.6 -0.3,-1.9 -0.7,-3.7 -1.3,-5.4 14.7,-14.1 23.6,-36.4 46.6,-35 z m -278.8,-6.3 c 36.9,30.2 90.6,42.5 140,48.3 -2.7,0 -5,-0.1 -6.6,0 -12.1,0.2 -23.2,-1.7 -34.9,-4.6 -10.7,-2.6 -16.2,11.4 -7.3,17.4 15.9,10.7 38.8,10.5 57.2,8.3 10.1,-1.2 20.1,-4.4 26.3,-11.5 2.4,-0.6 4.7,-1.9 6.4,-4.4 3.1,-4.3 9.7,-11.4 15.3,-11.8 5.2,-0.3 8.7,0.6 11.1,2.2 0.7,1.6 1.9,3 3.3,4.1 2.4,6.7 -2.2,17 -5.1,21.9 -5.7,9.6 -16.9,19.5 -26.2,25.3 -21.7,13.4 -41.9,6 -58.4,-10.1 -6.9,-9.1 -18.6,-14.5 -31.5,-14.7 -17.9,-0.3 -37.7,7.8 -45.7,24.2 -2.4,0.6 -4.5,2.1 -5.7,4.6 -6.7,14.1 -13.4,26.3 -26.8,35 -3.2,2.1 -7.5,4.4 -12.3,6.3 2,-1.6 3.9,-3.2 5.7,-5 8.2,-8.7 11.7,-19.4 10.6,-31.2 -0.1,-1.1 -0.4,-2.1 -0.7,-3 0,-0.3 0,-0.6 0,-1 -3.5,-31.9 -28.3,-50.2 -52.8,-68 -31.7,-23.1 -68.8,-37.3 -100.5,-60.2 -35.1,-25.4 -63.3,-74.6 -25.9,-111.2 31.5,-30.8 67.6,-14.2 90.3,13.8 3.5,20.5 15,41.9 24,59.5 12.3,24.7 28.7,48.2 50.2,65.8 z m 434.7,-317 c -34.3,34.4 -72.4,64.8 -117.7,83.2 -47.1,19.1 -97.8,29.1 -146.5,43.1 -46.4,13.3 -93.4,26.8 -138.4,44.2 -25.1,9.7 -53.4,24 -66,48.6 -6.5,-16.6 -11.9,-34.1 -22.8,-47.9 -1.4,-1.8 -3.1,-2.7 -4.9,-3.2 -14.7,-19.2 -39.1,-31.4 -63.5,-31.9 -38.9,-0.8 -73.8,29.3 -82.1,66.8 -6.9,30.9 6.1,60.5 26.3,83.6 -35.6,14.5 -40.4,36.8 -36,73.8 0.7,5.9 1.2,12.4 1.4,19.1 -5,-22.5 -13,-44.9 -20,-68.7 -4,-13.7 -23.2,-7.8 -21,5.8 3.9,23.6 13.1,45.6 18.4,68.8 5.7,24.9 2,48.1 1.6,73.2 0,1.7 0.3,3.2 1,4.5 -2.2,2.8 -4.6,5.4 -7.3,7.6 -0.9,-19.5 -9.2,-38.4 -17.3,-56.5 -13.1,-29 -28.9,-56.3 -48.7,-81.2 -7.5,-9.4 -22,2.6 -16.3,12.6 24.9,43.3 52,86 59.7,135.8 -3.9,0.7 -8.1,1 -12.5,1 1,-13.4 -1.3,-26.6 -8.9,-38 -22.9,-34.2 -80.2,-15.8 -112.1,-8.1 -51.6,12.5 -104.3,32.9 -148,63.4 -12,8.4 -1.6,27 11.6,19.9 37.7,-20.3 74.9,-39.2 116.1,-51.4 28.3,-8.4 116.9,-38.9 114.9,11.8 -2.7,66.7 -75.7,110.1 -93.6,172.1 -3.8,13.2 17,22.8 22.8,9.6 1.6,-3.6 3.4,-7.1 5.1,-10.5 25.3,15.2 69.3,11.7 92.7,0 4.7,-2.4 9,-7.2 13.7,-9 3.7,-1.5 23.3,-4.1 26.6,-0.9 11.4,11.1 -24.8,28.4 -32.8,30.2 -28.9,6.3 -60.7,4 -90,2 -4.5,-0.3 -7.5,1.5 -9.3,4.2 -9.7,0.6 -12.8,15.6 -1.9,19.1 25.1,7.9 50.4,15.2 75.7,22.4 5.4,1.6 14.2,2.4 19,5.4 2.4,0.7 4.8,1.4 7.2,2.1 0,6 0,12 0,18 -6.9,5 -30.9,-6 -37.2,-8.7 -32.3,-13.8 -63.2,-38 -100,-31.6 -4.4,-3.8 -12.3,-3.5 -15.7,2 -8.7,-8.9 -23.2,-10.7 -35.4,-6.6 -0.2,-0.3 -0.4,-0.6 -0.7,-0.9 -18.9,-20.8 -40.7,-4.2 -57.1,10.4 -11.1,9.9 -47.4,35 -55.7,8.5 -4.4,-13.9 24,-20.4 43,-25 1.7,0.8 3.7,0.9 6.1,0 41.8,-16 70.8,-64.2 85.7,-105.3 36.6,-24.3 64.4,-59.6 71.7,-105.6 2,-12.3 -14.6,-17.3 -18.9,-5.2 -26.5,74.4 -94,116.6 -171.4,121.2 -64.7,3.8 -158.5,-9.9 -190,-74.7 0,-3.1 -1.1,-6.2 -3.7,-8.5 -1,-2.6 -1.9,-5.2 -2.7,-7.9 -3,-10.5 -13.7,-11.3 -20.2,-6.3 C 638.3,899.9 563.7,868.4 494,829 456.9,808 420.5,785.7 386.2,760.2 c -24.8,-18.5 -52.4,-38.9 -66.4,-66.1 13.2,6.2 27.3,10.8 37.2,14.4 65.5,24.2 137.2,27.2 206.3,24.6 36.6,-1.4 78.5,-7.2 106.3,-28.9 0.7,-0.1 1.3,-0.3 2,-0.6 20.8,-8.7 30.1,-29.7 27.5,-50.6 0.1,-0.9 0.3,-1.8 0.4,-2.8 0.4,-3.2 -0.8,-5.6 -2.7,-7.3 C 696,640.5 695.1,638 694,635.7 676.1,598.1 625.1,584.8 592,565 546.3,537.6 503.9,504.5 462.5,471.1 428,443.3 396.2,411.8 383.6,368.8 c 39.2,-16.1 73.4,10.7 109.8,25.9 30.9,13 67.5,23 101.1,17.7 1.4,-0.2 2.6,-0.7 3.6,-1.4 3.4,-0.5 6.7,-0.8 10,-0.5 8.7,0.9 11.8,6.7 15.1,14 3.1,6.8 6.7,12.6 11.7,16.8 -7.5,5.2 -14.1,11.7 -19.3,19.7 -0.1,0.1 -0.1,0.2 -0.2,0.3 -25.8,27.3 -16,73.8 9.1,100.9 31.5,34 86.8,35.5 117.6,-1.1 27.8,-33 21.8,-87.9 -10.6,-115.5 -4.7,-4 -9.7,-7.2 -15,-9.9 34.2,-15.6 59.8,24.4 67.6,56.1 5.9,23.6 1.8,59.3 20.9,77.6 0.1,0.2 0.2,0.4 0.3,0.6 8.8,14.4 21.4,25.2 33.1,37.2 17.6,18 25.3,36 28,60.7 2,18.2 4,38.8 -2.4,56.2 -8,21.7 -27.8,32.5 -48.5,38.9 -9.8,-2.2 -20.9,-1 -31.4,1.4 -10.2,2.3 -8.2,19.2 2.5,18.5 5,-0.3 10.7,-0.8 15.9,-0.2 1.8,2.6 4.8,4.5 8.8,4.5 1.1,0 2.2,-0.1 3.3,-0.2 2.6,2.1 4.6,5.1 5.6,9.3 3.1,13.1 -4.7,25.7 -8.2,37.9 -3.5,12.2 13.3,18.5 20,8.4 11.1,-17 17.5,-40.8 8.2,-60 37.5,-12.7 57.4,-50.6 55.8,-93.2 -0.2,-6 -0.7,-11.9 -1.5,-17.7 22.5,10.7 51.1,1.6 66.9,-19.3 9.7,-12.8 11.4,-26.1 5.8,-41 -4.7,-12.4 -13.4,-21.1 1.2,-29.1 6.9,-3.7 15.7,-5.5 24.3,-7.2 -1.5,2.1 -3,4.2 -4.3,6.5 -5,8.4 7.3,18.6 13.9,10.7 22.9,-26.9 58.2,-36.4 91.1,-45.6 38,-10.6 76.8,-18.6 115.9,-23.3 58.8,-7 115.7,-3.9 173.6,0.2 -10,8 -2.8,27.2 12.1,23.6 162.7,-39.2 360.5,-38 485.8,-165 48.2,-48.9 93.1,-129.2 66.6,-199 -12.3,-32.6 -36.5,-49.9 -68.7,-59.9 -39.4,-12.2 -66.1,-35 -82.7,-69.4 0.6,-1.8 0.8,-3.9 0.3,-6.3 -1.3,-6.3 -4.7,-14.1 -2.2,-20.5 2.3,-5.9 6.3,-5.3 10.1,-1.2 7.1,7.6 11.3,18.6 15.4,28.6 0.2,2.1 1,4.2 2.6,6.2 0.1,0.1 0.2,0.3 0.3,0.4 0.6,1.1 1.4,2 2.3,2.7 26.2,30.3 68.1,33.2 102.7,49.4 36.6,17.1 61,51.7 72.1,89.8 26.3,90 -24.8,175.7 -86.5,237.5 z"
   id="path4"
   inkscape:connector-curvature="0"
   style="fill:#e6e6e6" />
	<path
   class="st0"
   d="m 1055.4,669.6 c -7.3,1.8 -13.6,8.8 -13.9,16.2 -0.7,2.2 -0.9,4.6 -0.5,7.1 1.5,10 13.3,15.4 22.4,13.5 9.5,-2 15.2,-11.5 13.9,-20.8 -1.4,-10.5 -11.1,-18.6 -21.9,-16 z"
   id="path6"
   inkscape:connector-curvature="0"
   style="fill:#e6e6e6" />
	<path
   class="st0"
   d="m 1056.3,600.9 c -6.8,4.3 -6.4,12.2 -1.7,16.9 -2.1,18.2 30.4,37.2 40.8,17.8 5.2,-9.7 -0.9,-22.2 -8.3,-28.9 -7.8,-7.1 -20.9,-12.1 -30.8,-5.8 z"
   id="path8"
   inkscape:connector-curvature="0"
   style="fill:#e6e6e6" />
	<path
   class="st0"
   d="m 1148.3,670.9 c -5.5,-1.9 -11.6,-1.2 -16.4,2.2 -6.1,4.3 -7.8,10.2 -6.6,17.3 0.5,2.8 2.7,5.2 5.3,6.5 -2.5,7.3 1.5,16 9.7,19.3 12.7,5.2 22.8,-6.5 23.4,-18.4 0.7,-10.7 -4.7,-23.2 -15.4,-26.9 z"
   id="path10"
   inkscape:connector-curvature="0"
   style="fill:#e6e6e6" />
	<path
   class="st0"
   d="m 1500.6,547.3 c -2.3,-0.7 -4.5,-0.5 -6.9,-0.3 -4.5,0.4 -8.4,2.1 -10.7,6.2 -2,3.4 -2.2,7.4 -0.6,11.1 3.2,7.6 14.2,10.7 20.1,4 2.2,-2.5 4.3,-4.8 5.4,-8.1 1.8,-5.5 -2.2,-11.3 -7.3,-12.9 z"
   id="path12"
   inkscape:connector-curvature="0"
   style="fill:#e6e6e6" />
	<path
   class="st0"
   d="M 749.4,806 C 677.7,805.5 610.2,795.9 545,764.4 c -12.4,-6 -23.3,12.3 -10.9,18.6 66.8,33.6 142.9,52 217.7,41.7 10.8,-1.6 7.9,-18.6 -2.4,-18.7 z"
   id="path14"
   inkscape:connector-curvature="0"
   style="fill:#e6e6e6" />
	<path
   class="st0"
   d="m 739.1,851.9 c -29,-0.2 -58.1,-2 -87,-4.8 -11.3,-1.1 -14.1,18.4 -2.7,20 30,4.2 59.5,5.7 89.7,5 12.9,-0.4 13,-20.1 0,-20.2 z"
   id="path16"
   inkscape:connector-curvature="0"
   style="fill:#e6e6e6" />
</g>
</svg>