<svg xmlns="http://www.w3.org/2000/svg" viewBox="0 0 198.7 106.2" xmlns:v="https://vecta.io/nano"><style><![CDATA[.B{stroke:#00014c}.C{font-family:Spartan}.D{font-size:10.6px}.E{word-spacing:0px}.F{fill:#00014c}]]></style><g fill="#fff" stroke-width="1.2" class="B"><path d="M.7.6h21.9v40.2H.7z"/><path d="M22.6.6h21.9v40.2H22.6zm22 0h21.9v40.2H44.6z"/><path d="M66.5.6h21.9v40.2H66.5zm22 0h21.9v40.2H88.5z"/><path d="M110.4.6h21.9v40.2h-21.9z"/><path d="M132.3.6h21.9v40.2h-21.9zm22 0h21.9v40.2h-21.9z"/><path d="M176.2.6h21.9v40.2h-21.9z"/></g><g stroke-width=".5" class="F B"><path d="M14.8.6h7.8v22.8h-7.8z"/><path d="M22.6.6h7.8v22.8h-7.8zm14.2 0h7.8v22.8h-7.8z"/><path d="M44.6.6h7.8v22.8h-7.8zm36.1 0h7.8v22.8h-7.8z"/><path d="M88.5.6h7.8v22.8h-7.8zm14.1 0h7.8v22.8h-7.8z"/><path d="M110.4.6h7.8v22.8h-7.8zm14.1 0h7.8v22.8h-7.8z"/><path d="M132.3.6h7.8v22.8h-7.8zm36.1 0h7.8v22.8h-7.8z"/><path d="M176.2.6h7.8v22.8h-7.8z"/></g><path d="M57.7 55.8h21.9v23.9H57.7zm65.9 0h21.9v23.9h-21.9z" fill="#fff" stroke-width="1.2" class="B"/><path d="M12.9 35.8H9.8l-.5 1.4h-2l2.8-7.7h2.4l2.9 7.7h-2zm-2.6-1.4h2l-1-3zm26.8-4.7v1.6L36 31l-1.2-.1q-.7 0-1 .2-.4.2-.4.6 0 .3.3.4.2.2.8.3l.9.2q1.2.3 1.8.8.5.5.5 1.5 0 1.3-.7 1.9-.8.6-2.3.6l-1.5-.1-1.5-.4V35l1.4.6 1.4.2q.6 0 1-.2.3-.3.3-.7 0-.3-.2-.5l-1-.4-.7-.1q-1.2-.3-1.7-.8-.6-.6-.6-1.5 0-1.1.8-1.8.7-.6 2.1-.6l1.3.1 1.4.3zM54.7 31v4.7h.8q1.2 0 1.8-.6.7-.6.7-1.7 0-1.2-.7-1.8-.6-.6-1.8-.6zm-2-1.5h2.1q1.8 0 2.7.3.8.2 1.4.8.6.5.8 1.2.3.7.3 1.6 0 .8-.3 1.5-.2.7-.8 1.2-.6.6-1.4.9-1 .2-2.7.2h-2zm22.9.1H81v1.5h-3.4v1.4h3.2V34h-3.2v3.3h-2zm26.5 6.9l-1.5.5q-.8.2-1.7.2-2 0-3-1.1-1.2-1-1.2-3 0-1.8 1.2-2.9 1.1-1 3.1-1l1.5.1 1.3.4v1.6l-1.3-.5-1.2-.2q-1.2 0-1.9.7-.6.6-.6 1.9 0 1.2.6 1.9.6.6 1.8.6h.5l.5-.1V34H99v-1.4h3.1zm15.4-6.9h2v3h3v-3h2v7.7h-2V34h-3v3.3h-2zm23.8-.2h2v7q0 1.4-.8 2.1-.8.7-2.4.7h-.4v-1.5h.3q.6 0 1-.3.3-.4.3-1zm20.8.2h2v2.8l2.9-2.8h2.3l-3.7 3.7 4 4h-2.4l-3-3v3h-2zm22.7-.1h2v6.2h3.5v1.5h-5.5z" letter-spacing="0" class="C D F E"/><path d="M16.6 12.4h1.9l1.3 5.6 1.3-5.6h2l1.3 5.6 1.3-5.6h1.9l-1.8 7.7h-2.3l-1.4-5.8-1.4 5.8h-2.3zm25.7-.2h5.3v1.5h-3.4v1.5h3.2v1.5h-3.2v1.7h3.5v1.5h-5.4zM85 12h7v1.4h-2.5v6.2h-2v-6.2H85zm21.4 0h2.2l1.8 2.7 1.7-2.8h2.2l-3 4.5v3.2h-2v-3.2zm22.8-.1h2v4.6q0 1 .3 1.4.3.4 1 .4.7 0 1-.4.3-.4.3-1.4V12h2v4.6q0 1.7-.8 2.5-.8.8-2.5.8-1.7 0-2.5-.8-.8-.8-.8-2.5zm47.3 4.1q0-1.5-.3-2-.3-.7-1-.7-.5 0-.8.6-.3.6-.3 2 0 1.5.3 2.1.3.6.9.6.6 0 .9-.6.3-.6.3-2zm2 0q0 1.9-.9 3-.8 1-2.3 1-1.5 0-2.4-1-.8-1.1-.8-3 0-2 .8-3 .9-1 2.4-1 1.5 0 2.3 1 .9 1 .9 3z" letter-spacing="0" fill="#fff" class="C D E"/><path d="M65.4 65H72v1.2l-4.1 5H72v1.5h-6.7v-1.2l4.2-5h-4zm70.3 3.7l2.7 4h-2l-1.9-2.7-1.8 2.7h-2l2.6-4-2.6-3.7h2.1l1.7 2.4 1.7-2.4h2zm-18.2 15.1q-1 0-1.4.7-.5.7-.5 1.9 0 1.2.5 1.9.5.6 1.4.6 1 0 1.4-.6.5-.7.5-2 0-1.1-.5-1.8-.5-.7-1.4-.7zm0-1.4q1.9 0 3 1 1 1 1 3 0 1.8-1 3-1.1 1-3 1-1.9 0-3-1-1-1.2-1-3 0-2 1-3 1.1-1 3-1zm10.1 2.2v1.5l-.8-.4h-.8q-.8 0-1.2.4-.4.4-.4 1.2 0 .8.4 1.3.4.4 1.2.4h.8l.8-.5V90l-1 .3h-.8q-1.6 0-2.5-.7-.8-.8-.8-2.3 0-1.4.8-2.2 1-.8 2.5-.8h.9l.9.3zm3.6-1.8v1.6h1.9v1.4h-2v2.4q0 .4.2.6l.7.1h1v1.3h-1.7q-1 0-1.5-.4-.5-.5-.5-1.6v-2.4h-.9v-1.4h1v-1.6zm5.6 4.8q-.6 0-.9.2-.2.2-.2.6 0 .3.2.5.2.2.6.2.6 0 1-.3.3-.4.3-1v-.2zm2.8-.7v3.3h-1.8v-.8q-.4.5-.9.7-.4.3-1 .3-1 0-1.6-.6-.5-.5-.5-1.3 0-1 .7-1.5.7-.5 2.2-.5h1v-.1q0-.5-.3-.7-.3-.2-1-.2l-1.2.1-.9.4v-1.4l1.2-.2 1.2-.1q1.6 0 2.2.6.7.6.7 2zm1-2.5h1.9l1.4 4 1.5-4h1.8l-2.3 5.8h-2zm13.4 2.9v.5h-4.3q0 .7.5 1 .4.3 1.1.3l1.2-.1 1.3-.6v1.5l-1.3.3-1.4.2q-1.5 0-2.4-.8-.9-.8-.9-2.3 0-1.4.9-2.2.8-.8 2.3-.8 1.4 0 2.2.8.8.8.8 2.2zm-1.9-.6q0-.5-.3-.9-.3-.3-.8-.3-.5 0-.8.3-.4.3-.5.9zm-24.6 14.5v-3.5h1.9v3.7l.1.4.3.3.4.1q.6 0 1-.4.3-.5.3-1.3v-2.8h1.8v5.7h-1.8v-.8l-1 .8q-.4.2-1 .2-1 0-1.5-.6-.5-.6-.5-1.8zm9.5 1.4v3h-2v-8h2v1q.3-.6.8-.8.5-.3 1-.3 1.1 0 1.8.9.7.8.7 2.2 0 1.3-.7 2.2-.7.8-1.7.8-.6 0-1.1-.2-.5-.3-.9-.8zm1.2-3.7q-.6 0-1 .4-.3.4-.3 1.3 0 .8.4 1.2.3.5.9.5.6 0 .9-.5.3-.4.3-1.2 0-.9-.3-1.3-.3-.4-1-.4z" letter-spacing="0" class="F C D E"/><path d="M50.7 83.6q-1 0-1.4.7-.5.6-.5 1.9 0 1.2.5 1.8.5.7 1.4.7 1 0 1.4-.7.5-.6.5-1.8 0-1.3-.5-2-.5-.6-1.4-.6zm0-1.5q1.9 0 3 1.1 1 1 1 3 0 1.8-1 2.9-1.1 1-3 1-1.9 0-3-1-1-1-1-3 0-1.8 1-2.9 1.1-1 3-1zm10.1 2.3v1.5l-.8-.4-.8-.1q-.8 0-1.2.5-.4.4-.4 1.2 0 .8.4 1.3.4.4 1.2.4l.8-.1.8-.4v1.5l-1 .3H59q-1.6 0-2.5-.7-.8-.9-.8-2.3 0-1.4.8-2.2 1-.8 2.5-.8h.9l.9.3zm3.6-1.8v1.6h1.9v1.3h-2V88q0 .4.2.5.2.2.7.2h1V90h-1.7q-1 0-1.5-.5-.5-.4-.5-1.5v-2.5h-.9v-1.3h1v-1.6zm5.6 4.8q-.6 0-.9.2-.3.2-.3.6 0 .3.3.5.2.2.6.2.6 0 1-.3.3-.4.3-1v-.2zm2.8-.7V90H71v-.9q-.4.6-.9.8-.4.3-1.1.3-.9 0-1.5-.6-.5-.5-.5-1.3 0-1 .7-1.5.7-.5 2.2-.5h1v-.1q0-.5-.3-.7-.3-.2-1-.2l-1.2.1-1 .4v-1.4l1.3-.2 1.2-.1q1.5 0 2.2.6.7.6.7 2zm1-2.5h1.9l1.4 4 1.5-4h1.8L78.1 90h-2zM87.2 87v.6H83q0 .7.5 1 .4.3 1.1.3l1.2-.1 1.3-.6v1.5l-1.4.3q-.6.2-1.3.2-1.5 0-2.4-.8-.9-.8-.9-2.3 0-1.4.9-2.2.8-.8 2.3-.8 1.4 0 2.2.8.8.8.8 2.2zm-1.9-.5q0-.5-.3-.9-.3-.3-.8-.3-.5 0-.9.3-.3.3-.4.9zM56.2 98.3v-3.1H58v8h-1.8v-.8q-.4.5-.9.7-.4.3-1 .3-1.1 0-1.8-.9-.7-.8-.7-2.2 0-1.3.7-2.1.7-.9 1.8-.9.6 0 1 .2.5.3.9.8zm-1.3 3.7q.6 0 1-.4.3-.4.3-1.3 0-.8-.4-1.2-.3-.5-.9-.5-.5 0-.9.5-.3.4-.3 1.2 0 .9.3 1.3.4.4 1 .4zm7.7-3.4q-.7 0-1 .5-.3.4-.3 1.2 0 .9.3 1.3.3.5 1 .5.6 0 .9-.5.3-.4.3-1.3 0-.8-.3-1.2-.3-.5-1-.5zm0-1.3q1.4 0 2.3.8.8.8.8 2.2 0 1.5-.8 2.3-.9.8-2.3.8-1.5 0-2.4-.8-.8-.8-.8-2.3 0-1.4.8-2.2.9-.8 2.4-.8zm4 .1h1.8l1 4 .9-4h1.5l1 4 1-4h1.8l-1.5 5.8h-2l-1-4-1 4h-2zm16.1 2.3v3.5h-1.9v-3.7l-.1-.4-.3-.3-.5-.1q-.5 0-.9.5-.3.4-.3 1.2v2.8h-1.9v-5.8h1.9v.9q.4-.5.9-.8l1-.2q1 0 1.5.6.6.6.6 1.8z" letter-spacing="0" class="C D E F"/></svg>