<?xml version="1.0" encoding="utf-8"?>
<!-- Generator: Adobe Illustrator 23.1.0, SVG Export Plug-In . SVG Version: 6.00 Build 0)  -->
<svg version="1.1" id="Layer_1" xmlns="http://www.w3.org/2000/svg" xmlns:xlink="http://www.w3.org/1999/xlink" x="0px" y="0px"
	 viewBox="0 0 2034.3 1229.7" style="enable-background:new 0 0 2034.3 1229.7;" xml:space="preserve">
<style type="text/css">
	.st0{fill:#00004C;}
</style>
<g>
	<path class="st0" d="M2012.5,162.2c-14.3-28.4-36.8-53.4-65.1-68.4c-35-18.6-76.9-19.9-107.7-46c-4.6-19.9-17.2-45.9-38.3-47.7
		c-11.4-0.9-21,6.1-25.9,16.2c-1.4,2.9-2.3,6.1-2.8,9.2c-3.1,2-5.3,5.8-4.6,10.6c4.2,29.8,20.8,58.3,43.1,78.5
		c10.3,9.4,22,17.4,34.6,23.4c17.3,8.3,37.8,10.2,53.5,21.4c76.3,54.6,0.6,170.3-49,214.7c-114,102.2-272.8,102-415.4,134.7
		c-1.2-1.2-2.6-2.1-4.5-2.6c-77.6-19.9-164.7-15.4-243.3-3.8c-41.7,6.2-82.9,15.7-122.9,28.9c-17.8,5.9-34.9,12.4-49.5,22.6
		c-1.6-2.3-4.4-3.8-8.2-3.3c-21.6,2.8-64.5,3-71.9,29.6c-3.8,13.6,4.1,23.6,8.1,35.7c9.9,30-26.5,48.1-49.4,29.6
		c-1.4-1.2-2.9-1.9-4.4-2.2c-10.7-35.7-33.1-65.2-69-85.7c-11.4-19.8-7.1-50.2-11.5-72.3c-4.2-21.3-11.9-43.4-27.4-59.4
		c-24.4-25.1-67.8-30-88.6,1.3c-0.2,0.3-0.3,0.6-0.4,0.8c-12.1-1.6-24.4-0.6-35.9,3.1c-0.4-0.3-0.8-0.5-1.3-0.7
		c-9.2-4-10.9-13.4-14.7-21.7c-3.1-6.9-7.2-12.5-14-16.4c-11.1-6.5-25-6.1-37.3-2.5c-22.9-4.6-46.1-6.1-68.6-13.3
		c-22.6-7.3-43.1-19-65-27.9c-18.4-7.5-39.8-12.1-59.1-8.3c-12-4-25.9,1.5-33.6,11.9c-12,16.1-6.8,37.4,3.4,52.8
		c1.2,1.8,2.6,3,4.1,3.8c21.5,48.7,73.2,83.9,114.2,115.1c5.5,4.2,11,8.3,16.5,12.5c-0.3,0.5-0.7,1-0.9,1.6
		c-14.6,30.9-35.9,57.2-67.1,72.6c-35.7,17.6-74.6,10.1-112.3,17.6c-18.5,3.7-43.2,15.3-33.5,38.6c0.3,0.7,0.7,1.3,1,2
		c-0.1,30,19.3,57,40.8,77.8c35,33.9,77.2,62,118.4,87.7c26.4,16.5,53.6,32.6,81.3,48.2c-15.7,5.3-31.2,12.9-44,22.5
		c-115.7,16.3-229.7,142.2-349.5,76.8c-22.8-12.4-92.1-55.1-95.8,0.6c-1.9,28.1,16.1,41.5,39.2,48.8c-21.5,3.3-42.2,10.3-60.4,23
		c-8.9,6.3-20.4,15.9-17.4,28.4c4.3,17.8,22.9,13.9,35.8,13.5c2.1-0.1,3.8-0.6,5.3-1.4c21.1,2.4,42.6,1.1,63.8-2.3
		c-1.4,1.2-2.9,2.5-4.3,3.7c-7.8,6.8-21,14.7-25.1,24.9c-6.5,16.1,6.5,29.7,21.8,32.3c38.4,6.4,86.9-21.8,106-56.7
		c20.9-13.3,42.3,36.1,56.3,46.8c15.4,11.7,34.9,16.4,52.7,6.9c14.5-7.8,22.6-23,19.1-39.3c-3-14.3-14.1-24.8-26.1-33.5
		c49.6-12.4,99.2-27.3,147.8-42.9c13.4-4.3,27.4-10,39.5-17.6c36.7,11.7,76.6,2.2,113.5-4.5c32.9-6,77.8-8.5,103.6-32.4
		c32.8,74.6,139.6,92.4,213.6,87.2c27.8-2,56.6-8.7,83.2-20.2c-4.4,8.4-9.4,16.6-15.2,24.3c-11.1,15.1-25.7,26.6-38.3,40
		c-20.7,2.1-49.1,5.4-62.5,19.4c-11.4,12-11.5,32.4-2.3,45.5c10.8,15.4,31.1,20.5,48.9,16.5c10.9-2.4,20.7-7.9,29.5-14.7
		c8.7-6.7,23.9-27.3,37.1-26.1c-12.4,16.3-9.6,41.4,3.9,56.6c14.1,15.8,45.8,27.3,65.8,16.8c10.9-5.7,15.1-18.2,12.5-29.8
		c-1.5-6.6-5.1-12.5-7.6-18.7c-1.7-4.2-2.6-8.3-3.1-12.5c33.4,2.8,58.6,20.8,88.9,33.4c20.3,8.5,51.1,17.3,70.3,1.3
		c18.9-15.7,8.7-39.8-10-50.2c-9.8-5.4-21.7-8.1-33.2-10.7c41-3.9,80-18.3,72.5-59.8c-3.8-20.9-25-35.1-45.4-27.2
		c-15.5,6-25.5,19.7-42.6,23.2c-17,3.5-39.9,4-57-2.9c16.9-27.8,37.4-52.5,55.2-80.5c8-12.6,16.4-28.5,21.6-45
		c36.8,5.8,70.4-20,85.2-53.7c10-22.7,12.3-47.8,11.2-72.4c-0.6-13.4-4.6-28-3.7-41.3c1.1-16.6,10.4-24.4,22.7-34.6
		c0.8-0.6,1.3-1.3,1.8-2.1c2,1.7,4,3.3,6,4.9c22.4,17.3,48.2,29.2,72.6,43.3c23.2,13.4,70.3,37.6,74.2,67.4c0.5,4.1,2.6,7.2,5.2,9.4
		c-7.3,19.1-42,17-43.7,38.9c-1.4,18.2,19.9,20.7,33.3,20c26.2-1.4,52.6-16.5,66.2-39c5.9,6.5,14.2,11.4,22.5,15.1
		c1.9,2.4,4.8,3.9,8.3,3.7c18.7-1.3,37.9-12.3,45-29.9c33.5,18.2,83.2-5.4,102.7-38.4c2.5-4.2,4.3-8.8,5.6-13.6
		c22.4-1.7,42.5-9.5,60.1-24.4c13.2-11.2,31.2-30.3,18.6-48.2c-11.6-16.3-39.1-15.2-55.2-7.1c-16.5,8.3-23.6,25.7-36.2,37.8
		c-0.9-0.6-1.8-1.3-2.8-1.8c-15.5-8.7-32.6-3-44.7,8c-52.3-13.5-117.2-18.3-158.2-55.5c-14.4-13-25.5-29-34.9-45.9
		c0.7-0.7,1.3-1.4,1.9-2.3c21.5-33.5,55.6-44.7,91.8-56.7c41.3-13.7,82.9-26.4,124.8-38.2c75.5-21.2,149.5-37.7,212-87.7
		C1986.6,423.3,2077,289.8,2012.5,162.2z M708.9,465.2c23,14.3,30.2,47.3,18.5,70.9c-18.9,38-54.7,34.4-79.6,15
		c0.1-0.1,0.1-0.2,0.2-0.3c10.7-20.3,23.8-39.6,33.7-60.2c4.3-8.9-6.9-19.3-14.5-11.2c-14.4,15.5-25.9,35-36.2,53.8
		c-11.6-17.2-15-38.5-2.1-56.1c1.6-0.4,3.2-1.1,4.6-2.3C654,457.8,685.1,450.5,708.9,465.2z M435.1,636.1c38.4-16.3,69-48,82.3-87.4
		c24.8,17.9,50.4,34.9,77.3,49.5c11.2,6.1,22.9,11.2,34.4,16.8c0,0.9,0.1,1.8,0.4,2.6c1.3,16.3-1.8,34.7-8.9,50.9
		c-24.8,5.1-49.9,8.8-75.4,9.7c-20.9,0.7-42-0.2-62.6-3.6c-9.2-1.5-18.4-3.6-27.4-6.1c-6.1-1.7-12-3.7-17.9-5.8
		c-9.3-3.2-16.9-8.7-22.9-16.7c4,0.3,6.4-2.1,7.4-5.1C426.2,639.5,430.7,638,435.1,636.1z M316,657.9c2.5-10.5,38-8.1,47.1-8.5
		c11.6-0.6,22.9-1.4,34-3.1c0.1,5.7,2.4,11.7,6.2,17c16.1,22.1,53.3,28.9,78,33c40.1,6.7,81.1,4.8,121.4-1.7
		c-6.5,6.2-14.1,11.1-23,13.7c-21.9,1.5-43.8,0.8-61.6,0.6c-58.4-0.5-118.6-6.7-172.4-30.9C338.3,674.7,314.2,665.6,316,657.9z
		 M516.9,994.8c6-8.8,9.8-19.1,10.3-31.4c0.4-10.2-15.5-15.3-20-5.4c-19,41-58.5,49.2-98.3,61.2c-40.9,12.3-82.2,23.9-122.4,38.3
		c-4.1,1.5-6.5,4.2-7.6,7.4c-6.5,2.8-10,12.4-4.2,18.9c5.9,6.6,19.2,12.4,23.4,19.2c1.4,7.9,2.8,15.9,4.2,23.8
		c-7.7,4.2-15.3,3.8-22.9-1.2c-15.2-8.5-21.8-26.9-33.3-39c-11.7-12.4-27.7-18.6-42.2-13.4c-3.7-2-8.5-2-11.6,1.7
		c-20.1,23.9-37.2,45.2-69.6,52.6c-3.7,0.9-19.4,5.2-22.2,1.3c-0.2-0.3,16.7-14.5,17.7-15.4c13-11.3,26-22.6,38.9-34
		c9.4-8.2-0.6-23.2-11.8-20.2c-37,10-72.5,13.7-110,12.6c2.8-1.8,5.6-3.4,8.5-4.9c9.9-5.1,20.5-8.4,31.3-10.9
		c26.5-6,54.3-4.7,81.3-5.5c6.9-0.2,9.8-5.6,9-10.6c2.4-5.5,0.9-12.9-6.5-15c-23.2-6.7-49.2-3.3-71.7-11.6
		c-9.3-3.1-16.9-8.6-22.9-16.4c3.3-19.1,11.6-23.9,24.8-14.3c10.5,4.8,19.7,12.2,29.7,18.1c35.2,20.9,74.6,26.4,114.9,21
		c43-5.8,83-22.6,121.7-41.6c35.8-17.6,70.5-33.8,107.3-47c1.7,6.6,10.4,11.2,17.2,7.6c14.4-7.8,26.3-19.7,40.8-27.7
		c11.5-6.4,23.5-10.8,35.8-15c43.4,23.4,87.9,45.1,132.7,63.8c-26.1,9.9-52.1,15.8-80,21.3C578.6,989.1,548,996,516.9,994.8z
		 M1058,1203.3c-5.1,1.5-14.2-1.4-19.1-3.4c-11.1-4.5-20.8-15.2-18.6-27.9c2.4-13.5,16.9-14.3,25.3-6c2.4,2.4,5,3.2,7.5,3
		c0.5,6.6,2.2,13.2,4.7,19.8c1.2,3.1,3.9,6.6,3.6,9.9C1061.3,1203.1,1062.5,1202.1,1058,1203.3z M1579.3,867
		c-4.2,9.8-16.4,12.9-25.4,17.1c-6.4-3.8-13.3-8.8-14.2-15.7c-1.7-12.9,15-16.7,24.7-16.6C1573.8,851.9,1584.2,855.7,1579.3,867z
		 M1757.2,763.8c12.5,0.7,12.8,2.7,4.6,11.8c-5.2,5.8-11.3,10.8-17.8,15c-9.7,6.2-20.8,10.7-32.1,13.6c-0.3-1.9-0.7-3.7-1.3-5.4
		C1725.3,784.7,1734.2,762.4,1757.2,763.8z M1478.4,757.5c36.9,30.2,90.6,42.5,140,48.3c-2.7,0-5-0.1-6.6,0
		c-12.1,0.2-23.2-1.7-34.9-4.6c-10.7-2.6-16.2,11.4-7.3,17.4c15.9,10.7,38.8,10.5,57.2,8.3c10.1-1.2,20.1-4.4,26.3-11.5
		c2.4-0.6,4.7-1.9,6.4-4.4c3.1-4.3,9.7-11.4,15.3-11.8c5.2-0.3,8.7,0.6,11.1,2.2c0.7,1.6,1.9,3,3.3,4.1c2.4,6.7-2.2,17-5.1,21.9
		c-5.7,9.6-16.9,19.5-26.2,25.3c-21.7,13.4-41.9,6-58.4-10.1c-6.9-9.1-18.6-14.5-31.5-14.7c-17.9-0.3-37.7,7.8-45.7,24.2
		c-2.4,0.6-4.5,2.1-5.7,4.6c-6.7,14.1-13.4,26.3-26.8,35c-3.2,2.1-7.5,4.4-12.3,6.3c2-1.6,3.9-3.2,5.7-5
		c8.2-8.7,11.7-19.4,10.6-31.2c-0.1-1.1-0.4-2.1-0.7-3c0-0.3,0-0.6,0-1c-3.5-31.9-28.3-50.2-52.8-68
		c-31.7-23.1-68.8-37.3-100.5-60.2c-35.1-25.4-63.3-74.6-25.9-111.2c31.5-30.8,67.6-14.2,90.3,13.8c3.5,20.5,15,41.9,24,59.5
		C1440.5,716.4,1456.9,739.9,1478.4,757.5z M1913.1,440.5c-34.3,34.4-72.4,64.8-117.7,83.2c-47.1,19.1-97.8,29.1-146.5,43.1
		c-46.4,13.3-93.4,26.8-138.4,44.2c-25.1,9.7-53.4,24-66,48.6c-6.5-16.6-11.9-34.1-22.8-47.9c-1.4-1.8-3.1-2.7-4.9-3.2
		c-14.7-19.2-39.1-31.4-63.5-31.9c-38.9-0.8-73.8,29.3-82.1,66.8c-6.9,30.9,6.1,60.5,26.3,83.6c-35.6,14.5-40.4,36.8-36,73.8
		c0.7,5.9,1.2,12.4,1.4,19.1c-5-22.5-13-44.9-20-68.7c-4-13.7-23.2-7.8-21,5.8c3.9,23.6,13.1,45.6,18.4,68.8
		c5.7,24.9,2,48.1,1.6,73.2c0,1.7,0.3,3.2,1,4.5c-2.2,2.8-4.6,5.4-7.3,7.6c-0.9-19.5-9.2-38.4-17.3-56.5
		c-13.1-29-28.9-56.3-48.7-81.2c-7.5-9.4-22,2.6-16.3,12.6c24.9,43.3,52,86,59.7,135.8c-3.9,0.7-8.1,1-12.5,1
		c1-13.4-1.3-26.6-8.9-38c-22.9-34.2-80.2-15.8-112.1-8.1c-51.6,12.5-104.3,32.9-148,63.4c-12,8.4-1.6,27,11.6,19.9
		c37.7-20.3,74.9-39.2,116.1-51.4c28.3-8.4,116.9-38.9,114.9,11.8c-2.7,66.7-75.7,110.1-93.6,172.1c-3.8,13.2,17,22.8,22.8,9.6
		c1.6-3.6,3.4-7.1,5.1-10.5c25.3,15.2,69.3,11.7,92.7,0c4.7-2.4,9-7.2,13.7-9c3.7-1.5,23.3-4.1,26.6-0.9
		c11.4,11.1-24.8,28.4-32.8,30.2c-28.9,6.3-60.7,4-90,2c-4.5-0.3-7.5,1.5-9.3,4.2c-9.7,0.6-12.8,15.6-1.9,19.1
		c25.1,7.9,50.4,15.2,75.7,22.4c5.4,1.6,14.2,2.4,19,5.4c2.4,0.7,4.8,1.4,7.2,2.1c0,6,0,12,0,18c-6.9,5-30.9-6-37.2-8.7
		c-32.3-13.8-63.2-38-100-31.6c-4.4-3.8-12.3-3.5-15.7,2c-8.7-8.9-23.2-10.7-35.4-6.6c-0.2-0.3-0.4-0.6-0.7-0.9
		c-18.9-20.8-40.7-4.2-57.1,10.4c-11.1,9.9-47.4,35-55.7,8.5c-4.4-13.9,24-20.4,43-25c1.7,0.8,3.7,0.9,6.1,0
		c41.8-16,70.8-64.2,85.7-105.3c36.6-24.3,64.4-59.6,71.7-105.6c2-12.3-14.6-17.3-18.9-5.2c-26.5,74.4-94,116.6-171.4,121.2
		c-64.7,3.8-158.5-9.9-190-74.7c0-3.1-1.1-6.2-3.7-8.5c-1-2.6-1.9-5.2-2.7-7.9c-3-10.5-13.7-11.3-20.2-6.3
		c-68.8-41-143.4-72.5-213.1-111.9c-37.1-21-73.5-43.3-107.8-68.8c-24.8-18.5-52.4-38.9-66.4-66.1c13.2,6.2,27.3,10.8,37.2,14.4
		c65.5,24.2,137.2,27.2,206.3,24.6c36.6-1.4,78.5-7.2,106.3-28.9c0.7-0.1,1.3-0.3,2-0.6c20.8-8.7,30.1-29.7,27.5-50.6
		c0.1-0.9,0.3-1.8,0.4-2.8c0.4-3.2-0.8-5.6-2.7-7.3c-0.8-2.4-1.7-4.9-2.8-7.2c-17.9-37.6-68.9-50.9-102-70.7
		c-45.7-27.4-88.1-60.5-129.5-93.9c-34.5-27.8-66.3-59.3-78.9-102.3c39.2-16.1,73.4,10.7,109.8,25.9c30.9,13,67.5,23,101.1,17.7
		c1.4-0.2,2.6-0.7,3.6-1.4c3.4-0.5,6.7-0.8,10-0.5c8.7,0.9,11.8,6.7,15.1,14c3.1,6.8,6.7,12.6,11.7,16.8
		c-7.5,5.2-14.1,11.7-19.3,19.7c-0.1,0.1-0.1,0.2-0.2,0.3c-25.8,27.3-16,73.8,9.1,100.9c31.5,34,86.8,35.5,117.6-1.1
		c27.8-33,21.8-87.9-10.6-115.5c-4.7-4-9.7-7.2-15-9.9c34.2-15.6,59.8,24.4,67.6,56.1c5.9,23.6,1.8,59.3,20.9,77.6
		c0.1,0.2,0.2,0.4,0.3,0.6c8.8,14.4,21.4,25.2,33.1,37.2c17.6,18,25.3,36,28,60.7c2,18.2,4,38.8-2.4,56.2
		c-8,21.7-27.8,32.5-48.5,38.9c-9.8-2.2-20.9-1-31.4,1.4c-10.2,2.3-8.2,19.2,2.5,18.5c5-0.3,10.7-0.8,15.9-0.2
		c1.8,2.6,4.8,4.5,8.8,4.5c1.1,0,2.2-0.1,3.3-0.2c2.6,2.1,4.6,5.1,5.6,9.3c3.1,13.1-4.7,25.7-8.2,37.9c-3.5,12.2,13.3,18.5,20,8.4
		c11.1-17,17.5-40.8,8.2-60c37.5-12.7,57.4-50.6,55.8-93.2c-0.2-6-0.7-11.9-1.5-17.7c22.5,10.7,51.1,1.6,66.9-19.3
		c9.7-12.8,11.4-26.1,5.8-41c-4.7-12.4-13.4-21.1,1.2-29.1c6.9-3.7,15.7-5.5,24.3-7.2c-1.5,2.1-3,4.2-4.3,6.5
		c-5,8.4,7.3,18.6,13.9,10.7c22.9-26.9,58.2-36.4,91.1-45.6c38-10.6,76.8-18.6,115.9-23.3c58.8-7,115.7-3.9,173.6,0.2
		c-10,8-2.8,27.2,12.1,23.6c162.7-39.2,360.5-38,485.8-165c48.2-48.9,93.1-129.2,66.6-199c-12.3-32.6-36.5-49.9-68.7-59.9
		c-39.4-12.2-66.1-35-82.7-69.4c0.6-1.8,0.8-3.9,0.3-6.3c-1.3-6.3-4.7-14.1-2.2-20.5c2.3-5.9,6.3-5.3,10.1-1.2
		c7.1,7.6,11.3,18.6,15.4,28.6c0.2,2.1,1,4.2,2.6,6.2c0.1,0.1,0.2,0.3,0.3,0.4c0.6,1.1,1.4,2,2.3,2.7
		c26.2,30.3,68.1,33.2,102.7,49.4c36.6,17.1,61,51.7,72.1,89.8C2025.9,293,1974.8,378.7,1913.1,440.5z"/>
	<path class="st0" d="M1055.4,669.6c-7.3,1.8-13.6,8.8-13.9,16.2c-0.7,2.2-0.9,4.6-0.5,7.1c1.5,10,13.3,15.4,22.4,13.5
		c9.5-2,15.2-11.5,13.9-20.8C1075.9,675.1,1066.2,667,1055.4,669.6z"/>
	<path class="st0" d="M1056.3,600.9c-6.8,4.3-6.4,12.2-1.7,16.9c-2.1,18.2,30.4,37.2,40.8,17.8c5.2-9.7-0.9-22.2-8.3-28.9
		C1079.3,599.6,1066.2,594.6,1056.3,600.9z"/>
	<path class="st0" d="M1148.3,670.9c-5.5-1.9-11.6-1.2-16.4,2.2c-6.1,4.3-7.8,10.2-6.6,17.3c0.5,2.8,2.7,5.2,5.3,6.5
		c-2.5,7.3,1.5,16,9.7,19.3c12.7,5.2,22.8-6.5,23.4-18.4C1164.4,687.1,1159,674.6,1148.3,670.9z"/>
	<path class="st0" d="M1500.6,547.3c-2.3-0.7-4.5-0.5-6.9-0.3c-4.5,0.4-8.4,2.1-10.7,6.2c-2,3.4-2.2,7.4-0.6,11.1
		c3.2,7.6,14.2,10.7,20.1,4c2.2-2.5,4.3-4.8,5.4-8.1C1509.7,554.7,1505.7,548.9,1500.6,547.3z"/>
	<path class="st0" d="M749.4,806c-71.7-0.5-139.2-10.1-204.4-41.6c-12.4-6-23.3,12.3-10.9,18.6c66.8,33.6,142.9,52,217.7,41.7
		C762.6,823.1,759.7,806.1,749.4,806z"/>
	<path class="st0" d="M739.1,851.9c-29-0.2-58.1-2-87-4.8c-11.3-1.1-14.1,18.4-2.7,20c30,4.2,59.5,5.7,89.7,5
		C752,871.7,752.1,852,739.1,851.9z"/>
</g>
</svg>
