<?xml version="1.0" encoding="utf-8"?>
<!-- Generator: Adobe Illustrator 23.1.0, SVG Export Plug-In . SVG Version: 6.00 Build 0)  -->
<svg version="1.1" xmlns="http://www.w3.org/2000/svg" xmlns:xlink="http://www.w3.org/1999/xlink" x="0px" y="0px"
	 viewBox="0 0 1750 1000" enable-background="new 0 0 1750 1000" xml:space="preserve">
<g id="background">
	<g>
		<path fill="#30D692" d="M326.356,609.019c-4.242-3.371-9.987-2.3-14.841-0.932c-10.622,2.994-21.227,10.936-24.959,21.602
			c-0.883,2.522,1.806,3.766,3.733,2.937c-0.056,0.769,0.164,1.6,0.771,2.372c3.834,4.881,5.084,8.905,11.841,10.072
			c5.249,0.907,11.264,0.204,16.418-1.034c11.109-2.667,16.305-11.822,13.451-22.829
			C331.706,617.106,329.767,611.729,326.356,609.019z M313.885,637.468c-3.092,0.397-7.004,0.952-10.049,0.134
			c-4.024-1.081-5.513-4.478-8.365-7.015c-0.828-0.736-1.704-0.969-2.499-0.872c3.883-5.042,7.74-9.465,13.687-12.514
			c2.466-1.264,5.078-2.215,7.776-2.838c6.205-1.435,8.913,0.864,10.767,6.428C328.52,630.748,323.343,636.254,313.885,637.468z"/>
		<path fill="#30D692" d="M309.646,627.85c-0.086-1.865,0.303-3.686,0.915-5.44c1.117-3.201-3.843-5.239-5.448-2.297
			c-2.42,4.437-3.127,11.301,0.465,15.348c1.631,1.838,5.499,0.481,5.175-2.143C310.523,631.454,309.733,629.733,309.646,627.85z"/>
		<path fill="#30D692" d="M596.966,651.049c-2.848,0.385-4.91,2.685-5.564,5.202c-1.011,1.062-1.588,2.507-1.334,4.015
			c0.878,5.217,6.997,3.951,10.777,3.977c1.198,0.008,2.688-0.689,3.206-1.839c1.137-2.524,1.202-5.234-0.175-7.704
			C602.509,652.246,599.783,650.668,596.966,651.049z"/>
		<path fill="#30D692" d="M607.392,630.876c1.829-1.031,2.966-3.131,2.925-5.215c-0.026-1.369-1.038-3.08-2.524-3.314
			c-1.052-0.166-1.994-0.192-2.942,0.076c-1.445-0.035-2.875,0.759-3.669,2.048c-0.899,1.461-0.951,3.548-0.004,5
			C602.52,631.528,605.279,632.067,607.392,630.876z M606.263,629.076c0.003,0,0.005,0,0.008,0
			c-0.004,0.001-0.009,0.002-0.013,0.003C606.258,629.078,606.261,629.076,606.263,629.076z"/>
		<path fill="#30D692" d="M618.542,652.328c-0.052,1.352,1.079,3.028,2.485,3.264c6.16,1.035,11.398-4.737,10.007-10.795
			c-0.388-1.691-1.929-2.455-3.48-2.649c-3.533-0.441-7.82,0.45-8.911,4.387c-0.283,1.021-0.29,2.147-0.043,3.2
			c-0.001,0.025-0.008,0.049-0.008,0.074C618.585,650.65,618.574,651.488,618.542,652.328z M625.799,648.007
			c0.001,0.01,0.001,0.014,0.002,0.023c-0.001,0-0.001-0.001-0.002-0.002c-0.062-0.146-0.123-0.292-0.185-0.437
			C625.676,647.73,625.737,647.869,625.799,648.007z"/>
		<path fill="#30D692" d="M410.637,565.482c-0.826-0.901-2.124-1.393-3.339-0.987c-4.249,1.419-6.242,6.364-3.984,10.304
			c0.708,1.235,2.56,2.177,3.982,1.621c2.986-1.169,5.219-3.367,6.092-6.509c0.477-1.715-0.587-4.085-2.497-4.399
			C410.809,565.497,410.721,565.494,410.637,565.482z M409.38,571.239c0-0.003,0-0.007,0-0.01c0.058,0.11,0.107,0.204,0.011,0.046
			C409.384,571.263,409.385,571.252,409.38,571.239z M409.352,571.217c0,0.001,0,0.003,0,0.004c-0.017,0.097-0.034,0.194-0.05,0.292
			c-0.026-0.08,0.006-0.188,0.047-0.297C409.35,571.216,409.351,571.216,409.352,571.217z"/>
		<path fill="#30D692" d="M432.941,555.125c-0.718-0.93-1.868-1.354-3.021-1.199c-0.87,0.117-1.578,0.54-2.244,1.068
			c-0.338-0.026-0.681,0.008-1.014,0.133c-1.656,0.619-2.779,1.901-2.872,3.719c-0.082,1.6,0.685,2.899,1.985,3.784
			c0.888,0.604,2.443,0.638,3.327,0C431.295,561.048,435.318,558.201,432.941,555.125z"/>
		<path fill="#30D692" d="M426.865,578.898c0.148,0.79,0.45,1.47,1.04,2.036c1.149,1.103,2.955,1.107,4.108,0
			c0.603-0.579,0.891-1.242,1.04-2.036c0.378-2.024-0.894-4.061-3.094-4.061C427.774,574.838,426.487,576.873,426.865,578.898z"/>
		<path fill="#30D692" d="M764.159,773.886c-5.041-3.494-10.802-5.828-16.838-6.885c-2.411-0.422-18.287-1.258-20.326-4.605
			c10.14-6.399,25.863-6.132,28.893-20.192c3.092-14.347-12.317-17.856-23.252-15.426c0.281-0.817,0.537-1.637,0.754-2.462
			c2.669-10.183-2.334-19.998-8.822-27.618c-14.461-16.984-36.775-12.903-54.656-4.03c3.169-10.387,4.705-21.253,5.043-32.15
			c0.925-29.763-4.767-62.881-25.003-85.888c-20.858-23.716-54.586-37.685-84.379-45.91c-32.272-8.909-66.243-11.124-99.432-6.9
			c-36.634,4.663-72.337,16.68-104.471,34.872c-0.377-0.352-0.852-0.64-1.449-0.821c-20.494-6.199-39.842,1.819-57.356,12.381
			c-0.372,0.224-0.655,0.489-0.892,0.771c-7.608-3.553-17.853-2.056-24.831,2.231c-6.539,4.017-10.655,12.033-5.892,18.995
			c-20.532,9.965-58.06,40.483-30.277,60.491c8.808,6.343,20.883,7.416,32.434,7.154c3.633,9.96,14.347,13.389,24.555,13.512
			c17.232,0.207,35.122-0.913,52.286-2.429c14.297-1.262,22.592-12.692,36.053-16.206c8.591-2.243,16.773-6.384,19.262-14.13
			c7.658,2.818,16.187,1.608,22.629-3.175c0.456,2.101,1.065,4.14,1.795,6.05c-7.357,1.697-12.176,7.691-16.367,14.336
			c-0.064-0.095-0.116-0.191-0.185-0.285c-0.734-1.012-1.612-1.88-2.598-2.574c-3.145-5.267-10.587-3.816-13.729,0.839
			c-2.67,3.956-2.063,8.548-1.938,13.086c-6.38-5.443-16.494-7.704-23.16-3.045c-6.958,4.862-2.967,11.461,3.32,16.212
			c-6.147-0.249-12.301-1.005-18.065,1.811c-5.625,2.748-9.371,8.327-7.51,14.698c2.267,7.758,10.516,10.908,17.924,9.974
			c4.639-0.584,8.734-2.663,12.941-4.549c1.262-0.566,7.737-4.6,8.168-1.669c0.159,1.084-3.65,4.655-4.291,5.523
			c-8.645,11.695-4.554,32.679,13.004,31.93c6.378-0.272,11.405-4.007,11.602-10.528c0.204-6.765-2.204-11.654,0.258-18.585
			c1.61-4.531,2.793-6.159,7.323-4.602c3.694,1.27,5.239,4.735,6.496,8.209c-4.123,4.976-4.988,12.58-0.614,17.777
			c5.846,6.947,18.371,8.901,28.074,9.545c0.071,1.125,0.72,2.186,2.073,2.507c5.419,1.284,1.317,6.606-1.363,8.087
			c-2.786,1.54-6.236,1.802-9.254,2.723c-4.054,1.238-7.799,2.876-11.144,5.545c-5.803,4.63-12.341,13.58-8.447,21.303
			c3.068,6.085,10.535,6.864,16.306,4.685c10.063-3.8,19.845-11.525,28.604-17.649c0.331-0.232,0.589-0.494,0.813-0.768
			c6.459-2.739,13.361-4.469,20.329-2.229c8.081,2.598,12.715,10.561,16.974,17.319c5.107,8.102,14.456,18.734,25.071,12.186
			c8.887-5.482,7.697-17.633,2.465-25.098c-4.403-6.281-10.814-12.272-17.684-17.423c1.935-3.762,3.673-8.016,4.844-12.424
			c9.061,10.557,25.767,15.486,38.44,10.261c2.929-1.207,3.041-6.705-0.839-6.202c-15.428,1.997-26.284-2.8-36.11-13.903
			c0.142-6.265-1.443-12.303-5.904-17.114c-2.789-3.008-6.863,0.809-5.336,4.117c5.196,11.256,2.304,20.441-0.705,31.306
			c-3.251-2.16-6.511-4.112-9.627-5.786c-3.453-1.856-7.561,2.851-4.362,5.653c8.942,7.831,19.312,14.385,27.364,23.203
			c2.033,2.226,4.325,4.871,5.032,7.897c1.074,4.595-1.335,10.223-7.516,7.605c-5.082-2.153-8.616-10.551-11.702-14.825
			c-10.86-15.043-29.579-20.714-45.41-9.638c-4.73,2.487-9.366,5.085-13.952,7.833c-4.265,2.556-9.224,6.688-14.084,7.984
			c-5.277,1.408-5.271-3.208-3.144-7.132c1.252-2.31,3.694-4.371,5.902-5.755c4.52-2.833,9.91-3.171,14.706-5.318
			c5.237-2.344,10.488-6.991,10.089-13.284c-0.215-3.393-1.847-5.973-4.302-7.465c0.684-1.734,0.141-3.995-2.065-4.396
			c-5.721-1.039-11.454-2.172-17.06-3.729c-2.624-0.729-6.579-1.355-8.842-3.038c-7.146-5.312-1.129-11.326,4.481-12.167
			c11.535-1.729,22.781,10.119,27.389,19.381c0.694,1.396,2.406,1.681,3.742,1.168c2.37,1.045,5.398-1.668,3.816-4.268
			c-5.84-9.597-10.22-20.738-7.289-32.141c2.577-10.025,8.506,3.186,9.901,7.09c1.17,3.276,1.975,6.667,2.619,10.09
			c-0.098,5.367-0.023,10.671,0.089,15.765c0.085,3.847,5.79,3.827,5.961,0c0.619-13.822,1.898-27.872,4.509-41.466
			c2.603-13.547,9.295-22.823,24.075-23.378c12.499-0.469,25.66,3.857,35.182,12.034c9.541,8.195,13.372,18.586,16.304,30.421
			c0.944,3.81,6.534,2.853,6.674-0.903c0.819-21.988-16.863-39.134-37.066-46.071c1.959-8.53-1.987-16.159-8.793-22.008
			c3.349-6.067,7.072-11.315,13.127-15.552c7.797-5.456,17.075-8.346,26.069-11.154c3.877-1.21,2.222-6.591-1.645-5.968
			c-16.44,2.651-37.41,11.496-43.536,28.398c-3.689-2.201-7.798-3.983-12.044-5.266c4.532-15.22,17.386-22.035,32.412-28.101
			c3.759-1.518,2.428-7.182-1.713-6.211c-15.797,3.704-36.249,14.905-38.768,32.512c-3.434-0.497-6.836-0.64-10.065-0.39
			c-1.074-14.65,4.439-26.307,18.867-33.204c3.306-1.58,0.978-6.939-2.482-5.886c-16.915,5.144-28.338,23.535-24.244,40.64
			c-2.479,0.846-4.722,2.026-6.635,3.567c-0.864-7.487-3.948-14.49-9.74-19.993c-3.009-2.859-8.796,1.069-6.03,4.653
			c5.506,7.136,8.866,14.942,7.584,24.12c-0.447,3.196,2.722,6.885,6.059,4.658c7.446-4.969,12.189,5.469,6.682,10.84
			c-2.687,2.621-6.345,2.428-9.687,3.22c-3.804,0.902-5.989,2.613-8.848,5.288c-9.375,8.771-20.468,13.455-32.81,16.411
			c-3.631,0.87-2.955,7.171,0.903,6.673c0.116-0.015,0.23-0.04,0.346-0.056c3.709,1.649,6.916,4.681,8.852,8.196
			c0.978,1.777,1.674,3.69,1.991,5.697c0.164,1.04,0.133,2.068,0.136,3.084c-2.871-0.062-5.659,0.433-8.231,1.599
			c-1.727-4.77-4.35-9.208-9.156-11.428c-5.432-2.509-11.347-1.31-14.991,3.463c-4.37,5.724-5.439,14.392-4.898,21.366
			c0.094,1.21,1.072,4.185,0.691,5.236c-1.134,3.124-4.938,2.736-7.217,1.672c-6.451-3.012-6.578-11.012-3.196-16.411
			c3.009-4.803,10.02-10.364,7.517-16.978c-2.165-5.72-9.047-4.722-13.666-3.28c-5.046,1.576-9.564,4.627-14.675,5.984
			c-4.187,1.111-8.747,1.615-10.185-3.326c-1.17-4.021,0.032-4.826,3.893-5.994c8.151-2.467,16.018,1.595,23.966-2.469
			c1.061,0.237,2.04,0.357,2.88,0.327c3.122-0.111,3.87-3.878,1.511-5.578c-2.664-1.919-5.827-3.075-8.576-4.904
			c-2.128-1.416-8.429-5.229-3.126-6.204c5.987-1.1,10.779,2.96,14.509,7.083c0.246,0.591,0.699,1.079,1.259,1.432
			c0.03,0.035,0.061,0.07,0.091,0.105c1.643,1.924,4.404,0.651,5.058-1.367c0.655-0.847,1.149-1.755,1.501-2.714
			c-0.295,2.676,2.396,5.629,5.046,3.602c11.179-8.551,13.758-23.498,27.112-29.841c0.687-0.326,1.15-0.753,1.45-1.226
			c1.556-0.721,2.803-2.493,2.537-4.442c-1.389-10.18-6.407-22.378,5.123-28.814c3.564-1.99,1.154-7.623-2.764-6.556
			c-8.13,2.214-11.98,8.529-13.052,15.842c-4.554,9.015-15.341,11.749-23.439,5.562c-3.416-2.611-6.86,1.695-6.385,4.908
			c1.607,10.855-18.262,12.097-24.986,16.15c-4.161,2.508-7.576,6.114-11.747,8.607c-5.056,3.021-10.323,3.359-16.059,3.643
			c-11.263,0.558-22.528,1.064-33.789,1.658c-9.707,0.512-23.852,2.959-30.44-5.506c2.895-0.171,5.705-0.374,8.353-0.543
			c8.788-0.561,17.554-1.603,26.232-3.109c4.913-0.853,9.798-1.864,14.644-3.043c4.523-1.1,10.618-3.596,14.551,0.431
			c2.826,2.894,7.19-1.496,4.43-4.43c-7.475-7.943-20.549-2.246-29.566-0.67c-15.415,2.694-31.115,3.761-46.754,3.282
			c-13.111-0.402-42.196-4.381-30.48-24.797c7.597-13.239,22.814-21.658,35.147-29.758c2.114-1.388,1.829-4.62,0.184-5.924
			c0.059-0.609-0.092-1.274-0.544-1.955c-4.031-6.069,3.47-10.639,8.401-12.181c5.382-1.683,9.979-0.624,15.344,0.223
			c1.084,0.171,2.074-0.221,2.788-0.874c0.807,0.319,1.762,0.318,2.757-0.221c15.7-8.517,32.955-17.277,51.039-11.432
			c0.737,1.677,2.686,2.87,4.787,1.732c55.672-30.152,119.286-44.604,182.152-32.336c29.555,5.767,59.023,17.021,83.63,34.601
			c25.99,18.568,35.907,47.588,37.609,78.488c0.925,16.779-0.304,33.94-6.283,49.778c-5.586,14.797-15.708,27.245-25.625,39.464
			c-0.675-3.929-1.563-7.893-2.704-11.895c-1.123-3.936-6.909-2.279-6.089,1.679c7.261,35.078-3.035,70.582-23.304,99.543
			c-20.352,29.079-49.107,51.01-77.654,71.497c-28.387,9.18-58.72,11.967-88.372,13.315c-36.779,1.672-73.663,0.49-110.384-1.879
			c-64.082-4.136-129.059-11.134-191.774-25.355c-8.85-2.007-18.045-3.961-26.5-7.342c-3.597-1.438-4.982-2.568-7.514-4.931
			c-1.057-0.986-5.476-4.383-5.542-6.182c-0.017-0.458-0.06-0.615-0.083-0.671c0.005-0.008,0.01-0.017,0.016-0.024
			c0.067,0.025,0.28,0.01,0.846-0.683c0.856-1.048,2.671-1.838,4.29-2.677c0.771,0.389,1.688,0.559,2.728,0.374
			c28.881-5.153,58.527-2.517,87.456,0.791c31.31,3.58,62.173,6.022,93.712,6.085c31.679,0.063,63.36-0.112,95.036-0.516
			c29.853-0.38,60.074,0.372,89.02-7.711c60.823-10.266,99.19-73.168,105.245-130.354c0.384-3.629-5.904-4.521-6.425-0.87
			c-4.202,29.428-14.725,58.278-33.866,81.36c-18.525,22.339-42.496,35.893-70.011,44.076c-0.954,0.284-1.58,0.802-1.95,1.419
			c-28.465,5.114-58.02,4.085-86.773,4.251c-32.153,0.185-64.313,0.409-96.466,0.177c-30.998-0.224-61.328-3.3-92.088-6.795
			c-20.529-2.332-41.255-3.934-61.856-2.715c-11.166-0.572-26.437,0.009-32.47,7.558c-1.41,0.787-2.635,1.788-3.39,3.311
			c-3.169,6.393,5.267,13.487,9.3,17.003c4.712,4.109,10.609,6.068,16.511,7.92c24,7.534,49.368,11.56,74.148,15.513
			c75.827,12.097,153.322,19.243,230.151,17.242c36.269-0.944,74.133-3.283,108.802-14.862c0.532-0.038,1.092-0.207,1.669-0.581
			c44.294-28.758,94.059-72.809,105.443-126.339c7.321,3.195,22.575-3.753,27.262-6.588c1.279-0.774,2.482-1.613,3.652-2.483
			c-0.332,4.32,0.561,8.594,3.645,12.491c2.57,3.246,5.95,4.375,9.63,5.862c7.321,2.958,9.695,9.996,11.144,17.222
			c1.955,9.755,2.925,20.676,11.645,27.018c6.218,4.522,15.398,5.564,21.045-0.481c5.784-6.192,4.585-16.022,0.569-22.761
			c-2.744-4.603-6.721-8.23-10.284-12.169c-3.184-3.519-5.915-8.528-0.563-11.573c3.259-1.854,7.956-1.114,11.303-0.123
			c13.016,3.855,36.635,29.144,50.345,13.591C779.028,787.169,770.716,778.431,764.159,773.886z M441.401,693.886
			c-1.526-2.606-3.452-4.779-5.689-6.525c7.046-2.057,13.745-5.26,19.79-9.494c4.252-2.978,8.149-7.874,13.269-9.233
			c4.143-1.1,7.718-1.085,11.319-3.778c9.911-7.411,7.049-21.166-0.992-25.818c1.061-0.591,2.223-1.028,3.462-1.333
			c0.699,0.123,1.436-0.031,2.102-0.393c4.166-0.538,8.885,0.086,13.183,1.073c0.941,0.684,2.127,0.998,3.137,0.79
			c1.713,0.474,3.306,0.973,4.691,1.434c10.242,3.414,16.223,9.793,17.701,19.457c-4.887-1.007-9.802-1.415-14.53-1.12
			c-12.998,0.809-23.387,7.289-27.845,19.771c-2.069,5.793-3.394,11.98-4.238,18.312c-3.62-8.813-9.145-14.994-16.614-8.642
			c-5.613,4.773-5.895,15.244-5.301,21.886c0.086,0.967,0.217,1.922,0.362,2.872c-3.283-2.405-6.932-4.328-10.658-5.502
			C445.528,703.128,443.579,697.605,441.401,693.886z M402.957,672.12c-0.198,0.22-0.346,0.46-0.472,0.707
			c0.513-2.016,0.559-4.189,0.429-6.37c-0.102-1.709-0.688-8.726,1.764-9.488c2.283,1.159,4.495,3.049,4.808,5.731
			C407.408,666.174,405.322,669.488,402.957,672.12z M760.25,791.199c-11.072,0.044-21.612-11.298-31.393-15.557
			c-7.87-3.427-17.658-4.891-24.902,0.812c-8.073,6.356-5.216,14.598,0.654,21.316c4.085,4.676,9.892,9.151,11.558,15.428
			c1.177,4.431,0.671,10.214-5.161,11.127c-3.932,0.615-7.969-2.87-10.023-5.773c-6.913-9.771-3.857-23.702-10.801-33.815
			c-2.292-3.339-5.252-5.821-8.889-7.555c-4.418-2.107-7.704-2.682-9.056-8.036c-1.173-4.646,1.274-10.548,3.074-14.727
			c0.038-0.089,0.053-0.176,0.085-0.265c0.609-0.776,1.21-1.564,1.805-2.365c7.042-9.481,15.271-15.496,24.912-22.101
			c3.685-2.525,0.527-7.923-3.493-5.976c-12.212,5.911-20.407,13.183-28.419,23.986c-4.386,5.914-8.704,11.112-15.052,14.969
			c-4.428,2.691-15.539,8.413-21.19,5.354c1.082-7.378,1.412-14.927,0.899-22.63c11.281-11.391,21.985-23.408,29.191-37.896
			c1.023-2.057,1.956-4.149,2.82-6.264c15.524-6.117,35.467-15.31,49.353-1.33c7.368,7.418,11.59,17.35,6.5,27.177
			c-4.347,8.394-11.009,16.071-16.836,23.454c-2.947,3.733,1.755,8.843,5.358,5.358c6.422-6.21,13.721-13.925,18.368-22.385
			c0.062,0,0.118,0.009,0.182,0.006c4.957-0.264,14.885-2.486,17.783,3.471c3.312,6.81-7.018,11.013-11.413,12.504
			c-7.471,2.535-15.375,5.037-18.875,12.8c-1.202,2.666,1.544,5.959,3.992,4.878c3.414,4.068,11.068,5.915,15.688,6.603
			c7.002,1.042,13.598,1.664,19.893,5.243C761.099,781.419,772.282,791.152,760.25,791.199z"/>
	</g>
	<g>
		<path fill="#30D692" d="M1602.094,136.914c-4.782-9.456-12.274-17.805-21.689-22.812c-11.671-6.207-25.621-6.64-35.914-15.342
			c-1.526-6.643-5.73-15.316-12.768-15.886c-3.812-0.309-7.009,2.047-8.634,5.383c-0.478,0.982-0.777,2.019-0.938,3.081
			c-1.035,0.683-1.755,1.923-1.528,3.52c1.409,9.946,6.94,19.445,14.358,26.172c3.445,3.124,7.322,5.803,11.518,7.812
			c5.778,2.766,12.598,3.392,17.837,7.139c25.447,18.198,0.199,56.752-16.336,71.578c-37.985,34.057-90.948,34.012-138.47,44.892
			c-0.384-0.394-0.875-0.706-1.501-0.866c-25.88-6.625-54.893-5.127-81.093-1.254c-13.899,2.054-27.627,5.228-40.974,9.627
			c-5.927,1.954-11.648,4.148-16.51,7.544c-0.546-0.78-1.452-1.267-2.72-1.104c-7.186,0.92-21.504,0.999-23.981,9.883
			c-1.264,4.534,1.364,7.862,2.697,11.903c3.299,10.005-8.843,16.036-16.471,9.854c-0.476-0.386-0.97-0.618-1.459-0.746
			c-3.569-11.895-11.045-21.728-23-28.574c-3.791-6.597-2.367-16.718-3.839-24.111c-1.416-7.115-3.975-14.483-9.14-19.791
			c-8.124-8.351-22.599-10.009-29.533,0.44c-0.06,0.091-0.099,0.186-0.147,0.28c-4.021-0.543-8.131-0.19-11.97,1.035
			c-0.13-0.09-0.268-0.173-0.423-0.241c-3.057-1.337-3.636-4.47-4.887-7.249c-1.038-2.304-2.413-4.162-4.651-5.462
			c-3.715-2.157-8.334-2.024-12.431-0.84c-7.64-1.538-15.35-2.032-22.87-4.447c-7.529-2.418-14.355-6.329-21.652-9.298
			c-6.139-2.498-13.273-4.021-19.709-2.757c-4.013-1.337-8.623,0.507-11.216,3.977c-4.007,5.36-2.28,12.471,1.138,17.585
			c0.395,0.592,0.864,0.995,1.36,1.269c7.167,16.234,24.407,27.966,38.077,38.381c1.83,1.394,3.669,2.777,5.515,4.154
			c-0.115,0.159-0.224,0.329-0.316,0.524c-4.863,10.305-11.97,19.083-22.353,24.21c-11.886,5.87-24.856,3.355-37.423,5.862
			c-6.172,1.231-14.398,5.113-11.176,12.859c0.096,0.231,0.23,0.447,0.344,0.671c-0.027,10.005,6.432,19.002,13.586,25.943
			c11.658,11.311,25.736,20.675,39.469,29.232c8.806,5.487,17.869,10.883,27.112,16.078c-5.234,1.777-10.405,4.284-14.675,7.49
			c-38.566,5.444-76.582,47.4-116.498,25.589c-7.592-4.149-30.693-18.378-31.93,0.215c-0.624,9.383,5.363,13.822,13.058,16.279
			c-7.165,1.11-14.053,3.428-20.124,7.681c-2.975,2.085-6.813,5.286-5.792,9.47c1.447,5.926,7.647,4.631,11.943,4.51
			c0.7-0.02,1.274-0.2,1.753-0.473c7.05,0.798,14.205,0.354,21.266-0.765c-0.475,0.416-0.951,0.832-1.425,1.248
			c-2.593,2.272-6.995,4.897-8.37,8.309c-2.169,5.381,2.158,9.91,7.261,10.763c12.808,2.14,28.958-7.256,35.325-18.903
			c6.963-4.429,14.084,12.028,18.758,15.6c5.119,3.911,11.65,5.48,17.552,2.289c4.817-2.605,7.529-7.66,6.368-13.113
			c-1.013-4.757-4.695-8.273-8.704-11.172c16.542-4.139,33.075-9.094,49.272-14.309c4.472-1.44,9.117-3.324,13.157-5.88
			c12.236,3.901,25.547,0.736,37.834-1.501c10.973-1.997,25.946-2.844,34.536-10.808c10.929,24.855,46.53,30.815,71.201,29.081
			c9.254-0.651,18.851-2.913,27.717-6.738c-1.477,2.813-3.148,5.525-5.051,8.109c-3.712,5.039-8.564,8.851-12.782,13.329
			c-6.889,0.685-16.365,1.794-20.824,6.478c-3.808,4.001-3.839,10.806-0.771,15.18c3.592,5.123,10.358,6.835,16.29,5.516
			c3.645-0.81,6.908-2.642,9.847-4.896c2.911-2.233,7.953-9.104,12.374-8.693c-4.141,5.442-3.206,13.815,1.304,18.877
			c4.69,5.264,15.253,9.106,21.949,5.616c3.641-1.898,5.021-6.078,4.152-9.937c-0.497-2.207-1.694-4.163-2.523-6.247
			c-0.553-1.391-0.866-2.759-1.031-4.151c11.118,0.949,19.54,6.923,29.64,11.133c6.783,2.827,17.022,5.781,23.432,0.44
			c6.295-5.245,2.885-13.275-3.337-16.725c-3.261-1.809-7.246-2.695-11.067-3.561c13.668-1.29,26.677-6.109,24.18-19.939
			c-1.259-6.976-8.331-11.698-15.143-9.064c-5.168,1.998-8.489,6.551-14.202,7.742c-5.674,1.183-13.297,1.342-18.984-0.969
			c5.621-9.259,12.472-17.514,18.384-26.841c2.665-4.203,5.476-9.493,7.184-15.013c12.262,1.948,23.465-6.67,28.4-17.893
			c3.328-7.571,4.089-15.933,3.743-24.117c-0.189-4.478-1.537-9.337-1.245-13.763c0.364-5.523,3.482-8.125,7.578-11.527
			c0.251-0.209,0.44-0.446,0.602-0.693c0.655,0.559,1.318,1.101,1.991,1.621c7.48,5.783,16.066,9.734,24.215,14.439
			c7.724,4.46,23.435,12.538,24.736,22.479c0.18,1.372,0.851,2.413,1.749,3.126c-2.434,6.375-14.008,5.664-14.582,12.974
			c-0.477,6.073,6.642,6.916,11.105,6.678c8.723-0.466,17.526-5.495,22.058-13.008c1.973,2.16,4.738,3.806,7.495,5.039
			c0.643,0.795,1.594,1.315,2.781,1.234c6.244-0.425,12.64-4.116,15.002-9.973c11.162,6.058,27.721-1.809,34.217-12.796
			c0.824-1.393,1.446-2.942,1.853-4.545c7.48-0.551,14.161-3.153,20.021-8.136c4.396-3.738,10.412-10.11,6.185-16.068
			c-3.85-5.427-13.036-5.06-18.414-2.364c-5.501,2.759-7.874,8.561-12.056,12.588c-0.301-0.209-0.602-0.417-0.934-0.603
			c-5.18-2.9-10.856-1.012-14.89,2.681c-17.421-4.513-39.063-6.099-52.744-18.513c-4.786-4.343-8.498-9.662-11.618-15.295
			c0.219-0.218,0.43-0.459,0.618-0.752c7.171-11.153,18.545-14.903,30.612-18.914c13.757-4.573,27.627-8.813,41.586-12.727
			c25.154-7.052,49.817-12.567,70.663-29.225C1593.464,223.962,1623.601,179.45,1602.094,136.914z M1167.538,237.918
			c7.663,4.751,10.06,15.764,6.16,23.617c-6.29,12.662-18.225,11.458-26.534,5.007c0.019-0.033,0.042-0.056,0.06-0.091
			c3.573-6.754,7.94-13.21,11.235-20.082c1.424-2.971-2.296-6.423-4.818-3.718c-4.815,5.163-8.626,11.677-12.066,17.924
			c-3.855-5.747-4.997-12.822-0.695-18.709c0.541-0.135,1.068-0.374,1.541-0.765C1149.254,235.45,1159.627,233.014,1167.538,237.918
			z M1076.291,294.886c12.786-5.426,22.998-15.994,27.446-29.137c8.278,5.978,16.784,11.634,25.772,16.499
			c3.731,2.019,7.642,3.739,11.461,5.616c-0.005,0.296,0.048,0.591,0.141,0.881c0.417,5.432-0.59,11.574-2.969,16.969
			c-8.279,1.693-16.633,2.942-25.14,3.229c-6.969,0.235-13.986-0.064-20.872-1.21c-3.078-0.512-6.135-1.191-9.138-2.043
			c-2.017-0.57-4.008-1.22-5.974-1.949c-3.101-1.061-5.649-2.916-7.644-5.566c1.328,0.1,2.145-0.694,2.462-1.701
			C1073.328,296.019,1074.815,295.513,1076.291,294.886z M1036.599,302.15c0.835-3.491,12.674-2.686,15.713-2.849
			c3.856-0.207,7.63-0.478,11.344-1.025c0.034,1.899,0.79,3.889,2.083,5.665c5.37,7.376,17.755,9.63,26.007,11.007
			c13.364,2.23,27.042,1.615,40.481-0.55c-2.168,2.08-4.715,3.689-7.658,4.583c-7.309,0.507-14.61,0.265-20.527,0.214
			c-19.457-0.168-39.521-2.241-57.462-10.291C1044.023,307.757,1035.986,304.713,1036.599,302.15z M1103.562,414.461
			c2.005-2.929,3.277-6.375,3.418-10.473c0.118-3.404-5.163-5.086-6.679-1.809c-6.317,13.659-19.494,16.408-32.775,20.408
			c-13.624,4.103-27.402,7.978-40.8,12.773c-1.36,0.487-2.173,1.416-2.549,2.467c-2.163,0.919-3.344,4.138-1.412,6.292
			c1.971,2.198,6.402,4.15,7.8,6.391c0.471,2.645,0.943,5.289,1.414,7.934c-2.562,1.392-5.108,1.257-7.637-0.405
			c-5.07-2.819-7.256-8.953-11.084-13.008c-3.897-4.129-9.225-6.204-14.08-4.473c-1.25-0.67-2.828-0.667-3.875,0.578
			c-6.703,7.974-12.403,15.065-23.184,17.531c-1.25,0.286-6.474,1.721-7.39,0.424c-0.081-0.114,5.552-4.843,5.902-5.148
			c4.328-3.775,8.658-7.549,12.983-11.327c3.121-2.726-0.207-7.738-3.92-6.734c-12.333,3.336-24.163,4.564-36.667,4.216
			c0.917-0.586,1.857-1.136,2.831-1.632c3.296-1.692,6.844-2.8,10.443-3.618c8.843-2.01,18.093-1.571,27.103-1.843
			c2.314-0.07,3.28-1.867,3.014-3.538c0.804-1.828,0.302-4.298-2.173-5.011c-7.742-2.231-16.409-1.095-23.905-3.867
			c-3.086-1.035-5.628-2.862-7.625-5.482c1.101-6.382,3.854-7.966,8.26-4.752c3.512,1.608,6.581,4.068,9.889,6.029
			c11.745,6.962,24.867,8.8,38.306,6.993c14.335-1.927,27.679-7.526,40.563-13.866c11.937-5.874,23.493-11.253,35.767-15.65
			c0.565,2.191,3.481,3.742,5.727,2.529c4.802-2.594,8.758-6.554,13.597-9.218c3.847-2.118,7.842-3.614,11.927-4.996
			c14.463,7.801,29.299,15.026,44.243,21.265c-8.705,3.304-17.383,5.281-26.662,7.095
			C1124.127,412.531,1113.91,414.857,1103.562,414.461z M1283.923,483.954c-1.711,0.485-4.736-0.465-6.355-1.117
			c-3.688-1.484-6.929-5.076-6.189-9.296c0.788-4.498,5.642-4.777,8.446-2.007c0.801,0.791,1.682,1.062,2.503,0.988
			c0.173,2.211,0.722,4.398,1.581,6.599c0.404,1.034,1.305,2.187,1.214,3.306C1285.003,483.89,1285.416,483.53,1283.923,483.954z
			 M1457.691,371.858c-1.411,3.283-5.46,4.289-8.478,5.699c-2.145-1.263-4.434-2.948-4.724-5.217
			c-0.55-4.311,4.999-5.581,8.22-5.547C1455.836,366.825,1459.321,368.068,1457.691,371.858z M1516.984,337.449
			c4.183,0.25,4.282,0.884,1.55,3.922c-1.741,1.935-3.763,3.585-5.949,4.992c-3.237,2.083-6.933,3.582-10.704,4.544
			c-0.11-0.617-0.247-1.227-0.444-1.816C1506.346,344.397,1509.308,336.991,1516.984,337.449z M1424.061,335.332
			c12.304,10.054,30.197,14.156,46.659,16.089c-0.891,0.003-1.676-0.019-2.213-0.009c-4.038,0.074-7.728-0.552-11.643-1.518
			c-3.567-0.88-5.387,3.795-2.439,5.786c5.292,3.575,12.931,3.486,19.051,2.77c3.377-0.395,6.689-1.455,8.77-3.844
			c0.792-0.192,1.551-0.646,2.141-1.461c1.027-1.421,3.217-3.802,5.096-3.922c1.74-0.112,2.906,0.187,3.687,0.725
			c0.246,0.536,0.618,1.015,1.087,1.381c0.81,2.243-0.745,5.671-1.707,7.3c-1.897,3.21-5.628,6.514-8.744,8.446
			c-7.218,4.475-13.963,2.013-19.461-3.355c-2.297-3.025-6.211-4.818-10.51-4.889c-5.966-0.098-12.563,2.6-15.227,8.081
			c-0.804,0.215-1.511,0.703-1.906,1.533c-2.227,4.687-4.456,8.762-8.931,11.671c-1.051,0.684-2.502,1.457-4.104,2.108
			c0.666-0.519,1.31-1.065,1.891-1.679c2.749-2.907,3.911-6.461,3.531-10.399c-0.036-0.37-0.122-0.698-0.229-1.007
			c-0.005-0.11,0.009-0.207-0.004-0.321c-1.174-10.619-9.424-16.721-17.598-22.668c-10.576-7.694-22.932-12.417-33.493-20.063
			c-11.694-8.467-21.105-24.854-8.624-37.072c10.499-10.278,22.524-4.747,30.104,4.606c1.18,6.844,5.008,13.964,7.998,19.828
			C1411.426,321.652,1416.885,329.469,1424.061,335.332z M1568.966,229.693c-11.419,11.462-24.13,21.615-39.226,27.741
			c-15.699,6.37-32.595,9.704-48.843,14.361c-15.453,4.43-31.131,8.923-46.132,14.727c-8.363,3.235-17.811,7.994-21.985,16.192
			c-2.172-5.534-3.975-11.361-7.595-15.954c-0.46-0.584-1.026-0.914-1.624-1.06c-4.914-6.4-13.041-10.48-21.178-10.639
			c-12.956-0.253-24.599,9.758-27.368,22.258c-2.284,10.315,2.048,20.183,8.768,27.852c-11.862,4.837-13.454,12.252-12.01,24.606
			c0.231,1.978,0.396,4.13,0.467,6.374c-1.678-7.515-4.34-14.98-6.679-22.902c-1.348-4.565-7.733-2.594-6.993,1.928
			c1.288,7.865,4.366,15.209,6.145,22.949c1.91,8.314,0.681,16.041,0.546,24.411c-0.009,0.57,0.116,1.063,0.321,1.491
			c-0.74,0.93-1.547,1.787-2.439,2.545c-0.315-6.505-3.054-12.81-5.774-18.835c-4.36-9.661-9.645-18.76-16.24-27.059
			c-2.49-3.134-7.336,0.877-5.432,4.191c8.294,14.44,17.331,28.671,19.885,45.282c-1.294,0.245-2.69,0.35-4.175,0.323
			c0.324-4.483-0.434-8.858-2.982-12.666c-7.621-11.391-26.72-5.272-37.363-2.697c-17.19,4.16-34.753,10.974-49.322,21.125
			c-4.01,2.794-0.534,8.995,3.871,6.623c12.563-6.765,24.958-13.055,38.71-17.119c9.435-2.788,38.976-12.97,38.284,3.917
			c-0.91,22.222-25.249,36.699-31.208,57.359c-1.267,4.394,5.657,7.601,7.596,3.202c0.529-1.201,1.118-2.351,1.7-3.508
			c8.42,5.074,23.098,3.91,30.908,0.007c1.568-0.784,3.004-2.384,4.566-3.014c1.24-0.5,7.77-1.367,8.88-0.292
			c3.816,3.695-8.27,9.48-10.927,10.06c-9.621,2.102-20.246,1.32-29.996,0.67c-1.5-0.1-2.516,0.497-3.091,1.388
			c-3.246,0.211-4.259,5.213-0.647,6.351c8.372,2.637,16.795,5.054,25.236,7.46c1.815,0.517,4.749,0.789,6.326,1.803
			c0.796,0.238,1.592,0.477,2.388,0.715c0.004,2.003,0.007,4.006,0.011,6.009c-2.296,1.659-10.289-1.986-12.413-2.89
			c-10.777-4.587-21.05-12.681-33.333-10.519c-1.48-1.272-4.104-1.157-5.243,0.656c-2.899-2.982-7.749-3.558-11.799-2.201
			c-0.071-0.097-0.134-0.196-0.218-0.289c-6.297-6.932-13.552-1.39-19.022,3.476c-3.704,3.295-15.784,11.668-18.574,2.845
			c-1.468-4.642,7.988-6.806,14.338-8.32c0.563,0.254,1.248,0.292,2.029-0.007c13.948-5.345,23.587-21.386,28.569-35.109
			c12.186-8.106,21.46-19.867,23.898-35.188c0.654-4.11-4.863-5.754-6.293-1.735c-8.823,24.792-31.318,38.868-57.138,40.396
			c-21.576,1.278-52.817-3.301-63.339-24.887c0.004-1.043-0.373-2.081-1.229-2.818c-0.323-0.855-0.623-1.727-0.884-2.631
			c-1.008-3.486-4.558-3.773-6.723-2.109c-22.948-13.653-47.798-24.175-71.048-37.296c-12.378-6.986-24.513-14.426-35.922-22.922
			c-8.275-6.162-17.455-12.966-22.148-22.026c4.389,2.06,9.106,3.583,12.403,4.804c21.825,8.078,45.74,9.072,68.763,8.197
			c12.201-0.463,26.18-2.391,35.433-9.636c0.218-0.042,0.443-0.11,0.677-0.208c6.931-2.899,10.035-9.904,9.153-16.878
			c0.049-0.311,0.108-0.611,0.148-0.929c0.134-1.054-0.254-1.871-0.894-2.441c-0.26-0.816-0.558-1.625-0.933-2.414
			c-5.954-12.537-22.963-16.972-33.991-23.575c-15.231-9.12-29.36-20.171-43.152-31.308c-11.491-9.279-22.112-19.765-26.305-34.115
			c13.059-5.379,24.482,3.553,36.616,8.645c10.293,4.319,22.51,7.658,33.699,5.906c0.469-0.073,0.872-0.234,1.214-0.457
			c1.119-0.17,2.236-0.28,3.336-0.16c2.888,0.316,3.931,2.237,5.043,4.67c1.037,2.268,2.239,4.21,3.895,5.594
			c-2.487,1.734-4.696,3.91-6.434,6.565c-0.021,0.032-0.031,0.063-0.051,0.095c-8.613,9.106-5.334,24.609,3.035,33.639
			c10.494,11.323,28.939,11.828,39.215-0.38c9.257-10.998,7.273-29.292-3.527-38.509c-1.551-1.324-3.235-2.412-4.998-3.303
			c11.411-5.186,19.927,8.129,22.547,18.695c1.953,7.879,0.586,19.755,6.959,25.861c0.034,0.066,0.058,0.131,0.098,0.197
			c2.94,4.804,7.117,8.412,11.027,12.416c5.854,5.995,8.428,12.009,9.323,20.219c0.66,6.054,1.323,12.942-0.811,18.746
			c-2.663,7.242-9.254,10.843-16.177,12.976c-3.281-0.72-6.959-0.334-10.453,0.452c-3.408,0.766-2.724,6.403,0.834,6.163
			c1.677-0.113,3.55-0.255,5.289-0.08c0.615,0.874,1.605,1.488,2.922,1.493c0.376,0.002,0.726-0.041,1.094-0.052
			c0.859,0.697,1.52,1.686,1.859,3.104c1.045,4.379-1.564,8.575-2.742,12.644c-1.182,4.078,4.442,6.183,6.652,2.805
			c3.706-5.662,5.83-13.614,2.749-19.99c12.506-4.218,19.127-16.874,18.609-31.082c-0.073-2.013-0.249-3.979-0.49-5.913
			c7.487,3.564,17.044,0.547,22.294-6.441c3.217-4.282,3.799-8.687,1.931-13.676c-1.551-4.142-4.478-7.029,0.399-9.687
			c2.292-1.249,5.217-1.842,8.09-2.411c-0.5,0.689-0.987,1.398-1.44,2.154c-1.683,2.809,2.424,6.193,4.643,3.583
			c7.638-8.982,19.41-12.139,30.364-15.202c12.664-3.542,25.587-6.194,38.647-7.752c19.599-2.338,38.554-1.301,57.853,0.077
			c-3.319,2.679-0.944,9.061,4.05,7.856c54.227-13.081,120.167-12.658,161.938-55.012c16.071-16.296,31.046-43.059,22.213-66.345
			c-4.117-10.853-12.177-16.619-22.907-19.952c-13.144-4.083-22.021-11.655-27.551-23.127c0.217-0.588,0.281-1.285,0.116-2.084
			c-0.43-2.086-1.551-4.706-0.743-6.837c0.751-1.982,2.088-1.754,3.354-0.404c2.383,2.541,3.753,6.201,5.13,9.523
			c0.067,0.684,0.33,1.389,0.85,2.055c0.036,0.046,0.076,0.085,0.112,0.131c0.196,0.371,0.458,0.665,0.768,0.891
			c8.734,10.091,22.685,11.072,34.238,16.47c12.214,5.708,20.346,17.225,24.026,29.943
			C1606.555,180.516,1589.516,209.065,1568.966,229.693z"/>
		<path fill="#30D692" d="M1283.046,306.058c-2.429,0.585-4.54,2.92-4.646,5.389c-0.233,0.724-0.284,1.532-0.158,2.367
			c0.506,3.344,4.432,5.134,7.469,4.498c3.178-0.666,5.063-3.83,4.645-6.938C1289.886,307.871,1286.638,305.192,1283.046,306.058z"
			/>
		<path fill="#30D692" d="M1283.36,283.139c-2.276,1.444-2.138,4.054-0.557,5.644c-0.703,6.081,10.126,12.391,13.599,5.926
			c1.729-3.218-0.297-7.405-2.767-9.632C1291.002,282.704,1286.649,281.053,1283.36,283.139z"/>
		<path fill="#30D692" d="M1314.008,306.485c-1.832-0.63-3.876-0.394-5.471,0.722c-2.035,1.424-2.609,3.407-2.19,5.775
			c0.167,0.949,0.902,1.731,1.783,2.182c-0.828,2.429,0.513,5.332,3.243,6.443c4.229,1.721,7.595-2.177,7.812-6.133
			C1319.383,311.883,1317.596,307.719,1314.008,306.485z"/>
		<path fill="#30D692" d="M1431.456,265.286c-0.776-0.241-1.513-0.169-2.3-0.092c-1.495,0.146-2.784,0.697-3.576,2.052
			c-0.672,1.149-0.718,2.48-0.209,3.686c1.067,2.529,4.745,3.557,6.714,1.333c0.75-0.848,1.418-1.597,1.796-2.707
			C1434.5,267.74,1433.163,265.817,1431.456,265.286z"/>
		<path fill="#30D692" d="M1181.037,351.528c-23.884-0.173-46.416-3.362-68.117-13.882c-4.121-1.998-7.758,4.104-3.618,6.189
			c22.266,11.216,47.637,17.337,72.573,13.884C1185.463,357.222,1184.485,351.553,1181.037,351.528z"/>
		<path fill="#30D692" d="M1177.603,366.813c-9.675-0.072-19.372-0.677-29.003-1.593c-3.761-0.357-4.689,6.128-0.901,6.657
			c9.984,1.395,19.824,1.915,29.903,1.658C1181.92,373.424,1181.941,366.845,1177.603,366.813z"/>
	</g>
	<g>
		<path fill="#30D692" d="M288.623,181.711c12.107-2.029,22.489-12.878,23.035-25.343c0.574-13.107-9.701-23.929-22.539-24.736
			c-4.321-0.271-4.133,6.137,0,6.618c2.223,0.259,4.186,0.832,5.916,1.635c-0.61-0.092-1.22-0.172-1.835-0.222
			c-0.417-0.291-0.924-0.5-1.54-0.562c-12.507-1.267-24.785,11.825-25.811,23.815C264.759,175.641,276.854,183.684,288.623,181.711z
			 M272.504,161.871c1.111-6.708,6.473-12.741,12.821-15.429c4.804-1.002,9.047-1.496,13.957,0.068
			c1.118,0.356,1.999,0.017,2.566-0.627c5.369,8.701,2.227,22.254-8.638,27.538C284.212,177.796,270.455,174.236,272.504,161.871z"
			/>
		<path fill="#30D692" d="M323.078,253.483c5.132,0.791,37.777,2.499,37.587,8.688c-0.122,3.964,5.165,4.102,6.449,0.873
			c3.263-8.208-6.919-11.175-12.964-12.348c-12.683-2.461-25.637-3.218-38.297-5.811c-10.491-2.149-21.03-5.54-29.775-11.908
			c-10.906-7.942-14.816-19.322-20.099-30.952c-1.527-5.032-3.185-10.023-4.47-15.128c-1.448-5.75-1.799-12.088-3.994-17.58
			c-2.518-6.302-9.365-10.774-15.527-6.176c-3.09,2.306-0.315,7.488,3.105,5.312c6.517-4.145,9.351,19.167,9.997,21.724
			c1.625,6.425,3.621,12.665,6.555,18.615c0.036,0.072,0.081,0.127,0.12,0.193c5.127,16.426,16.949,30.017,32.899,36.929
			C303.742,249.848,313.331,251.98,323.078,253.483z"/>
		<path fill="#30D692" d="M760.026,332.289c-2.339-11.501-4.04-23.15-3.516-34.917c0.62-13.922,4.014-27.536,5.847-41.313
			c2.848-21.404,0.186-41.939-11.853-60.257c-20.389-31.024-58.872-46.637-95.277-43.356c-39.747,3.582-74.041,28.713-95.249,61.646
			c-14.961-8.678-34.982-9.824-51.788-9.832c-8.729-0.004-19.554,1.749-27.362,6.941c-2.684-0.821-8.501-1.788-9.968-3.346
			c-2.641-2.806-0.553-6.557-0.057-9.615c0.951-5.867,0.842-11.825-0.819-17.537c-0.851-2.927-4.487-3.087-6.107-0.798
			c-5.425,7.666-9.333,14.63-12.713,22.852c-4.641-4.49-9.858-8.039-16.543-8.987c-2.678-0.38-4.897,1.996-3.543,4.609
			c2.994,5.78,6.409,11.195,10.285,16.322c-6.488-0.099-13.349,1.708-13.474,8.928c-0.19,10.935,17.104,7.529,22.38,11.33
			c3.48,2.507,5.344,6.087,9.553,8.026c4.704,2.167,10.009,2.896,15.15,2.948c5.541,0.055,10.988-0.983,16.451-1.756
			c4.338-0.614,8.803-1.259,13.201-0.904c7.749,0.625,5.599,4.033,1.667,7.673c-0.357,0.33-0.61,0.677-0.793,1.027
			c-9.753,0.645-19.658-0.058-29.263-1.187c-15.797-1.857-28.04-7.638-40.682-16.994c-10.726-7.937-21.201-15.988-34.394-19.214
			c-0.65-0.159-1.25-0.174-1.819-0.118c-1.515-2.857-3.416-5.514-5.753-7.833c-0.451-0.447-0.967-0.705-1.499-0.824
			c-0.081-3.329-1.53-5.992-3.892-7.932c0-0.054,0.011-0.1,0.009-0.155c-0.428-13.355-10.357-22.942-21.859-28.308
			c-11.212-5.23-37.697-8.352-40.892-22.517c-0.263-1.164-1.087-1.858-2.056-2.142c-4.785-8.47-12.81-14.133-21.322-18.696
			c-8.236-4.415-17.838-8.645-26.929-3.994c-4.536,2.321-7.65,6.508-11.004,10.176c-3.706,4.052-7.829,7.032-12.668,9.629
			c-7.881,4.231-16.712,7.862-22.121,15.366c-11.618,16.12-3.727,42.409,4.041,58.561c5.319,11.06,12.785,21.128,21.834,29.443
			c-0.153,0.348-0.269,0.734-0.314,1.176c-2.593,25.125,15.159,60.068,40.357,68.829c-3.594,19.349,2.146,45.867,14.369,60.62
			c0.151,0.182,0.31,0.328,0.469,0.471c-9.011,11.638-11.125,30.187-9.726,44.347c-7.69-3.525-20.42-6.5-24.962,0.525
			c-4.069,6.294,3.875,10.123,11.073,12.42c-9.634,5.724-22.902,15.434-15.128,21.499c4.125,3.218,12.692,0.484,16.917-1.172
			c2.511-0.985,4.878-2.259,7.069-3.773c-2.991,9.409-4.843,20.453,3.686,22.724c7.556,2.011,12.083-8.279,14.491-17.229
			c4.98,6.76,13.148,12.371,20.006,8.475c13.09-7.436,0.782-24.006-4.893-31.515c-0.096-0.128-0.205-0.229-0.31-0.338
			c3.94-6.876,7.412-14.028,10.569-21.289c2.995-6.89,6.629-14.221,7.925-21.712c5.057-2.896,9.585-7.815,7.891-14.039
			c-1.335-4.904-6.243-8.487-11.362-9.463c2.463-7.382,1.611-15.318-1.07-22.781c-0.547-1.523-1.238-3.038-1.924-4.557
			c4.372-1.881,8.892-4.051,13.205-6.616c0.204,1.206,0.98,2.309,2.398,2.711c6.681,1.893,14.235,0.566,21.464-2.399
			c0.105,0.138,0.214,0.275,0.35,0.403c9.42,8.869,23.056,10.579,35.251,13.068c15.061,3.075,30.234,5.571,45.477,7.543
			c30.201,3.908,62.568,7.332,92.988,4.157c23.237-2.425,42.49-12.858,51.428-35.041c2.141,8.795,5.637,17.375,10.875,25.666
			c6.008,9.509,16.252,28.255,2.397,36.283c-4.896,2.837-10.625,2.579-15.343,6.092c-4.08,3.038-6.507,7.091-7.751,11.972
			c-0.758,2.974,2.312,4.95,4.872,3.745c3.807-1.792,19.582-7.226,21.367-1.89c1.22,3.648-6.245,15.17-7.852,18.605
			c-1.002,2.143-0.224,4.59,2.166,5.324c8.674,2.665,14.975-0.858,19.965-6.42c-2.502,4.688-6.623,8.793-7.975,14.615
			c-1.2,5.167,2.409,9.78,7.754,10.04c12.178,0.592,18.04-16.953,19.969-29.271c5.318,4.96,9.443,11.167,15.24,15.695
			c4.098,3.201,9.485,5.182,12.659-0.263c3.122-5.354-1.074-12.241-4.341-16.522c-2.76-3.618-6.139-6.302-9.426-9.382
			c-5.604-5.252-6.129-10.553-5.735-17.684c7.565-3.719,25.434-13.277,15.064-20.279c-5.589-3.774-16.928-3.788-24.522-0.214
			c1.054-8.432-1.096-17.665-4.587-25.018c-2.723-5.735-6.998-9.938-10.457-15.164c-4.338-6.553-4.032-13.379-3.065-20.835
			c2.444-18.847,2.858-43.571-15.851-53.602c2.591-2.808,5.92-5.238,10.184-7.222c13.206-3.199,29.77-3.128,40.794,5.143
			c10.79,8.095,7.249,28.469,9.341,40.534c4.322,24.929,18.419,46.733,30.717,68.344c14.037,24.666,23.763,50.296,26.202,78.767
			c1.154,13.476,0.945,27.042-0.32,40.501c-1.424,15.164-5.177,29.607-7.901,44.522c-0.359,1.869,0.276,3.34,1.337,4.284
			c0.07,1.028,0.371,2.059,0.951,3.013c3.65,6.004,9.743,1.669,12.917-2.036c13.243-15.457,21.426-36.435,26.154-55.993
			C780.281,425.815,769.585,379.281,760.026,332.289z M518.308,240.036c-5.541-7.004-20.216-4.63-27.522-3.577
			c-12.044,1.736-25.503,4.98-34.57-5.406c-2.572-2.946-3.706-4.608-7.878-4.865c-2.967-0.183-5.819,0.742-8.817,0.012
			c-5.384-0.943-4.852-2.738,1.596-5.387c2.421,0.212,4.791,0.67,7.11,1.375c3.277,0.858,5.351-3.092,3.197-5.492
			c-3.812-4.247-7.19-8.744-10.232-13.485c3.178,2.097,5.951,4.833,8.858,7.641c2.114,2.042,5.256,0.446,5.479-2.27
			c0.544-6.616,3.828-14.182,8.436-19.725c0.123,3.509-0.039,6.992-0.838,10.577c-0.711,3.191-2.22,6.142-1.282,9.453
			c1.446,5.104,7.584,6.827,12.944,7.916c-1.641,2.185-2.889,4.711-3.604,7.629c-0.922,3.764,4.017,5.712,6.119,2.58
			c9.376-13.974,22.699-15.475,38.68-14.687c14.189,0.7,27.195,2.494,40.232,7.911c-0.611,1.055-1.212,2.116-1.796,3.184
			c-0.604,1.105-0.678,2.177-0.429,3.133c-6.845,10.006-15.614,17.501-27.801,21.558c-2.749,0.915-5.542,1.641-8.364,2.224
			C520.06,247.169,520.952,243.378,518.308,240.036z M378.978,214.362c-2.796-0.532-5.984,1.48-4.673,4.805
			c4.329,10.988-9.412,15.747-17.393,11.591c-6.156-3.206-8.959-9.787-6.512-16.45c2.811-7.654,10.368-11.78,18.129-12.499
			c3.111-0.288,9.585-0.767,12.124,1.129C387.234,207.853,382.955,211.506,378.978,214.362z M627.31,286.412
			c0.525,11.052-3.559,21.885-2.538,32.88c0.9,9.686,6.809,15.204,11.934,22.902c6.74,10.125,6.479,20.179,5.989,31.74
			c-0.115,2.706,1.888,3.99,3.959,3.911c0.746,0.586,1.749,0.892,2.816,0.699c3.369-0.611,6.048-2.889,9.37-3.843
			c3.364-0.966,6.897-1.135,10.345-0.584c0.965,0.123,1.912,0.327,2.843,0.614c-0.513,0.039-1.026,0.078-1.539,0.116
			c-1.38,1.215-3.129,2.272-4.65,3.302c-3.147,2.131-6.388,4.113-9.683,6.005c-1.617,0.928-1.931,2.456-1.471,3.762
			c-0.742,5.097-1.181,10.292,0.801,15.183c2.522,6.226,8.291,9.292,12.733,13.966c1.277,1.343,10.004,11.679,3.985,8.644
			c-2.524-1.273-4.894-5.061-6.737-7.152c-4.07-4.616-8.019-8.883-13.271-12.161c-2.44-1.522-5.893,0.441-5.798,3.327
			c0.226,6.818-0.773,13.048-3.912,19.178c-1.02,1.992-3.327,7.057-5.524,8.069c-6.117,2.818,0.297-5.366,0.942-6.387
			c4.07-6.444,7.212-14.255,4.016-21.394c0.739-2.908-3.091-5.258-5.264-3.494c-1.32,0.459-2.314,1.638-2.016,3.262
			c-3.226,5.817-7.896,12.038-14.359,12.641c2.886-5.259,6.086-10.738,7.65-16.198c0.875-3.055,0.873-5.494-1.885-7.52
			c-3.239-2.38-10.298-2.346-14.175-2.205c-2.812,0.102-5.524,0.532-8.167,1.214c6.829-5.754,19.174-3.9,24.864-13.163
			c5.013-8.162,4.098-18.602,0.44-27.05c-5.911-13.653-15.922-23.888-19.059-38.887c-1.195-5.714-1.629-11.475-1.681-17.256
			c0.606-4.964,0.909-9.97,0.997-14.94c0.169-9.611,1.027-18.391,4.728-25.598C622.676,266.208,626.79,275.462,627.31,286.412z
			 M760.65,472.828c-2.496,10.33-5.933,20.455-10.587,30.019c-1.993,4.095-4.188,8.09-6.579,11.966
			c-1.196,1.939-2.45,3.841-3.743,5.716c-0.288,0.418-1.166,1.807-2.046,3.257c-0.095-0.393-0.26-0.763-0.491-1.089
			c6.751-21.307,8.716-45.439,8.322-67.496c-0.426-23.897-4.678-47.851-13.81-69.993c-8.679-21.041-21.644-39.852-31.888-60.1
			c-5.245-10.368-9.714-21.211-12.016-32.642c-2.367-11.757-0.969-24.329-4.781-35.804c-1.755-5.281-4.958-9.343-9.056-12.398
			c2.784-8.108,5.627-15.708,10.756-22.966c5.757-8.146,12.92-15.361,19.558-22.783c2.771-3.099-1.487-7.39-4.57-4.57
			c-12.801,11.713-29.28,28.098-32.498,46.468c-0.759-0.324-1.537-0.621-2.326-0.901c-0.437-23.588,13.963-42.115,29.025-59.105
			c2.756-3.108-1.355-7.062-4.497-4.497c-18.693,15.265-32.136,37.323-31.644,61.71c-2.521-0.474-5.106-0.783-7.712-0.926
			c-1.044-8.399-2.596-16.527-2.048-25.143c0.651-10.248,3.505-19.961,6.647-29.674c1.213-3.752-4.415-6.071-6.331-2.669
			c-9.032,16.035-12.396,39.322-6.551,57.54c-3.445,0.222-6.82,0.681-10.002,1.346c-0.822-5.208-3.029-10.135-4.163-15.324
			c-1.528-6.988-2.155-14.082-2.631-21.204c-0.311-4.647-6.467-4.414-7.057,0c-1.529,11.442-0.799,27.427,5.659,37.922
			c-8.539,3.735-15.365,10.021-19.277,18.731c-5.124,11.409-3.343,24.195-4.19,36.306c-0.85,12.146-3.621,24.728-10.693,34.868
			c-8.101,11.615-21.11,16.822-34.699,18.756c-27.624,3.933-57.457,0.67-85.046-2.188c-15.622-1.618-31.172-3.777-46.63-6.563
			c-12.785-2.304-27.493-3.796-38.96-10.481c6.646-3.696,12.644-8.45,16.921-12.869c2.512-2.596-0.899-7.554-4.025-5.217
			c-10.662,7.97-23.465,16.241-37.19,16.864c7.977-5.915,14.379-13.524,16.257-23.544c0.785-4.187-4.766-5.632-6.307-1.738
			c-5.911,14.936-18.842,21.546-32.008,28.84c-0.481-2.407-0.403-4.869,0.773-7.432c1.861-4.054,5.915-7.361,8.567-10.951
			c2.014-2.726-1.818-5.953-4.439-4.439c-7.503,4.334-13.804,12.158-13.329,21.207c0.297,5.665,3.416,10.307,5.42,15.449
			c2.889,7.412,3.354,14.56,0.946,22.206c-0.949,1.521-0.708,3.768,1.052,4.757c2.939,1.651,8.668,1.26,10.243,4.779
			c1.491,3.331-3.748,5.763-5.928,7.104c-1.59,0.978-2.029,2.439-1.733,3.758c-3.158,6.387-4.944,13.717-7.662,20.254
			c-3.714,8.932-8.113,17.512-12.425,26.162c-1.811,3.633,2.717,6.713,5.312,4.26c3.391,4.569,8.484,10.529,7.308,15.457
			c0.657,3.872-1.473,5.056-6.391,3.551c-1.362-0.952-2.645-1.998-3.849-3.138c-3-2.711-5.39-5.628-6.12-9.709
			c-0.705-3.941-6.178-2.563-6.511,0.881c-0.463,4.786-1.592,9.373-3.603,13.755c-0.938,2.043-3.142,8.586-6.163,2.814
			c-0.688-1.314,1.947-8.395,2.398-9.93c1.242-4.225,2.462-8.455,3.67-12.689c0.747-2.619-2.859-4.98-4.759-2.77
			c-3.077,3.579-6.229,6.73-10.41,9.031c-1.881,1.035-8.699,4.136-12.477,4.123c3.869-6.762,14.352-11.041,20.562-14.025
			c3.065-1.473,1.927-5.886-0.889-6.802c-1.318-0.429-11.472-2.653-11.659-4.163c-0.201-1.618,14.567,2.842,15.559,3.344
			c2.136,1.08,4.027-0.291,4.464-2.024c0.753-0.386,1.342-1.034,1.509-1.953c1.578-8.673,1.081-17.552,2.765-26.227
			c1.671-8.606,5.544-15.751,9.876-23.267c1.618-2.806-1.487-5.06-3.925-3.935c-4.49-9.574-8.935-18.445-11.118-28.922
			c-1.937-9.297-1.601-18.716-2.819-28.047c0.419-1.087,0.278-2.319-0.847-3.203c-10.473-8.232-20.715-14.499-28.136-26.026
			c-6.784-10.538-9.743-21.661-11.155-33.735c4.471,3.409,9.24,6.423,14.277,8.937c4.151,2.072,7.8-4.01,3.666-6.272
			c-15.175-8.306-27.813-19.966-36.531-34.993c-8.093-13.949-16.032-35.64-10.425-51.751c5.113-14.69,25.911-17.388,35.84-28.247
			c2.778-3.038,5.215-6.704,8.759-8.913c6.621-4.127,13.628-0.822,19.908,2.227c8.811,4.277,16.932,9.474,21.813,18.211
			c0.15,0.268,0.321,0.486,0.502,0.68c2.627,9.174,13.742,14.349,21.928,17.664c13.995,5.668,34.227,9.407,38.26,26.027
			c-14.105-3.033-30.594,1.653-36.67,15.713c-5.73,13.258,2.174,27.611,16.35,30.229c12.606,2.328,26.658-7.684,23.474-20.795
			c2.807-1.596,5.35-3.646,7.035-6.286c7.297,12.443,9.022,26.74-1.298,38.661c-7.083,8.182-19.209,8.313-25.351,16.962
			c-3.647,5.134-5.845,9.31-11.771,12.287c-5.38,2.703-11.629,3.681-17.606,3.183c-14.347-1.195-26.296-10.511-37.48-18.683
			c-2.803-2.049-6.088,2.402-3.665,4.75c11.161,10.818,25.184,20.518,41.145,21.716c13.311,0.999,26.827-4.313,34.054-15.824
			c4.826-7.687,13.09-8.374,20.089-13.575c5.279-3.923,9.541-9.199,12.21-15.208c2.971-6.688,3.911-14.308,2.785-21.562
			c5.212,1.858,9.987,4.527,14.566,7.562c-5.407,9.364-7.144,19.841-8.032,30.596c-0.886,10.736-1.112,21.732,8.64,28.401
			c3.067,2.098,6.426-2.512,3.9-5.055c-7.167-7.216-5.691-18.145-4.811-27.437c0.757-7.994,2.206-15.582,5.753-22.704
			c1.354,0.984,2.701,1.979,4.045,2.981c-3.229,14.017-7.811,33.11-0.668,45.597c2.144,3.748,7.514,0.458,5.714-3.34
			c-2.998-6.325-1.928-14.434-1.395-21.229c0.44-5.615,1.204-11.176,2.203-16.706c1.747,1.265,3.509,2.506,5.302,3.691
			c14.679,9.694,30.939,12.443,48.231,13.518c26.899,1.673,67.599-4.883,76.399-35.555c16.074-28.882,42.183-52.543,74.401-61.643
			c31.298-8.84,67.375-1.867,91.776,20.131c13.172,11.874,22.892,28.166,24.973,45.961c2.321,19.841-4.025,39.5-6.13,59.081
			c-2.085,19.387,1.689,38.012,6.129,56.795c4.689,19.835,8.827,39.786,10.584,60.124
			C766.612,428.767,765.874,451.208,760.65,472.828z"/>
		<path fill="#30D692" d="M556.106,275.714c-0.496-1.977-2.547-3.507-4.856-2.116c-0.272,0.164-0.559,0.351-0.851,0.548
			c-3.84,0.035-7.538,2.148-8.755,6.737c-0.243,0.916-0.3,1.827-0.199,2.694c-2.327,4.166-2.594,8.571,2.632,11.366
			c8.674,4.638,19.343-4.578,16.415-13.754C559.709,278.74,558.082,276.909,556.106,275.714z"/>
		<path fill="#30D692" d="M520.956,273.859c-9.823-4.945-18.709,4.133-16.97,14.075c0.75,4.286,4.091,7.312,8.167,7.515
			c2.985,1.755,6.678,1.907,9.954,0.267C531.531,290.995,529.631,278.228,520.956,273.859z"/>
		<path fill="#30D692" d="M543.669,303.698c-3.892-0.701-8.686,1.147-11.529,3.846c-1.901,1.805-2.887,4.553-2.418,7.046
			c-1.267,2.903,0.281,6.638,3.118,8.116c6.651,3.464,18.335-4.609,17.76-11.93C550.311,307.086,547.181,304.331,543.669,303.698z"
			/>
		<path fill="#30D692" d="M728.352,291.822c0.026-0.389-0.001-0.788-0.133-1.198c-0.623-1.925-2.52-3.07-4.515-2.564
			c-2.965,0.751-4.914,4.044-3.991,7.002c0.268,0.861,0.759,1.606,1.369,2.23c0.703,0.898,1.513,1.527,2.688,1.589
			c0.999,0.273,2.07,0.297,3.103-0.027c1.26-0.396,2.471-1.398,2.753-2.753C729.976,294.42,729.507,292.912,728.352,291.822z
			 M725.655,295.14c0.146-0.053,0.283-0.127,0.423-0.195C725.956,295.013,725.823,295.078,725.655,295.14z"/>
		<path fill="#30D692" d="M733.925,256.38c-2.962-1.681-6.383-2.584-9.795-2.204c-3.681,0.41-6.157,3.55-5.094,7.276
			c1.021,3.578,4.552,4.874,7.934,4.889c3.431,0.015,6.473-0.808,8.506-3.726c0.718-1.03,0.664-2.804-0.058-3.948
			C735.315,257.764,734.858,256.91,733.925,256.38z"/>
		<path fill="#30D692" d="M706.713,263.601c-0.297-0.002-0.592,0.037-0.887,0.061c-1.223-0.872-2.794-1.1-4.252-0.251
			c-1.403,0.817-2.343,2.108-2.636,3.572c-0.781,0.83-1.439,1.776-1.891,2.839c-0.578,1.361-0.792,2.678,0,4.031
			c0.743,1.27,2.018,1.893,3.448,1.978c2.063,0.122,3.992-0.856,5.391-2.353c0.332-0.116,0.661-0.249,0.981-0.421
			c1.882-1.013,2.879-2.62,3.549-4.593C711.232,266.058,709.084,263.618,706.713,263.601z"/>
		<path fill="#30D692" d="M364.281,210.778c-0.034,0.043-0.065,0.087-0.099,0.13c-0.197,0.124-0.391,0.27-0.579,0.458
			c-3.484,3.485-6.249,7.369-8.277,11.865c-1.728,3.832,3.105,6.634,5.601,3.274c2.876-3.872,5.88-7.701,8.55-11.718
			C371.525,211.708,366.616,207.8,364.281,210.778z"/>
		<path fill="#30D692" d="M286.691,167.376c3.491-3.71,6.589-7.75,9.313-12.053c2.488-3.93-3.773-7.577-6.228-3.64
			c-0.271,0.435-0.56,0.856-0.839,1.285c-0.178,0.131-0.353,0.283-0.52,0.472c-2.667,3.018-4.859,6.445-7.198,9.715
			C278.907,166.389,284.011,170.223,286.691,167.376z"/>
	</g>
	<g>
		<path fill="#30D692" d="M1534.878,610.81c0.176-0.291,0.364-0.579,0.547-0.868c-0.715,10.861,4.335,21.76,15.125,26.036
			c12.004,4.756,24.919-2.347,28.639-14.337c0.244-0.786,0.184-1.467-0.06-2.031c0.272-0.558,0.393-1.219,0.271-1.965
			c-1.916-11.61-10.69-24.65-23.144-26.244c-11.783-1.507-21.788,6.089-26.975,16.137
			C1527.374,611.232,1532.712,614.405,1534.878,610.81z M1556.911,598.095c9.24,1.93,14.598,12.898,16.599,21.173
			c0.009,0.036,0.024,0.063,0.033,0.097c-0.117,0.191-0.219,0.402-0.304,0.634c-3.346,9.193-14.246,12.856-22.502,7.673
			c-8.881-5.576-8.104-14.772-7.92-23.897c0.014-0.707-0.182-1.292-0.505-1.757C1546.35,598.768,1551.258,596.914,1556.911,598.095z
			"/>
		<path fill="#30D692" d="M1558.05,618.504c-0.269-4.621-0.251-9.253,0.406-13.843c0.555-3.875-5.324-5.617-5.981-1.649
			c-0.852,5.149-1.232,10.282-0.784,15.491C1552.038,622.528,1558.29,622.626,1558.05,618.504z"/>
		<path fill="#30D692" d="M1322.744,618.175c0.991-1.967,1.295-4.228,0.617-6.166c-0.04-0.336-0.11-0.663-0.239-0.955
			c-0.395-0.899-1.135-1.597-2.013-1.962c-1.084-0.71-2.716-0.586-3.782,0.045c-0.457,0.27-0.806,0.64-1.102,1.045
			c-2.771,1.808-4.597,4.92-4.398,8.356c0.121,2.1,1.737,4.088,4.005,4.005C1318.739,622.438,1321.422,620.801,1322.744,618.175z
			 M1319.837,618.016C1319.848,618.169,1319.84,618.141,1319.837,618.016L1319.837,618.016z"/>
		<path fill="#30D692" d="M1329.388,636.03c-3.038-0.033-5.848,1.512-7.094,4.098c-1.686,1.487-2.936,3.454-2.958,5.786
			c-0.033,3.456,2.763,6.328,6.197,6.439c2.777,0.09,5.441-1.376,6.924-3.711c1.617-2.546,1.406-5.524,1.163-8.38
			C1333.424,637.963,1331.839,636.057,1329.388,636.03z"/>
		<path fill="#30D692" d="M1391.883,638.17c-1.734-0.613-3.555,0.589-4.156,2.205c-2.072,0.689-3.769,2.25-4.455,4.581
			c-0.475,1.614,0.318,3.419,1.737,4.268c2.968,1.775,6.879,1.068,8.991-1.666c0.964-1.248,1.505-2.868,1.405-4.456
			c-0.06-0.969-0.209-1.997-0.709-2.852C1394.077,639.192,1393.003,638.566,1391.883,638.17z M1387.51,642.144
			c0.001,0.017,0,0.035,0,0.052C1387.508,642.14,1387.508,642.129,1387.51,642.144z"/>
		<path fill="#30D692" d="M1411.558,655.557c-0.645-0.271-1.315-0.244-1.941-0.033c-0.324,0.046-0.641,0.11-0.958,0.24
			c0.074-0.032,0.067-0.029-0.01,0.003c-0.005,0.002-0.01,0.002-0.014,0.004c0.025-0.01-0.292,0.124-0.466,0.199
			c-0.114,0.049-0.212,0.09-0.364,0.154c-0.25,0.194-0.501,0.387-0.751,0.58c-0.458,0.458-0.822,1.106-0.985,1.722
			c-0.466,1.764,0.077,3.202,1.176,4.585c0.79,0.994,2.724,1.505,3.9,1.031c1.78-0.718,3.073-1.88,3.341-3.872
			c0.125-0.931-0.006-1.912-0.489-2.738C1413.43,656.465,1412.564,655.98,1411.558,655.557z M1411.853,661.817
			c0.165-0.101,0.32-0.22,0.467-0.35c-0.006,0.01-0.011,0.02-0.017,0.029C1412.153,661.603,1412.003,661.71,1411.853,661.817z"/>
		<path fill="#30D692" d="M1432.099,652.035c-2.235,0-4.376,1.965-4.272,4.272c0.104,2.315,1.877,4.273,4.272,4.273
			c2.235,0,4.376-1.965,4.272-4.273C1436.267,653.993,1434.494,652.035,1432.099,652.035z"/>
		<path fill="#30D692" d="M1231.921,674.067c0.08,1.792,1.062,3.355,2.73,4.059c1.197,0.505,2.317,0.443,3.313,0.009
			c0.068-0.007,0.136-0.001,0.204-0.011c2.231-0.3,3.765-1.696,5.09-3.412c2.577-3.336,3.057-8.666-0.968-11.153
			c-3.255-2.011-8.943-1.121-9.677,3.299c-0.08,0.482-0.096,0.957-0.064,1.418c-0.258,0.422-0.483,0.866-0.648,1.344
			c-0.497,1.431-0.488,3.002,0.021,4.413C1231.923,674.044,1231.92,674.055,1231.921,674.067z"/>
		<path fill="#30D692" d="M1240.865,680.099c-1.086-0.112-2.262-0.31-3.338-0.014c-1.725,0.475-3.221,2.187-3.221,4.019
			c0,1.25,0.717,2.539,1.741,3.348c0.398,0.936,1.07,1.752,1.988,2.257c2.07,1.138,4.54,0.631,5.98-1.233
			c1.237-1.601,1.213-3.439,0.857-5.327C1244.51,681.233,1242.593,680.278,1240.865,680.099z"/>
		<path fill="#30D692" d="M1358.163,611.123c-2.055-0.033-3.95,0.179-5.981,0.381c-2.578,0.256-3.807,2.159-3.726,4.02
			c-3.282,0.95-6.404,2.722-8.075,5.667c-2.586,4.556,0.527,9.134,5.364,9.863c8.868,1.336,17.349-6.742,16.715-15.634
			C1362.293,613.073,1360.627,611.163,1358.163,611.123z"/>
		<path fill="#30D692" d="M1655.594,725.1c-2.289-1.993-4.788-3.673-7.443-5.048c6.295-4.965,12.209-12.236,5.048-16.864
			c-3.837-2.479-10.3,0.21-13.903,1.804c-4.871,2.154-9.591,5.41-12.715,9.795c-0.137-0.373-0.329-0.735-0.601-1.066
			c-6.242-7.614-13.705-14.12-19.877-21.842c-4.975-6.225-8.838-14.4-16.404-17.807c3.359-2.64,6.657-5.352,9.81-8.216
			c0.958-0.871,1.15-2.039,0.876-3.123c4.291-0.463,8.568-1.064,12.82-1.889c9.885-1.916,25.763-6.145,24.219-19.207
			c-0.105-0.889-0.474-1.595-0.978-2.133c6.23-5.859,6.12-16.177,2.915-24.105c-2.177-5.386-5.886-10.149-10.59-13.566
			c-8.658-6.29-17.752-7.701-16.616-21.108c0.122-1.446-0.655-2.431-1.717-2.906c-5.808-9.744-21.771-6.91-30.195-2.05
			c-0.221,0.128-0.415,0.274-0.589,0.432c-26.81-4.093-57.442-5.306-77.065,16.817c-0.007,0.001-0.013,0.001-0.02,0.003
			c-15.326,3.305-25.415,11.256-30.379,26.315c-2.384,7.233-3.919,15.298-5.78,23.276c-22.693-14.723-46.797-28.813-70.803-41.071
			c-20.621-10.53-43.236-15.794-66.383-15.783c-22.971,0.011-45.94,4.903-67.181,13.555c-20.874,8.503-39.721,21.262-59.456,32.052
			c-6.496,2.004-13.28,2.447-20.558,0.449c-8.786-2.412-16.702-7.16-25.23-10.279c-25.65-9.381-53.687-12.845-80.866-10.87
			c-53.045,3.854-105.475,23.152-148.461,54.378c-19.809,14.39-40.223,31.284-53.862,51.851
			c-3.555,5.361-11.147,15.803-7.327,22.623c4.876,8.706,14.569,2.289,18.937-2.768c35.872-41.529,87.32-62.098,141.986-52.077
			c25.506,4.676,49.928,13.876,75.142,19.721c0.384,0.179,0.796,0.267,1.219,0.279c5.674,1.289,11.388,2.408,17.166,3.255
			c3.488,0.511,7.07,0.966,10.716,1.342c0.794,0.365,1.581,0.405,2.303,0.21c24.745,2.303,52.141,0.787,73.323-11.54
			c1.765,1.423,3.72,2.627,5.728,3.536c6.262,2.833,13.326,3.834,20.159,3.056c-1.575,2.695-2.828,5.361-3.603,7.825
			c-3.04,9.672-1.814,23.513,2.749,33.912c-10.65,1.162-28.014,4.051-22,13.287c3.232,4.964,13.444,7.04,18.669,7.989
			c3.83,0.695,7.666,0.879,11.481,0.67c-6.165,6.996-11.514,15.838-4.964,21.788c8.605,7.816,19.934-2.711,25.932-11.511
			c4.828,7.966,12.76,19.202,20.054,14.031c7.002-4.964,2.207-15.947-2.39-23.412c9.982-1.05,24.047-4.638,23.286-13.599
			c-0.8-9.42-19.169-9.018-29.518-8.153c3.342-8.611,7.682-16.854,10.305-25.776c0.942-3.205,1.716-6.532,2.322-9.91
			c4.656,5.051,11.489,4.962,18.041,4.894c12.544-0.13,25.05-1.408,37.593-1.61c0.533-0.009,1.069-0.005,1.604-0.01
			c0.727,0.207,1.499,0.188,2.228-0.014c19.923,0.056,40.33,3.269,56.383,15.734c-6.029,3.774-11.552,8.266-16.301,13.497
			c-5.565-3.482-14.136-2.854-16.367,4.222c-1.28,4.059,0.547,8.137,3.671,10.263c-8.536,24.013-0.331,51.2,20.539,65.963
			c-4.283,5.024-6.722,10.837-5.367,17.966c0.277,1.459,1.979,2.697,3.443,2.621c7.795-0.402,15.384-2.28,20.239-7.893
			c3.799,8.177,8.372,19.312,18.78,14.908c7.718-3.266,5.803-11.389,2.647-18.53c6.873,3.372,14.422,5.696,21.604,3.291
			c1.109-0.371,2.275-1.253,2.492-2.492c1.428-8.126-6.064-13.438-13.41-16.219c6.246-4.751,14.947-13.435,5.113-17.319
			c-5.104-2.016-12.781,1.017-17.691,2.403c-6.446,1.82-13.046,4.221-18.954,7.54c-0.413-0.718-1.097-1.331-2.123-1.68
			c-19.63-6.682-20.787-31.539-8.929-45.594c13.466-15.96,35.327-19.753,54.908-22.292c29.696-3.85,67.139-8.926,82.936-38.345
			c0.131-0.244,0.214-0.492,0.276-0.742c7.764-1.302,15.416-5.234,22.454-9.287c7.966,4.493,14.62,11.125,20.44,18.164
			c5.659,6.845,9.261,14.697,13.834,22.084c-8.07,7.109-22.648,22.999-11.428,28.013c5.241,2.342,13.041-2.202,17.13-5.277
			c1.883-1.416,3.538-3.001,4.998-4.729c3.925,4.12,12.908,3.476,17.77,2.373c5.855-1.329,14.223-5.425,16.824-11.605
			c8.505,3.573,23.584,6.12,23.363-4.521C1663.927,732.788,1658.831,727.918,1655.594,725.1z M1477.633,729.485
			c-22.024,4.237-45.413,3.77-65.74,14.444c-14.457,7.592-27.511,21.311-28.306,38.41c-0.706,15.172,8.115,30.429,23.354,33.849
			c0.439,1.893,2.592,3.417,5.008,2.392c7.672-3.255,15.061-6.661,23.179-8.735c1.751-0.447,3.511-0.856,5.285-1.202
			c2.047-0.398,3.64-1.57,3.034,0.203c-0.795,2.325-6.086,5.696-7.945,7.167c-0.079,0.063-0.136,0.133-0.205,0.2
			c-0.697,0.057-1.375,0.33-1.885,0.855c-0.254,0.261-0.507,0.522-0.761,0.783c-1.144,1.177-1.172,3.125,0,4.297
			c0.739,0.739,1.777,1.001,2.74,0.812c0.189,0.091,0.385,0.177,0.607,0.243c2.512,0.737,5.047,1.57,7.333,2.88
			c1.352,0.953,2.703,1.906,4.054,2.859c0.48,2.457-0.542,2.959-3.066,1.505c-5.669,0.381-13.14-4.926-17.92-7.643
			c-3.036-1.726-5.857,1.632-4.508,4.508c1.391,2.964,2.867,5.9,4.162,8.905c0.626,1.197,1.135,2.443,1.526,3.737
			c2.001,3.625-0.288,4.511-6.868,2.659c-2.822-2.315-4.476-10.638-6.538-13.881c-1.233-1.939-4.782-2.476-5.87,0
			c-2.781,6.329-8.208,8.435-14.322,9.093c0.205-5.497,4.177-9.098,7.636-13.136c2.123-2.479-0.012-5.575-2.54-5.386
			c-19.12-14.435-26.565-36.582-19.897-59.499c0.326-0.094,0.652-0.188,0.979-0.324c1.823-0.761,3.081-2.397,2.536-4.466
			c-0.484-1.838-2.607-3.136-4.466-2.536c-1.376,0.444-3.515-0.658-2.191-2.221c1.52-1.795,5.958,1.017,7.602,1.343
			c1.352,0.268,2.587-0.241,3.394-1.104c0.927,0.078,1.93-0.176,2.86-0.898c16.939-13.135,34.119-22.489,55.69-25.142
			c5.415-0.666,5.56-9.227,0-8.633c-12.464,1.332-25.28,4.807-36.828,10.576c-0.023-0.021-0.037-0.044-0.06-0.066
			c-10.722-9.607-23.538-15.17-37.3-18.028c-0.079-0.771-0.396-1.507-1.095-2.059c-8.47-6.683-6.895-25.75-5.974-35.28
			c0.413-4.271-6.197-4.917-7.316-0.99c-2.793,9.799-2.811,19.7-0.291,29.583c0.528,2.069,1.226,4.599,2.254,6.897
			c-4.119-0.397-8.249-0.606-12.385-0.683c-2.436-9.696-3.818-18.779-2.168-29.107c0.785-4.916-6.229-7.127-7.634-2.104
			c-2.772,9.911-3.079,21.243,0.223,31.221c-3.316,0.06-6.63,0.162-9.94,0.28c-0.174,0.006-0.364,0.02-0.541,0.028
			c-4.658-5.022-6.613-10.399-6.713-17.348c-0.062-4.361-6.471-5.33-7.653-1.036c-1.81,6.58-0.134,13.786,3.823,19.282
			c-9.21,0.868-19.463,1.462-25.897-2.646c-1.378-0.879-2.701-0.893-3.778-0.387c0.462-5.493,0.357-11.017-0.548-16.326
			c-3.964-23.265-29.861-33.738-50.815-36.901c-4.422-0.668-6.437,5.598-1.897,6.882c5.533,1.565,11.157,3.12,16.6,5.111
			c-1.426,1.122-2.554,2.612-3.052,4.365c-0.855,3.005,0.265,6.153,2.828,7.923c2.445,1.689,5.146,1.513,7.483,0.013
			c0.037,0,0.073,0.005,0.111,0.004c2.948-0.065,5.621-1.808,6.987-4.392c0.109-0.206,0.198-0.443,0.292-0.672
			c10.269,7.068,13.868,17.07,13.392,29.411c-0.453,11.76-3.893,22.643-8.684,33.289c-3.899,8.664-7.403,16.672-7.65,26.327
			c-0.108,4.216,6.672,5.307,7.5,1.015c0.333-1.724,0.747-3.418,1.223-5.088c6.028-0.337,18.474-0.744,22.843,1.268
			c-5.809,4.509-14.481,5.529-21.354,5.286c-2.795-0.099-5.283,3.561-3.445,6.003c1.303,1.731,10.469,16.252,8.209,17.119
			c-2.372,0.91-10.032-12.549-11.844-15.697c-1.354-2.351-5.376-2.659-6.644,0c-1.693,3.548-3.376,6.53-6.21,9.401
			c-2.358,2.388-7.381,8.299-8.684,3.142c-1.387-5.49,7.955-12.788,11.777-16.359c2.991-2.795-0.131-7.719-3.909-6.716
			c-10.069,2.674-17.661,1.29-27.627-0.454c-1.553-0.647-3.162-0.831-4.818-0.628c1.566-0.37,3.129-0.751,4.704-1.078
			c4.481-0.93,8.993-1.661,13.524-2.279c0.01,0.012,0.018,0.026,0.028,0.038c1.624,2.021,4.904,0.783,5.729-1.327
			c2.806-1.974,1.896-6.681-1.91-7.091c-3.646-10.335-6.559-23.296-2.037-32.957c4.988-10.656,15.205-16.828,23.531-24.29
			c2.863-2.565-0.176-7.112-3.624-6.225c-6.149,1.582-12.712,6.575-18.124,12.603c-6.52,1.285-12.742,2.034-19.268,0.141
			c-8.051-2.335-11.713-6.608-13.088-14.895c-0.503-3.031-5.363-3.599-6.665-0.871c-2.176,4.559-1.547,8.989,0.61,12.802
			c-19.96,9.755-44.702,11.114-67.35,8.919c-9.058-10.493-9.747-23.126-10.185-36.763c-0.151-4.687-6.907-4.616-7.231,0
			c-0.825,11.757-0.789,24.969,5.016,35.194c-0.824-0.127-1.658-0.246-2.472-0.381c-4.511-0.747-8.983-1.652-13.431-2.66
			c-2.699-6.951-4.726-13.487-4.699-21.354c0.016-4.854-6.893-4.625-7.387,0c-0.669,6.273-0.094,12.863,1.978,18.888
			c-3.294-0.857-6.579-1.755-9.857-2.68c-5.413-8.243-9.606-15.895-9.334-26.181c0.112-4.223-6.972-5.394-7.561-1.023
			c-1.065,7.903-0.11,16.272,3.448,23.311c-9.708-2.847-19.416-5.696-29.237-8.079c-44.845-10.882-90.438-6.215-129.559,19.491
			c-8.923,5.863-17.307,12.672-24.807,20.273c-2.601,2.636-7.077,10.02-10.25,11.591c-0.532,0.657-1.064,1.315-1.596,1.972
			c-2.828-1.749-3.074-3.729-0.739-5.941c0.929-2.73,3.814-6.218,5.491-8.527c14.899-20.511,36.592-37.704,57.476-51.717
			c42.332-28.407,93.888-46.096,145.037-47.335c28.143-0.682,55.954,4.984,81.541,16.622c10.628,4.834,20.548,7.053,30.341,6.241
			c-2.145,2.116-4.154,4.385-5.97,6.857c-2.093,2.848,2.501,6.31,4.871,3.758c4.503-4.849,9.295-9.271,14.671-13
			c6.979-2.987,13.481-7.42,19.734-11.457c9.746-6.291,19.561-12.248,30.146-17.044c21.215-9.613,44.438-15.196,67.754-15.532
			c23.387-0.338,45.964,5.083,66.651,15.966c23.7,12.469,46.207,27.228,70.077,39.376c-2.162,7.619-5.007,14.864-9.644,20.871
			c-2.875,3.724,3.083,7.741,6.266,4.835c9.664-8.827,11.6-24.483,14.84-36.515c2.145-7.966,3.547-16.881,7.21-24.311
			c4.481-9.088,12.707-11.91,21.448-15.584c0.443-0.186,0.809-0.431,1.129-0.703c0.631-0.107,1.274-0.374,1.887-0.87
			c11.055-8.938,22.398-15.73,36.903-16.989c12.401-1.077,24.884,1.531,37.278,1.742c1.156,0.02,2.04-0.579,2.591-1.418
			c7.693-2.64,14.676-5.111,20.78,0.795c-1.773,11.136,5.635,17.692,15.167,22.745c8.037,4.26,17.347,13.932,14.205,24.279
			c-3.138,10.336-25.285,9.943-33.323,10.702c-17.897,1.691-35.375,0.883-53.257-0.015c-12.448-0.625-24.696,1.11-31.943,12.346
			c-2.595,4.023,3.735,7.636,6.378,3.728c6.62-9.787,18.336-9.298,28.813-8.612c9.822,0.643,19.594,1.163,29.445,0.966
			c8.738-0.175,17.472-0.758,26.155-1.761c7.566-0.873,16.435-1.179,23.726-3.853c-2.182,14.888-42.831,13.213-52.835,13.576
			c-14.001,0.508-28.03,1.108-41.66,4.635c-11.617,3.006-22.77,8.08-31.749,16.164c-10.606,9.551-16.088,23.166-25.327,33.862
			c-3.483,4.032,1.989,9.682,5.906,5.906c10.984-10.587,15.445-26.2,27.37-35.94c13.555-11.07,31.959-14.518,48.922-15.901
			c10.003-0.815,20.066-1.084,30.084-1.788c-7.82,5.917-15.784,11.589-24.251,16.587c-10.132,5.981-21.776,13.285-33.473,15.24
			c-2.763,0.462-3.238,3.591-2.037,5.606C1517.46,717.396,1498.713,725.43,1477.633,729.485z M1630.973,740.83
			c-2.541,2.622-6.714,4.126-10.222,4.746c-1.835,0.325-3.778,0.401-5.63,0.224c-2.268-0.216-2.68-0.232-0.785-2.138
			c2.712-2.727,6.663-4.327,10.104-5.848c0.887-0.392,1.428-0.99,1.716-1.67C1630.119,735.916,1635.271,736.396,1630.973,740.83z
			 M1651.656,735.722c-0.908-0.014-1.792-0.158-2.654-0.432c-3.264-0.729-6.191-2.375-9.422-3.196
			c-3.746-5.005-12.274-5.003-18.028-2.844c-1.237,0.464-1.987,1.258-2.35,2.151c-3.134,1.026-6.68,2.738-9.555,5.042
			c-1.51-0.513-3.269-0.194-4.072,1.505c-1.601,3.391-3.698,6.306-6.474,8.842c-1.393,1.272-2.891,2.385-4.526,3.329
			c-0.965,0.558-2.527,0.965-3.844,1.457c1.21-1.839,2.5-3.62,3.896-5.323c2.301-2.807,4.897-5.291,7.467-7.825
			c1.152-0.389,2.104-1.334,2.424-2.646c0.871-1.571,0.445-3.481-0.637-4.769c-2.86-10.626-10.469-20.817-17.336-28.982
			c-3.847-4.575-9.255-11.434-15.374-15.098c4.538-2.775,9.001-5.693,13.306-8.838c0.233,0.672,0.711,1.311,1.531,1.819
			c7.15,4.431,11.617,14.362,16.892,20.837c5.534,6.793,11.442,13.664,18.776,18.55c1.213,0.808,2.364,0.754,3.273,0.232
			c0.677,2.13,3.547,3.349,5.637,1.479c4.44-3.975,8.326-7.741,14.172-9.583c0.106-0.035,0.217-0.051,0.324-0.084
			c-0.028,0.061-0.057,0.11-0.084,0.175c-2.911,1.46-5.054,3.937-8.255,5.2c-3.924,1.548-4.712,7.551,0,8.79
			c6.406,1.685,12.011,4.795,16.217,10.017c0.108,0.118,0.182,0.262,0.286,0.383C1652.828,735.65,1652.303,735.581,1651.656,735.722
			z M1654.103,737.115c-0.02-0.061-0.054-0.098-0.076-0.156c0.126,0.186,0.287,0.347,0.403,0.541
			C1655.276,738.768,1655.167,738.639,1654.103,737.115z"/>
	</g>
</g>
<g id="vexels">
</g>
</svg>
