<?xml version="1.0" encoding="utf-8"?>
<!-- Generator: Adobe Illustrator 23.1.0, SVG Export Plug-In . SVG Version: 6.00 Build 0)  -->
<svg version="1.1" id="Layer_1" xmlns="http://www.w3.org/2000/svg" xmlns:xlink="http://www.w3.org/1999/xlink" x="0px" y="0px"
	 viewBox="0 0 2066.2 1192.2" style="enable-background:new 0 0 2066.2 1192.2;" xml:space="preserve">
<style type="text/css">
	.st0{fill:#00004C;}
</style>
<g>
	<path class="st0" d="M721.1,267.8c-12.7-10.1-30-6.9-44.5-2.8c-31.9,9-63.7,32.8-74.9,64.8c-2.6,7.6,5.4,11.3,11.2,8.8
		c-0.2,2.3,0.5,4.8,2.3,7.1c11.5,14.6,15.3,26.7,35.5,30.2c15.7,2.7,33.8,0.6,49.3-3.1c33.3-8,48.9-35.5,40.4-68.5
		C737.2,292.1,731.4,275.9,721.1,267.8z M683.7,353.1c-9.3,1.2-21,2.9-30.1,0.4c-12.1-3.2-16.5-13.4-25.1-21
		c-2.5-2.2-5.1-2.9-7.5-2.6c11.6-15.1,23.2-28.4,41.1-37.5c7.4-3.8,15.2-6.6,23.3-8.5c18.6-4.3,26.7,2.6,32.3,19.3
		C727.6,333,712.1,349.5,683.7,353.1z"/>
	<path class="st0" d="M671,324.3c-0.3-5.6,0.9-11.1,2.7-16.3c3.4-9.6-11.5-15.7-16.3-6.9c-7.3,13.3-9.4,33.9,1.4,46
		c4.9,5.5,16.5,1.4,15.5-6.4C673.6,335.1,671.3,329.9,671,324.3z"/>
	<path class="st0" d="M1533,393.9c-8.5,1.2-14.7,8.1-16.7,15.6c-3,3.2-4.8,7.5-4,12c2.6,15.6,21,11.9,32.3,11.9
		c3.6,0,8.1-2.1,9.6-5.5c3.4-7.6,3.6-15.7-0.5-23.1C1549.6,397.5,1541.4,392.7,1533,393.9z"/>
	<path class="st0" d="M1564.3,333.4c5.5-3.1,8.9-9.4,8.8-15.6c-0.1-4.1-3.1-9.2-7.6-9.9c-3.2-0.5-6-0.6-8.8,0.2
		c-4.3-0.1-8.6,2.3-11,6.1c-2.7,4.4-2.9,10.6,0,15C1549.6,335.3,1557.9,336.9,1564.3,333.4z M1560.9,328
		C1560.9,328,1560.9,328,1560.9,328C1560.9,328,1560.9,328,1560.9,328C1560.9,328,1560.9,328,1560.9,328z"/>
	<path class="st0" d="M1597.7,397.7c-0.2,4.1,3.2,9.1,7.5,9.8c18.5,3.1,34.2-14.2,30-32.4c-1.2-5.1-5.8-7.4-10.4-7.9
		c-10.6-1.3-23.5,1.4-26.7,13.2c-0.9,3.1-0.9,6.4-0.1,9.6c0,0.1,0,0.1,0,0.2C1597.8,392.7,1597.8,395.2,1597.7,397.7z M1619.5,384.8
		C1619.5,384.8,1619.5,384.8,1619.5,384.8C1619.5,384.8,1619.5,384.8,1619.5,384.8c-0.2-0.4-0.4-0.8-0.6-1.2
		C1619.1,383.9,1619.3,384.4,1619.5,384.8z"/>
	<path class="st0" d="M974,137.2c-2.5-2.7-6.4-4.2-10-3c-12.7,4.3-18.7,19.1-12,30.9c2.1,3.7,7.7,6.5,11.9,4.9
		c9-3.5,15.7-10.1,18.3-19.5c1.4-5.1-1.8-12.3-7.5-13.2C974.5,137.2,974.2,137.2,974,137.2z M970.2,154.5
		C970.2,154.5,970.2,154.4,970.2,154.5c0.2,0.3,0.3,0.6,0,0.1C970.2,154.5,970.2,154.5,970.2,154.5z M970.1,154.4
		C970.1,154.4,970.1,154.4,970.1,154.4c0,0.3-0.1,0.6-0.1,0.9C969.9,155,970,154.7,970.1,154.4C970.1,154.4,970.1,154.4,970.1,154.4
		z"/>
	<path class="st0" d="M1040.9,106.1c-2.2-2.8-5.6-4.1-9.1-3.6c-2.6,0.4-4.7,1.6-6.7,3.2c-1-0.1-2,0-3,0.4c-5,1.9-8.3,5.7-8.6,11.2
		c-0.2,4.8,2.1,8.7,6,11.4c2.7,1.8,7.3,1.9,10,0C1036,123.9,1048,115.4,1040.9,106.1z"/>
	<path class="st0" d="M1022.7,177.4c0.4,2.4,1.3,4.4,3.1,6.1c3.4,3.3,8.9,3.3,12.3,0c1.8-1.7,2.7-3.7,3.1-6.1
		c1.1-6.1-2.7-12.2-9.3-12.2C1025.4,165.3,1021.5,171.4,1022.7,177.4z"/>
	<path class="st0" d="M2034.6,762.4c-15.1-10.5-32.4-17.5-50.5-20.7c-7.2-1.3-54.9-3.8-61-13.8c30.4-19.2,77.6-18.4,86.7-60.6
		c9.3-43-37-53.6-69.8-46.3c0.8-2.4,1.6-4.9,2.3-7.4c8-30.5-7-60-26.5-82.9c-43.4-51-110.3-38.7-164-12.1
		c9.5-31.2,14.1-63.8,15.1-96.4c2.8-89.3-14.3-188.6-75-257.7c-62.6-71.1-163.8-113.1-253.1-137.7C1342,0.2,1240.1-6.5,1140.5,6.2
		c-109.9,14-217,50-313.4,104.6c-1.1-1.1-2.6-1.9-4.3-2.5c-61.5-18.6-119.5,5.5-172.1,37.1c-1.1,0.7-2,1.5-2.7,2.3
		c-22.8-10.7-53.6-6.2-74.5,6.7c-19.6,12.1-32,36.1-17.7,57C494.2,241.4,381.6,332.9,465,393c26.4,19,62.6,22.2,97.3,21.5
		c10.9,29.9,43,40.2,73.7,40.5c51.7,0.6,105.4-2.7,156.9-7.3c42.9-3.8,67.8-38.1,108.2-48.6c25.8-6.7,50.3-19.2,57.8-42.4
		c23,8.5,48.6,4.8,67.9-9.5c1.4,6.3,3.2,12.4,5.4,18.1c-22.1,5.1-36.5,23.1-49.1,43c-0.2-0.3-0.3-0.6-0.6-0.9
		c-2.2-3-4.8-5.6-7.8-7.7c-9.4-15.8-31.8-11.4-41.2,2.5c-8,11.9-6.2,25.6-5.8,39.3c-19.1-16.3-49.5-23.1-69.5-9.1
		c-20.9,14.6-8.9,34.4,10,48.6c-18.4-0.7-36.9-3-54.2,5.4c-16.9,8.2-28.1,25-22.5,44.1c6.8,23.3,31.5,32.7,53.8,29.9
		c13.9-1.8,26.2-8,38.8-13.6c3.8-1.7,23.2-13.8,24.5-5c0.5,3.3-10.9,14-12.9,16.6c-25.9,35.1-13.7,98,39,95.8
		c19.1-0.8,34.2-12,34.8-31.6c0.6-20.3-6.6-35,0.8-55.8c4.8-13.6,8.4-18.5,22-13.8c11.1,3.8,15.7,14.2,19.5,24.6
		c-12.4,14.9-15,37.7-1.8,53.3c17.5,20.8,55.1,26.7,84.2,28.6c0.2,3.4,2.2,6.6,6.2,7.5c16.3,3.9,4,19.8-4.1,24.3
		c-8.4,4.6-18.7,5.4-27.8,8.2c-12.2,3.7-23.4,8.6-33.4,16.6c-17.4,13.9-37,40.7-25.3,63.9c9.2,18.3,31.6,20.6,48.9,14.1
		c30.2-11.4,59.5-34.6,85.8-52.9c1-0.7,1.8-1.5,2.4-2.3c19.4-8.2,40.1-13.4,61-6.7c24.2,7.8,38.1,31.7,50.9,52
		c15.3,24.3,43.4,56.2,75.2,36.6c26.7-16.4,23.1-52.9,7.4-75.3c-13.2-18.8-32.4-36.8-53.1-52.3c5.8-11.3,11-24,14.5-37.3
		c27.2,31.7,77.3,46.5,115.3,30.8c8.8-3.6,9.1-20.1-2.5-18.6c-46.3,6-78.9-8.4-108.3-41.7c0.4-18.8-4.3-36.9-17.7-51.3
		c-8.4-9-20.6,2.4-16,12.4c15.6,33.8,6.9,61.3-2.1,93.9c-9.8-6.5-19.5-12.3-28.9-17.4c-10.4-5.6-22.7,8.6-13.1,17
		c26.8,23.5,57.9,43.2,82.1,69.6c6.1,6.7,13,14.6,15.1,23.7c3.2,13.8-4,30.7-22.5,22.8c-15.2-6.5-25.8-31.7-35.1-44.5
		c-32.6-45.1-88.7-62.1-136.2-28.9c-14.2,7.5-28.1,15.3-41.9,23.5c-12.8,7.7-27.7,20.1-42.3,24c-15.8,4.2-15.8-9.6-9.4-21.4
		c3.8-6.9,11.1-13.1,17.7-17.3c13.6-8.5,29.7-9.5,44.1-16c15.7-7,31.5-21,30.3-39.9c-0.6-10.2-5.5-17.9-12.9-22.4
		c2.1-5.2,0.4-12-6.2-13.2c-17.2-3.1-34.4-6.5-51.2-11.2c-7.9-2.2-19.7-4.1-26.5-9.1c-21.4-15.9-3.4-34,13.4-36.5
		c34.6-5.2,68.3,30.4,82.2,58.1c2.1,4.2,7.2,5,11.2,3.5c7.1,3.1,16.2-5,11.4-12.8c-17.5-28.8-30.7-62.2-21.9-96.4
		c7.7-30.1,25.5,9.6,29.7,21.3c3.5,9.8,5.9,20,7.9,30.3c-0.3,16.1-0.1,32,0.3,47.3c0.3,11.5,17.4,11.5,17.9,0
		c1.9-41.5,5.7-83.6,13.5-124.4c7.8-40.6,27.9-68.5,72.2-70.1c37.5-1.4,77,11.6,105.5,36.1c28.6,24.6,40.1,55.8,48.9,91.3
		c2.8,11.4,19.6,8.6,20-2.7c2.5-66-50.6-117.4-111.2-138.2c5.9-25.6-6-48.5-26.4-66c10-18.2,21.2-33.9,39.4-46.7
		c23.4-16.4,51.2-25,78.2-33.5c11.6-3.6,6.7-19.8-4.9-17.9c-49.3,8-112.2,34.5-130.6,85.2c-11.1-6.6-23.4-12-36.1-15.8
		c13.6-45.7,52.2-66.1,97.2-84.3c11.3-4.6,7.3-21.5-5.1-18.6c-47.4,11.1-108.7,44.7-116.3,97.5c-10.3-1.5-20.5-1.9-30.2-1.2
		c-3.2-43.9,13.3-78.9,56.6-99.6c9.9-4.7,2.9-20.8-7.4-17.7c-50.7,15.4-85,70.6-72.7,121.9c-7.4,2.5-14.2,6.1-19.9,10.7
		c-2.6-22.5-11.8-43.5-29.2-60c-9-8.6-26.4,3.2-18.1,14c16.5,21.4,26.6,44.8,22.8,72.4c-1.3,9.6,8.2,20.7,18.2,14
		c22.3-14.9,36.6,16.4,20,32.5c-8.1,7.9-19,7.3-29.1,9.7c-11.4,2.7-18,7.8-26.5,15.9c-28.1,26.3-61.4,40.4-98.4,49.2
		c-10.9,2.6-8.9,21.5,2.7,20c0.3,0,0.7-0.1,1-0.2c11.1,4.9,20.7,14,26.6,24.6c2.9,5.3,5,11.1,6,17.1c0.5,3.1,0.4,6.2,0.4,9.3
		c-8.6-0.2-17,1.3-24.7,4.8c-5.2-14.3-13.1-27.6-27.5-34.3c-16.3-7.5-34-3.9-45,10.4c-13.1,17.2-16.3,43.2-14.7,64.1
		c0.3,3.6,3.2,12.6,2.1,15.7c-3.4,9.4-14.8,8.2-21.7,5c-19.4-9-19.7-33-9.6-49.2c9-14.4,30.1-31.1,22.5-50.9
		c-6.5-17.2-27.1-14.2-41-9.8c-15.1,4.7-28.7,13.9-44,18c-12.6,3.3-26.2,4.8-30.6-10c-3.5-12.1,0.1-14.5,11.7-18
		c24.5-7.4,48.1,4.8,71.9-7.4c3.2,0.7,6.1,1.1,8.6,1c9.4-0.3,11.6-11.6,4.5-16.7c-8-5.8-17.5-9.2-25.7-14.7
		c-6.4-4.2-25.3-15.7-9.4-18.6c18-3.3,32.3,8.9,43.5,21.3c0.7,1.8,2.1,3.2,3.8,4.3c0.1,0.1,0.2,0.2,0.3,0.3c4.9,5.8,13.2,2,15.2-4.1
		c2-2.5,3.4-5.3,4.5-8.1c-0.9,8,7.2,16.9,15.1,10.8c33.5-25.7,41.3-70.5,81.3-89.5c2.1-1,3.5-2.3,4.4-3.7c4.7-2.2,8.4-7.5,7.6-13.3
		c-4.2-30.5-19.2-67.1,15.4-86.4c10.7-6,3.5-22.9-8.3-19.7c-24.4,6.6-35.9,25.6-39.2,47.5c-13.7,27-46,35.2-70.3,16.7
		c-10.2-7.8-20.6,5.1-19.2,14.7c4.8,32.6-54.8,36.3-75,48.4c-12.5,7.5-22.7,18.3-35.2,25.8c-15.2,9.1-31,10.1-48.2,10.9
		c-33.8,1.7-67.6,3.2-101.4,5c-29.1,1.5-71.6,8.9-91.3-16.5c8.7-0.5,17.1-1.1,25.1-1.6c26.4-1.7,52.7-4.8,78.7-9.3
		c14.7-2.6,29.4-5.6,43.9-9.1c13.6-3.3,31.9-10.8,43.7,1.3c8.5,8.7,21.6-4.5,13.3-13.3c-22.4-23.8-61.6-6.7-88.7-2
		c-46.2,8.1-93.3,11.3-140.3,9.8c-39.3-1.2-126.6-13.1-91.4-74.4c22.8-39.7,68.4-65,105.4-89.3c6.3-4.2,5.5-13.9,0.6-17.8
		c0.2-1.8-0.3-3.8-1.6-5.9c-12.1-18.2,10.4-31.9,25.2-36.5c16.1-5,29.9-1.9,46,0.7c3.3,0.5,6.2-0.7,8.4-2.6c2.4,1,5.3,1,8.3-0.7
		c47.1-25.5,98.9-51.8,153.1-34.3c2.2,5,8.1,8.6,14.4,5.2c167-90.5,357.9-133.8,546.5-97c88.7,17.3,177.1,51.1,250.9,103.8
		c78,55.7,107.7,142.8,112.8,235.5c2.8,50.3-0.9,101.8-18.9,149.3c-16.8,44.4-47.1,81.7-76.9,118.4c-2-11.8-4.7-23.7-8.1-35.7
		c-3.4-11.8-20.7-6.8-18.3,5c21.8,105.2-9.1,211.7-69.9,298.6c-61.1,87.2-147.3,153-233,214.5c-85.2,27.5-176.2,35.9-265.1,39.9
		c-110.3,5-221,1.5-331.2-5.6C524.9,1148,330,1127,141.8,1084.4c-26.6-6-54.1-11.9-79.5-22c-10.8-4.3-14.9-7.7-22.5-14.8
		c-3.2-3-16.4-13.2-16.6-18.5c0-1.4-0.2-1.8-0.2-2c0,0,0,0,0-0.1c0.2,0.1,0.8,0,2.5-2c2.6-3.1,8-5.5,12.9-8c2.3,1.2,5.1,1.7,8.2,1.1
		c86.6-15.5,175.6-7.6,262.4,2.4c93.9,10.7,186.5,18.1,281.1,18.3c95,0.2,190.1-0.3,285.1-1.5c89.6-1.1,180.2,1.1,267.1-23.1
		c182.5-30.8,297.6-219.5,315.7-391.1c1.2-10.9-17.7-13.6-19.3-2.6c-12.6,88.3-44.2,174.8-101.6,244.1
		c-55.6,67-127.5,107.7-210,132.2c-2.9,0.9-4.7,2.4-5.8,4.3c-85.4,15.3-174.1,12.3-260.3,12.8c-96.5,0.6-192.9,1.2-289.4,0.5
		c-93-0.7-184-9.9-276.3-20.4c-61.6-7-123.8-11.8-185.6-8.1c-33.5-1.7-79.3,0-97.4,22.7c-4.2,2.4-7.9,5.4-10.2,9.9
		c-9.5,19.2,15.8,40.5,27.9,51c14.1,12.3,31.8,18.2,49.5,23.8c72,22.6,148.1,34.7,222.4,46.5c227.5,36.3,460,57.7,690.5,51.7
		c108.8-2.8,222.4-9.8,326.4-44.6c1.6-0.1,3.3-0.6,5-1.7c132.9-86.3,282.2-218.4,316.3-379c22,9.6,67.7-11.3,81.8-19.8
		c3.8-2.3,7.4-4.8,11-7.4c-1,13,1.7,25.8,10.9,37.5c7.7,9.7,17.8,13.1,28.9,17.6c22,8.9,29.1,30,33.4,51.7
		c5.9,29.3,8.8,62,34.9,81.1c18.7,13.6,46.2,16.7,63.1-1.4c17.4-18.6,13.8-48.1,1.7-68.3c-8.2-13.8-20.2-24.7-30.9-36.5
		c-9.6-10.6-17.7-25.6-1.7-34.7c9.8-5.6,23.9-3.3,33.9-0.4c39,11.6,109.9,87.4,151,40.8C2079.2,802.3,2054.2,776,2034.6,762.4z
		 M1066.3,522.4c-4.6-7.8-10.4-14.3-17.1-19.6c21.1-6.2,41.2-15.8,59.4-28.5c12.8-8.9,24.4-23.6,39.8-27.7
		c12.4-3.3,23.2-3.3,34-11.3c29.7-22.2,21.1-63.5-3-77.5c3.2-1.8,6.7-3.1,10.4-4c2.1,0.4,4.3-0.1,6.3-1.2
		c12.5-1.6,26.7,0.3,39.5,3.2c2.8,2.1,6.4,3,9.4,2.4c5.1,1.4,9.9,2.9,14.1,4.3c30.7,10.2,48.7,29.4,53.1,58.4
		c-14.7-3-29.4-4.2-43.6-3.4c-39,2.4-70.2,21.9-83.5,59.3c-6.2,17.4-10.2,35.9-12.7,54.9c-10.9-26.4-27.4-45-49.8-25.9
		c-16.8,14.3-17.7,45.7-15.9,65.7c0.3,2.9,0.7,5.8,1.1,8.6c-9.8-7.2-20.8-13-32-16.5C1078.7,550.1,1072.8,533.6,1066.3,522.4z
		 M950.9,457.1c-0.6,0.7-1,1.4-1.4,2.1c1.5-6,1.7-12.6,1.3-19.1c-0.3-5.1-2.1-26.2,5.3-28.5c6.8,3.5,13.5,9.1,14.4,17.2
		C964.3,439.3,958,449.2,950.9,457.1z M2022.8,814.3c-33.2,0.1-64.8-33.9-94.2-46.7c-23.6-10.3-53-14.7-74.7,2.4
		c-24.2,19.1-15.6,43.8,2,63.9c12.3,14,29.7,27.5,34.7,46.3c3.5,13.3,2,30.6-15.5,33.4c-11.8,1.8-23.9-8.6-30.1-17.3
		c-20.7-29.3-11.6-71.1-32.4-101.4c-6.9-10-15.8-17.5-26.7-22.7c-13.3-6.3-23.1-8-27.2-24.1c-3.5-13.9,3.8-31.6,9.2-44.2
		c0.1-0.3,0.2-0.5,0.3-0.8c1.8-2.3,3.6-4.7,5.4-7.1c21.1-28.4,45.8-46.5,74.7-66.3c11.1-7.6,1.6-23.8-10.5-17.9
		c-36.6,17.7-61.2,39.5-85.3,72c-13.2,17.7-26.1,33.3-45.2,44.9c-13.3,8.1-46.6,25.2-63.6,16.1c3.2-22.1,4.2-44.8,2.7-67.9
		c33.8-34.2,66-70.2,87.6-113.7c3.1-6.2,5.9-12.4,8.5-18.8c46.6-18.3,106.4-45.9,148.1-4c22.1,22.3,34.8,52.1,19.5,81.5
		c-13,25.2-33,48.2-50.5,70.4c-8.8,11.2,5.3,26.5,16.1,16.1c19.3-18.6,41.2-41.8,55.1-67.2c0.2,0,0.4,0,0.5,0
		c14.9-0.8,44.7-7.5,53.3,10.4c9.9,20.4-21.1,33-34.2,37.5c-22.4,7.6-46.1,15.1-56.6,38.4c-3.6,8,4.6,17.9,12,14.6
		c10.2,12.2,33.2,17.7,47.1,19.8c21,3.1,40.8,5,59.7,15.7C2025.4,785,2058.9,814.2,2022.8,814.3z"/>
</g>
</svg>
