<?xml version="1.0" encoding="utf-8"?>
<!-- Generator: Adobe Illustrator 23.1.0, SVG Export Plug-In . SVG Version: 6.00 Build 0)  -->
<svg version="1.1" id="Layer_1" xmlns="http://www.w3.org/2000/svg" xmlns:xlink="http://www.w3.org/1999/xlink" x="0px" y="0px"
	 viewBox="0 0 1650.8 1243.8" style="enable-background:new 0 0 1650.8 1243.8;" xml:space="preserve">
<style type="text/css">
	.st0{fill:#FCBC2D;}
</style>
<g>
	<path class="st0" d="M195.4,185c36.3-6.1,67.5-38.6,69.1-76c1.7-39.3-29.1-71.8-67.6-74.2c-13-0.8-12.4,18.4,0,19.9
		c6.7,0.8,12.6,2.5,17.7,4.9c-1.8-0.3-3.7-0.5-5.5-0.7c-1.2-0.9-2.8-1.5-4.6-1.7c-37.5-3.8-74.4,35.5-77.4,71.4
		C123.9,166.8,160.1,190.9,195.4,185z M147.1,125.5c3.3-20.1,19.4-38.2,38.5-46.3c14.4-3,27.1-4.5,41.9,0.2c3.4,1.1,6,0.1,7.7-1.9
		c16.1,26.1,6.7,66.8-25.9,82.6C182.2,173.3,140.9,162.6,147.1,125.5z"/>
	<path class="st0" d="M298.8,400.3c15.4,2.4,113.3,7.5,112.8,26.1c-0.4,11.9,15.5,12.3,19.3,2.6c9.8-24.6-20.8-33.5-38.9-37
		c-38-7.4-76.9-9.7-114.9-17.4c-31.5-6.4-63.1-16.6-89.3-35.7c-32.7-23.8-44.4-58-60.3-92.9c-4.6-15.1-9.6-30.1-13.4-45.4
		c-4.3-17.3-5.4-36.3-12-52.7c-7.6-18.9-28.1-32.3-46.6-18.5c-9.3,6.9-0.9,22.5,9.3,15.9c19.6-12.4,28.1,57.5,30,65.2
		c4.9,19.3,10.9,38,19.7,55.8c0.1,0.2,0.2,0.4,0.4,0.6c15.4,49.3,50.8,90,98.7,110.8C240.8,389.4,269.6,395.8,298.8,400.3z"/>
	<path class="st0" d="M1609.7,636.8c-7-34.5-12.1-69.5-10.5-104.8c1.9-41.8,12-82.6,17.5-123.9c8.5-64.2,0.6-125.8-35.6-180.8
		c-61.2-93.1-176.6-139.9-285.8-130.1c-119.2,10.7-222.1,86.1-285.7,184.9c-44.9-26-104.9-29.5-155.4-29.5
		c-26.2,0-58.7,5.2-82.1,20.8c-8.1-2.5-25.5-5.4-29.9-10c-7.9-8.4-1.7-19.7-0.2-28.8c2.9-17.6,2.5-35.5-2.5-52.6
		c-2.6-8.8-13.5-9.3-18.3-2.4c-16.3,23-28,43.9-38.1,68.6c-13.9-13.5-29.6-24.1-49.6-27c-8-1.1-14.7,6-10.6,13.8
		c9,17.3,19.2,33.6,30.9,49c-19.5-0.3-40,5.1-40.4,26.8c-0.6,32.8,51.3,22.6,67.1,34c10.4,7.5,16,18.3,28.7,24.1
		c14.1,6.5,30,8.7,45.5,8.8c16.6,0.2,33-2.9,49.4-5.3c13-1.8,26.4-3.8,39.6-2.7c23.2,1.9,16.8,12.1,5,23c-1.1,1-1.8,2-2.4,3.1
		c-29.3,1.9-59-0.2-87.8-3.6c-47.4-5.6-84.1-22.9-122-51c-32.2-23.8-63.6-48-103.2-57.6c-1.9-0.5-3.8-0.5-5.5-0.4
		c-4.5-8.6-10.2-16.5-17.3-23.5c-1.4-1.3-2.9-2.1-4.5-2.5c-0.2-10-4.6-18-11.7-23.8c0-0.2,0-0.3,0-0.5
		c-1.3-40.1-31.1-68.8-65.6-84.9c-33.6-15.7-113.1-25.1-122.7-67.6c-0.8-3.5-3.3-5.6-6.2-6.4c-14.4-25.4-38.4-42.4-64-56.1
		C211.1,4.8,182.3-7.9,155,6.1c-13.6,7-22.9,19.5-33,30.5c-11.1,12.2-23.5,21.1-38,28.9c-23.6,12.7-50.1,23.6-66.4,46.1
		c-34.9,48.4-11.2,127.2,12.1,175.7c16,33.2,38.4,63.4,65.5,88.3c-0.5,1-0.8,2.2-0.9,3.5c-7.8,75.4,45.5,180.2,121.1,206.5
		c-10.8,58,6.4,137.6,43.1,181.9c0.5,0.5,0.9,1,1.4,1.4c-27,34.9-33.4,90.6-29.2,133c-23.1-10.6-61.3-19.5-74.9,1.6
		c-12.2,18.9,11.6,30.4,33.2,37.3c-28.9,17.2-68.7,46.3-45.4,64.5c12.4,9.7,38.1,1.5,50.8-3.5c7.5-3,14.6-6.8,21.2-11.3
		c-9,28.2-14.5,61.4,11.1,68.2c22.7,6,36.2-24.8,43.5-51.7c14.9,20.3,39.4,37.1,60,25.4c39.3-22.3,2.3-72-14.7-94.5
		c-0.3-0.4-0.6-0.7-0.9-1c11.8-20.6,22.2-42.1,31.7-63.9c9-20.7,19.9-42.7,23.8-65.1c15.2-8.7,28.8-23.4,23.7-42.1
		c-4-14.7-18.7-25.5-34.1-28.4c7.4-22.1,4.8-46-3.2-68.3c-1.6-4.6-3.7-9.1-5.8-13.7c13.1-5.6,26.7-12.2,39.6-19.8
		c0.6,3.6,2.9,6.9,7.2,8.1c20,5.7,42.7,1.7,64.4-7.2c0.3,0.4,0.6,0.8,1,1.2c28.3,26.6,69.2,31.7,105.8,39.2
		c45.2,9.2,90.7,16.7,136.4,22.6c90.6,11.7,187.7,22,279,12.5c69.7-7.3,127.5-38.6,154.3-105.1c6.4,26.4,16.9,52.1,32.6,77
		c18,28.5,48.8,84.8,7.2,108.8c-14.7,8.5-31.9,7.7-46,18.3c-12.2,9.1-19.5,21.3-23.3,35.9c-2.3,8.9,6.9,14.9,14.6,11.2
		c11.4-5.4,58.7-21.7,64.1-5.7c3.7,10.9-18.7,45.5-23.6,55.8c-3,6.4-0.7,13.8,6.5,16c26,8,44.9-2.6,59.9-19.3
		c-7.5,14.1-19.9,26.4-23.9,43.8c-3.6,15.5,7.2,29.3,23.3,30.1c36.5,1.8,54.1-50.9,59.9-87.8c16,14.9,28.3,33.5,45.7,47.1
		c12.3,9.6,28.5,15.5,38-0.8c9.4-16.1-3.2-36.7-13-49.6c-8.3-10.9-18.4-18.9-28.3-28.1c-16.8-15.8-18.4-31.7-17.2-53.1
		c22.7-11.2,76.3-39.8,45.2-60.8c-16.8-11.3-50.8-11.4-73.6-0.6c3.2-25.3-3.3-53-13.8-75.1c-8.2-17.2-21-29.8-31.4-45.5
		c-13-19.7-12.1-40.1-9.2-62.5c7.3-56.5,8.6-130.7-47.6-160.8c7.8-8.4,17.8-15.7,30.6-21.7c39.6-9.6,89.3-9.4,122.4,15.4
		c32.4,24.3,21.7,85.4,28,121.6c13,74.8,55.3,140.2,92.2,205c42.1,74,71.3,150.9,78.6,236.3c3.5,40.4,2.8,81.1-1,121.5
		c-4.3,45.5-15.5,88.8-23.7,133.6c-1.1,5.6,0.8,10,4,12.9c0.2,3.1,1.1,6.2,2.9,9c11,18,29.2,5,38.8-6.1
		c39.7-46.4,64.3-109.3,78.5-168C1670.4,917.3,1638.3,777.7,1609.7,636.8z M884.5,360c-16.6-21-60.6-13.9-82.6-10.7
		c-36.1,5.2-76.5,14.9-103.7-16.2c-7.7-8.8-11.1-13.8-23.6-14.6c-8.9-0.5-17.5,2.2-26.5,0c-16.2-2.8-14.6-8.2,4.8-16.2
		c7.3,0.6,14.4,2,21.3,4.1c9.8,2.6,16.1-9.3,9.6-16.5c-11.4-12.7-21.6-26.2-30.7-40.5c9.5,6.3,17.9,14.5,26.6,22.9
		c6.3,6.1,15.8,1.3,16.4-6.8c1.6-19.8,11.5-42.5,25.3-59.2c0.4,10.5-0.1,21-2.5,31.7c-2.1,9.6-6.7,18.4-3.8,28.4
		c4.3,15.3,22.8,20.5,38.8,23.7c-4.9,6.6-8.7,14.1-10.8,22.9c-2.8,11.3,12.1,17.1,18.4,7.7c28.1-41.9,68.1-46.4,116-44.1
		c42.6,2.1,81.6,7.5,120.7,23.7c-1.8,3.2-3.6,6.3-5.4,9.6c-1.8,3.3-2,6.5-1.3,9.4c-20.5,30-46.8,52.5-83.4,64.7
		c-8.2,2.7-16.6,4.9-25.1,6.7C889.8,381.4,892.4,370,884.5,360z M466.5,283c-8.4-1.6-18,4.4-14,14.4c13,33-28.2,47.2-52.2,34.8
		c-18.5-9.6-26.9-29.4-19.5-49.3c8.4-23,31.1-35.3,54.4-37.5c9.3-0.9,28.8-2.3,36.4,3.4C491.3,263.5,478.4,274.4,466.5,283z
		 M1211.5,499.1c1.6,33.2-10.7,65.7-7.6,98.6c2.7,29.1,20.4,45.6,35.8,68.7c20.2,30.4,19.4,60.5,18,95.2c-0.3,8.1,5.7,12,11.9,11.7
		c2.2,1.8,5.2,2.7,8.4,2.1c10.1-1.8,18.1-8.7,28.1-11.5c10.1-2.9,20.7-3.4,31-1.8c2.9,0.4,5.7,1,8.5,1.8c-1.5,0.1-3.1,0.2-4.6,0.3
		c-4.1,3.6-9.4,6.8-13.9,9.9c-9.4,6.4-19.2,12.3-29,18c-4.8,2.8-5.8,7.4-4.4,11.3c-2.2,15.3-3.5,30.9,2.4,45.6
		c7.6,18.7,24.9,27.9,38.2,41.9c3.8,4,30,35,12,25.9c-7.6-3.8-14.7-15.2-20.2-21.5c-12.2-13.8-24.1-26.7-39.8-36.5
		c-7.3-4.6-17.7,1.3-17.4,10c0.7,20.5-2.3,39.1-11.7,57.5c-3.1,6-10,21.2-16.6,24.2c-18.4,8.5,0.9-16.1,2.8-19.2
		c12.2-19.3,21.6-42.8,12-64.2c2.2-8.7-9.3-15.8-15.8-10.5c-4,1.4-6.9,4.9-6,9.8c-9.7,17.5-23.7,36.1-43.1,37.9
		c8.7-15.8,18.3-32.2,23-48.6c2.6-9.2,2.6-16.5-5.7-22.6c-9.7-7.1-30.9-7-42.5-6.6c-8.4,0.3-16.6,1.6-24.5,3.6
		c20.5-17.3,57.5-11.7,74.6-39.5c15-24.5,12.3-55.8,1.3-81.2c-17.7-41-47.8-71.7-57.2-116.7c-3.6-17.1-4.9-34.4-5-51.8
		c1.8-14.9,2.7-29.9,3-44.8c0.5-28.8,3.1-55.2,14.2-76.8C1197.6,438.5,1209.9,466.3,1211.5,499.1z M1611.5,1058.4
		c-7.5,31-17.8,61.4-31.8,90.1c-6,12.3-12.6,24.3-19.7,35.9c-3.6,5.8-7.4,11.5-11.2,17.1c-0.9,1.3-3.5,5.4-6.1,9.8
		c-0.3-1.2-0.8-2.3-1.5-3.3c20.3-63.9,26.1-136.3,25-202.5c-1.3-71.7-14-143.6-41.4-210c-26-63.1-64.9-119.6-95.7-180.3
		c-15.7-31.1-29.1-63.6-36-97.9c-7.1-35.3-2.9-73-14.3-107.4c-5.3-15.8-14.9-28-27.2-37.2c8.4-24.3,16.9-47.1,32.3-68.9
		c17.3-24.4,38.8-46.1,58.7-68.3c8.3-9.3-4.5-22.2-13.7-13.7c-38.4,35.1-87.8,84.3-97.5,139.4c-2.3-1-4.6-1.9-7-2.7
		c-1.3-70.8,41.9-126.3,87.1-177.3c8.3-9.3-4.1-21.2-13.5-13.5c-56.1,45.8-96.4,112-94.9,185.1c-7.6-1.4-15.3-2.3-23.1-2.8
		c-3.1-25.2-7.8-49.6-6.1-75.4c2-30.7,10.5-59.9,19.9-89c3.6-11.3-13.2-18.2-19-8c-27.1,48.1-37.2,118-19.7,172.6
		c-10.3,0.7-20.5,2-30,4c-2.5-15.6-9.1-30.4-12.5-46c-4.6-21-6.5-42.2-7.9-63.6c-0.9-13.9-19.4-13.2-21.2,0
		c-4.6,34.3-2.4,82.3,17,113.8c-25.6,11.2-46.1,30.1-57.8,56.2c-15.4,34.2-10,72.6-12.6,108.9c-2.5,36.4-10.9,74.2-32.1,104.6
		c-24.3,34.8-63.3,50.5-104.1,56.3c-82.9,11.8-172.4,2-255.1-6.6c-46.9-4.9-93.5-11.3-139.9-19.7c-38.4-6.9-82.5-11.4-116.9-31.4
		c19.9-11.1,37.9-25.4,50.8-38.6c7.5-7.8-2.7-22.7-12.1-15.7c-32,23.9-70.4,48.7-111.6,50.6c23.9-17.7,43.1-40.6,48.8-70.6
		c2.4-12.6-14.3-16.9-18.9-5.2c-17.7,44.8-56.5,64.6-96,86.5c-1.4-7.2-1.2-14.6,2.3-22.3c5.6-12.2,17.7-22.1,25.7-32.9
		c6-8.2-5.5-17.9-13.3-13.3c-22.5,13-41.4,36.5-40,63.6c0.9,17,10.2,30.9,16.3,46.3c8.7,22.2,10.1,43.7,2.8,66.6
		c-2.8,4.6-2.1,11.3,3.2,14.3c8.8,5,26,3.8,30.7,14.3c4.5,10-11.2,17.3-17.8,21.3c-4.8,2.9-6.1,7.3-5.2,11.3
		c-9.5,19.2-14.8,41.2-23,60.8c-11.1,26.8-24.3,52.5-37.3,78.5c-5.4,10.9,8.2,20.1,15.9,12.8c10.2,13.7,25.5,31.6,21.9,46.4
		c2,11.6-4.4,15.2-19.2,10.7c-4.1-2.9-7.9-6-11.5-9.4c-9-8.1-16.2-16.9-18.4-29.1c-2.1-11.8-18.5-7.7-19.5,2.6
		c-1.4,14.4-4.8,28.1-10.8,41.3c-2.8,6.1-9.4,25.8-18.5,8.4c-2.1-3.9,5.8-25.2,7.2-29.8c3.7-12.7,7.4-25.4,11-38.1
		c2.2-7.9-8.6-14.9-14.3-8.3c-9.2,10.7-18.7,20.2-31.2,27.1c-5.6,3.1-26.1,12.4-37.4,12.4c11.6-20.3,43.1-33.1,61.7-42.1
		c9.2-4.4,5.8-17.7-2.7-20.4c-4-1.3-34.4-8-35-12.5c-0.6-4.9,43.7,8.5,46.7,10c6.4,3.2,12.1-0.9,13.4-6.1c2.3-1.2,4-3.1,4.5-5.9
		c4.7-26,3.2-52.7,8.3-78.7c5-25.8,16.6-47.3,29.6-69.8c4.9-8.4-4.5-15.2-11.8-11.8c-13.5-28.7-26.8-55.3-33.4-86.8
		c-5.8-27.9-4.8-56.1-8.5-84.1c1.3-3.3,0.8-7-2.5-9.6c-31.4-24.7-62.1-43.5-84.4-78.1c-20.4-31.6-29.2-65-33.5-101.2
		c13.4,10.2,27.7,19.3,42.8,26.8c12.5,6.2,23.4-12,11-18.8c-45.5-24.9-83.4-59.9-109.6-105C35,253.4,11.2,188.3,28,139.9
		c15.3-44.1,77.7-52.2,107.5-84.7c8.3-9.1,15.6-20.1,26.3-26.7c19.9-12.4,40.9-2.5,59.7,6.7C248,48,272.3,63.6,287,89.8
		c0.4,0.8,1,1.5,1.5,2c7.9,27.5,41.2,43,65.8,53c42,17,102.7,28.2,114.8,78.1c-42.3-9.1-91.8,5-110,47.1
		c-17.2,39.8,6.5,82.8,49.1,90.7c37.8,7,80-23.1,70.4-62.4c8.4-4.8,16-10.9,21.1-18.9c21.9,37.3,27.1,80.2-3.9,116
		c-21.2,24.5-57.6,24.9-76.1,50.9c-10.9,15.4-17.5,27.9-35.3,36.9c-16.1,8.1-34.9,11-52.8,9.6c-43-3.6-78.9-31.5-112.4-56
		c-8.4-6.1-18.3,7.2-11,14.2c33.5,32.5,75.6,61.6,123.4,65.1c39.9,3,80.5-12.9,102.2-47.5c14.5-23.1,39.3-25.1,60.3-40.7
		c15.8-11.8,28.6-27.6,36.6-45.6c8.9-20.1,11.7-42.9,8.4-64.7c15.6,5.6,30,13.6,43.7,22.7c-16.2,28.1-21.4,59.5-24.1,91.8
		c-2.7,32.2-3.3,65.2,25.9,85.2c9.2,6.3,19.3-7.5,11.7-15.2c-21.5-21.6-17.1-54.4-14.4-82.3c2.3-24,6.6-46.7,17.3-68.1
		c4.1,3,8.1,5.9,12.1,8.9c-9.7,42.1-23.4,99.3-2,136.8c6.4,11.2,22.5,1.4,17.1-10c-9-19-5.8-43.3-4.2-63.7
		c1.3-16.8,3.6-33.5,6.6-50.1c5.2,3.8,10.5,7.5,15.9,11.1c44,29.1,92.8,37.3,144.7,40.6c80.7,5,202.8-14.6,229.2-106.7
		c48.2-86.6,126.5-157.6,223.2-184.9c93.9-26.5,202.1-5.6,275.3,60.4c39.5,35.6,68.7,84.5,74.9,137.9c7,59.5-12.1,118.5-18.4,177.2
		c-6.3,58.2,5.1,114,18.4,170.4c14.1,59.5,26.5,119.4,31.8,180.4C1629.4,926.2,1627.2,993.5,1611.5,1058.4z"/>
	<path class="st0" d="M997.9,467c-1.5-5.9-7.6-10.5-14.6-6.3c-0.8,0.5-1.7,1.1-2.6,1.6c-11.5,0.1-22.6,6.4-26.3,20.2
		c-0.7,2.7-0.9,5.5-0.6,8.1c-7,12.5-7.8,25.7,7.9,34.1c26,13.9,58-13.7,49.2-41.3C1008.7,476.1,1003.8,470.6,997.9,467z"/>
	<path class="st0" d="M892.4,461.5c-29.5-14.8-56.1,12.4-50.9,42.2c2.2,12.9,12.3,21.9,24.5,22.5c9,5.3,20,5.7,29.9,0.8
		C924.2,512.9,918.5,474.6,892.4,461.5z"/>
	<path class="st0" d="M960.6,551c-11.7-2.1-26.1,3.4-34.6,11.5c-5.7,5.4-8.7,13.7-7.3,21.1c-3.8,8.7,0.8,19.9,9.4,24.3
		c20,10.4,55-13.8,53.3-35.8C980.5,561.2,971.1,552.9,960.6,551z"/>
	<path class="st0" d="M1514.6,515.4c0.1-1.2,0-2.4-0.4-3.6c-1.9-5.8-7.6-9.2-13.5-7.7c-8.9,2.3-14.7,12.1-12,21
		c0.8,2.6,2.3,4.8,4.1,6.7c2.1,2.7,4.5,4.6,8.1,4.8c3,0.8,6.2,0.9,9.3-0.1c3.8-1.2,7.4-4.2,8.3-8.3
		C1519.5,523.2,1518.1,518.6,1514.6,515.4z M1506.5,525.3c0.4-0.2,0.8-0.4,1.3-0.6C1507.4,524.9,1507,525.1,1506.5,525.3z"/>
	<path class="st0" d="M1531.3,409c-8.9-5-19.1-7.8-29.4-6.6c-11,1.2-18.5,10.6-15.3,21.8c3.1,10.7,13.7,14.6,23.8,14.7
		c10.3,0,19.4-2.4,25.5-11.2c2.2-3.1,2-8.4-0.2-11.8C1535.5,413.2,1534.1,410.6,1531.3,409z"/>
	<path class="st0" d="M1449.7,430.7c-0.9,0-1.8,0.1-2.7,0.2c-3.7-2.6-8.4-3.3-12.8-0.8c-4.2,2.5-7,6.3-7.9,10.7
		c-2.3,2.5-4.3,5.3-5.7,8.5c-1.7,4.1-2.4,8,0,12.1c2.2,3.8,6.1,5.7,10.3,5.9c6.2,0.4,12-2.6,16.2-7.1c1-0.3,2-0.7,2.9-1.3
		c5.6-3,8.6-7.9,10.6-13.8C1463.3,438.1,1456.8,430.8,1449.7,430.7z"/>
	<path class="st0" d="M422.4,272.2c-0.1,0.1-0.2,0.3-0.3,0.4c-0.6,0.4-1.2,0.8-1.7,1.4c-10.5,10.5-18.7,22.1-24.8,35.6
		c-5.2,11.5,9.3,19.9,16.8,9.8c8.6-11.6,17.6-23.1,25.7-35.2C444.1,275,429.4,263.3,422.4,272.2z"/>
	<path class="st0" d="M189.6,142c10.5-11.1,19.8-23.2,27.9-36.2c7.5-11.8-11.3-22.7-18.7-10.9c-0.8,1.3-1.7,2.6-2.5,3.9
		c-0.5,0.4-1.1,0.9-1.6,1.4c-8,9.1-14.6,19.3-21.6,29.1C166.3,139.1,181.6,150.6,189.6,142z"/>
</g>
</svg>
