<?xml version="1.0" encoding="utf-8"?>
<!-- Generator: Adobe Illustrator 23.1.0, SVG Export Plug-In . SVG Version: 6.00 Build 0)  -->
<svg version="1.1" id="Layer_1" xmlns="http://www.w3.org/2000/svg" xmlns:xlink="http://www.w3.org/1999/xlink" x="0px" y="0px"
	 viewBox="0 0 2396.4 845.7" style="enable-background:new 0 0 2396.4 845.7;" xml:space="preserve">
<style type="text/css">
	.st0{fill:#00004C;}
</style>
<g>
	<path class="st0" d="M2008.9,118.5c0.5-0.9,1.1-1.7,1.6-2.6c-2.1,32.6,13,65.3,45.4,78.1c36,14.3,74.8-7,85.9-43
		c0.7-2.4,0.6-4.4-0.2-6.1c0.8-1.7,1.2-3.7,0.8-5.9c-5.7-34.8-32.1-74-69.4-78.7c-35.3-4.5-65.4,18.3-80.9,48.4
		C1986.4,119.8,2002.4,129.3,2008.9,118.5z M2075,80.3c27.7,5.8,43.8,38.7,49.8,63.5c0,0.1,0.1,0.2,0.1,0.3
		c-0.4,0.6-0.7,1.2-0.9,1.9c-10,27.6-42.7,38.6-67.5,23c-26.6-16.7-24.3-44.3-23.8-71.7c0-2.1-0.5-3.9-1.5-5.3
		C2043.3,82.4,2058.1,76.8,2075,80.3z"/>
	<path class="st0" d="M2078.4,141.6c-0.8-13.9-0.8-27.8,1.2-41.5c1.7-11.6-16-16.8-17.9-4.9c-2.6,15.4-3.7,30.8-2.4,46.5
		C2060.4,153.6,2079.2,153.9,2078.4,141.6z"/>
	<path class="st0" d="M1372.5,140.6c3-5.9,3.9-12.7,1.9-18.5c-0.1-1-0.3-2-0.7-2.9c-1.2-2.7-3.4-4.8-6-5.9
		c-3.3-2.1-8.1-1.8-11.3,0.1c-1.4,0.8-2.4,1.9-3.3,3.1c-8.3,5.4-13.8,14.8-13.2,25.1c0.4,6.3,5.2,12.3,12,12
		C1360.5,153.4,1368.6,148.5,1372.5,140.6z M1363.8,140.1C1363.8,140.6,1363.8,140.5,1363.8,140.1L1363.8,140.1z"/>
	<path class="st0" d="M1392.5,194.1c-9.1-0.1-17.5,4.5-21.3,12.3c-5.1,4.5-8.8,10.4-8.9,17.4c-0.1,10.4,8.3,19,18.6,19.3
		c8.3,0.3,16.3-4.1,20.8-11.1c4.9-7.6,4.2-16.6,3.5-25.1C1404.6,199.9,1399.8,194.2,1392.5,194.1z"/>
	<path class="st0" d="M1579.9,200.6c-5.2-1.8-10.7,1.8-12.5,6.6c-6.2,2.1-11.3,6.8-13.4,13.7c-1.4,4.8,1,10.3,5.2,12.8
		c8.9,5.3,20.6,3.2,27-5c2.9-3.7,4.5-8.6,4.2-13.4c-0.2-2.9-0.6-6-2.1-8.6C1586.5,203.6,1583.3,201.8,1579.9,200.6z M1566.8,212.5
		c0,0.1,0,0.1,0,0.2C1566.8,212.5,1566.8,212.4,1566.8,212.5z"/>
	<path class="st0" d="M1639,252.7c-1.9-0.8-3.9-0.7-5.8-0.1c-1,0.1-1.9,0.3-2.9,0.7c0.2-0.1,0.2-0.1,0,0c0,0,0,0,0,0
		c0.1,0-0.9,0.4-1.4,0.6c-0.3,0.1-0.6,0.3-1.1,0.5c-0.8,0.6-1.5,1.2-2.3,1.7c-1.4,1.4-2.5,3.3-3,5.2c-1.4,5.3,0.2,9.6,3.5,13.8
		c2.4,3,8.2,4.5,11.7,3.1c5.3-2.2,9.2-5.6,10-11.6c0.4-2.8,0-5.7-1.5-8.2C1644.6,255.4,1642,254,1639,252.7z M1639.9,271.5
		c0.5-0.3,1-0.7,1.4-1.1c0,0,0,0.1-0.1,0.1C1640.8,270.9,1640.3,271.2,1639.9,271.5z"/>
	<path class="st0" d="M1700.6,242.2c-6.7,0-13.1,5.9-12.8,12.8c0.3,6.9,5.6,12.8,12.8,12.8c6.7,0,13.1-5.9,12.8-12.8
		C1713.1,248,1707.8,242.2,1700.6,242.2z"/>
	<path class="st0" d="M1100.1,308.3c0.2,5.4,3.2,10.1,8.2,12.2c3.6,1.5,6.9,1.3,9.9,0c0.2,0,0.4,0,0.6,0c6.7-0.9,11.3-5.1,15.3-10.2
		c7.7-10,9.2-26-2.9-33.5c-9.8-6-26.8-3.4-29,9.9c-0.2,1.4-0.3,2.9-0.2,4.3c-0.8,1.3-1.4,2.6-1.9,4c-1.5,4.3-1.5,9,0.1,13.2
		C1100.1,308.2,1100.1,308.2,1100.1,308.3z"/>
	<path class="st0" d="M1126.9,326.4c-3.3-0.3-6.8-0.9-10,0c-5.2,1.4-9.7,6.6-9.7,12.1c0,3.8,2.2,7.6,5.2,10c1.2,2.8,3.2,5.3,6,6.8
		c6.2,3.4,13.6,1.9,17.9-3.7c3.7-4.8,3.6-10.3,2.6-16C1137.8,329.8,1132.1,326.9,1126.9,326.4z"/>
	<path class="st0" d="M1478.8,119.4c-6.2-0.1-11.8,0.5-17.9,1.1c-7.7,0.8-11.4,6.5-11.2,12.1c-9.8,2.9-19.2,8.2-24.2,17
		c-7.8,13.7,1.6,27.4,16.1,29.6c26.6,4,52-20.2,50.1-46.9C1491.2,125.3,1486.2,119.5,1478.8,119.4z"/>
	<path class="st0" d="M2371.1,461.4c-6.9-6-14.4-11-22.3-15.1c18.9-14.9,36.6-36.7,15.1-50.6c-11.5-7.4-30.9,0.6-41.7,5.4
		c-14.6,6.5-28.8,16.2-38.1,29.4c-0.4-1.1-1-2.2-1.8-3.2c-18.7-22.8-41.1-42.4-59.6-65.5c-14.9-18.7-26.5-43.2-49.2-53.4
		c10.1-7.9,20-16.1,29.4-24.6c2.9-2.6,3.4-6.1,2.6-9.4c12.9-1.4,25.7-3.2,38.5-5.7c29.7-5.7,77.3-18.4,72.7-57.6
		c-0.3-2.7-1.4-4.8-2.9-6.4c18.7-17.6,18.4-48.5,8.7-72.3c-6.5-16.2-17.7-30.4-31.8-40.7c-26-18.9-53.3-23.1-49.8-63.3
		c0.4-4.3-2-7.3-5.2-8.7c-17.4-29.2-65.3-20.7-90.6-6.2c-0.7,0.4-1.2,0.8-1.8,1.3c-80.4-12.3-172.3-15.9-231.2,50.5c0,0,0,0-0.1,0
		c-46,9.9-76.2,33.8-91.1,78.9c-7.2,21.7-11.8,45.9-17.3,69.8c-68.1-44.2-140.4-86.4-212.4-123.2c-61.9-31.6-129.7-47.4-199.2-47.3
		c-68.9,0-137.8,14.7-201.5,40.7c-62.6,25.5-119.2,63.8-178.4,96.2c-19.5,6-39.8,7.3-61.7,1.3c-26.4-7.2-50.1-21.5-75.7-30.8
		c-76.9-28.1-161.1-38.5-242.6-32.6C473,129.6,315.7,187.5,186.7,281.2C127.3,324.4,66,375,25.1,436.7c-10.7,16.1-33.4,47.4-22,67.9
		c14.6,26.1,43.7,6.9,56.8-8.3c107.6-124.6,262-186.3,426-156.2c76.5,14,149.8,41.6,225.4,59.2c1.2,0.5,2.4,0.8,3.7,0.8
		c17,3.9,34.2,7.2,51.5,9.8c10.5,1.5,21.2,2.9,32.1,4c2.4,1.1,4.7,1.2,6.9,0.6c74.2,6.9,156.4,2.4,220-34.6
		c5.3,4.3,11.2,7.9,17.2,10.6c18.8,8.5,40,11.5,60.5,9.2c-4.7,8.1-8.5,16.1-10.8,23.5c-9.1,29-5.4,70.5,8.2,101.7
		c-31.9,3.5-84,12.2-66,39.9c9.7,14.9,40.3,21.1,56,24c11.5,2.1,23,2.6,34.4,2c-18.5,21-34.5,47.5-14.9,65.4
		c25.8,23.4,59.8-8.1,77.8-34.5c14.5,23.9,38.3,57.6,60.2,42.1c21-14.9,6.6-47.8-7.2-70.2c29.9-3.2,72.1-13.9,69.9-40.8
		c-2.4-28.3-57.5-27.1-88.6-24.5c10-25.8,23-50.6,30.9-77.3c2.8-9.6,5.1-19.6,7-29.7c14,15.2,34.5,14.9,54.1,14.7
		c37.6-0.4,75.1-4.2,112.8-4.8c1.6,0,3.2,0,4.8,0c2.2,0.6,4.5,0.6,6.7,0c59.8,0.2,121,9.8,169.2,47.2
		c-18.1,11.3-34.7,24.8-48.9,40.5c-16.7-10.4-42.4-8.6-49.1,12.7c-3.8,12.2,1.6,24.4,11,30.8c-25.6,72-1,153.6,61.6,197.9
		c-12.8,15.1-20.2,32.5-16.1,53.9c0.8,4.4,5.9,8.1,10.3,7.9c23.4-1.2,46.2-6.8,60.7-23.7c11.4,24.5,25.1,57.9,56.3,44.7
		c23.2-9.8,17.4-34.2,7.9-55.6c20.6,10.1,43.3,17.1,64.8,9.9c3.3-1.1,6.8-3.8,7.5-7.5c4.3-24.4-18.2-40.3-40.2-48.7
		c18.7-14.3,44.8-40.3,15.3-52c-15.3-6-38.3,3.1-53.1,7.2c-19.3,5.5-39.1,12.7-56.9,22.6c-1.2-2.2-3.3-4-6.4-5
		c-58.9-20-62.4-94.6-26.8-136.8c40.4-47.9,106-59.3,164.7-66.9c89.1-11.5,201.4-26.8,248.8-115c0.4-0.7,0.6-1.5,0.8-2.2
		c23.3-3.9,46.2-15.7,67.4-27.9c23.9,13.5,43.9,33.4,61.3,54.5c17,20.5,27.8,44.1,41.5,66.3c-24.2,21.3-67.9,69-34.3,84
		c15.7,7,39.1-6.6,51.4-15.8c5.6-4.2,10.6-9,15-14.2c11.8,12.4,38.7,10.4,53.3,7.1c17.6-4,42.7-16.3,50.5-34.8
		c25.5,10.7,70.8,18.4,70.1-13.6C2396.1,484.4,2380.8,469.8,2371.1,461.4z M1837.2,474.5c-66.1,12.7-136.2,11.3-197.2,43.3
		c-43.4,22.8-82.5,63.9-84.9,115.2c-2.1,45.5,24.3,91.3,70.1,101.5c1.3,5.7,7.8,10.3,15,7.2c23-9.8,45.2-20,69.5-26.2
		c5.3-1.3,10.5-2.6,15.9-3.6c6.1-1.2,10.9-4.7,9.1,0.6c-2.4,7-18.3,17.1-23.8,21.5c-0.2,0.2-0.4,0.4-0.6,0.6c-2.1,0.2-4.1,1-5.7,2.6
		c-0.8,0.8-1.5,1.6-2.3,2.3c-3.4,3.5-3.5,9.4,0,12.9c2.2,2.2,5.3,3,8.2,2.4c0.6,0.3,1.2,0.5,1.8,0.7c7.5,2.2,15.1,4.7,22,8.6
		c4.1,2.9,8.1,5.7,12.2,8.6c1.4,7.4-1.6,8.9-9.2,4.5c-17,1.1-39.4-14.8-53.8-22.9c-9.1-5.2-17.6,4.9-13.5,13.5
		c4.2,8.9,8.6,17.7,12.5,26.7c1.9,3.6,3.4,7.3,4.6,11.2c6,10.9-0.9,13.5-20.6,8c-8.5-6.9-13.4-31.9-19.6-41.6
		c-3.7-5.8-14.3-7.4-17.6,0c-8.3,19-24.6,25.3-43,27.3c0.6-16.5,12.5-27.3,22.9-39.4c6.4-7.4,0-16.7-7.6-16.2
		c-57.4-43.3-79.7-109.7-59.7-178.5c1-0.3,2-0.6,2.9-1c5.5-2.3,9.2-7.2,7.6-13.4c-1.5-5.5-7.8-9.4-13.4-7.6c-4.1,1.3-10.5-2-6.6-6.7
		c4.6-5.4,17.9,3.1,22.8,4c4.1,0.8,7.8-0.7,10.2-3.3c2.8,0.2,5.8-0.5,8.6-2.7c50.8-39.4,102.4-67.5,167.1-75.4
		c16.2-2,16.7-27.7,0-25.9c-37.4,4-75.8,14.4-110.5,31.7c-0.1-0.1-0.1-0.1-0.2-0.2c-32.2-28.8-70.6-45.5-111.9-54.1
		c-0.2-2.3-1.2-4.5-3.3-6.2c-25.4-20-20.7-77.3-17.9-105.8c1.2-12.8-18.6-14.8-21.9-3c-8.4,29.4-8.4,59.1-0.9,88.7
		c1.6,6.2,3.7,13.8,6.8,20.7c-12.4-1.2-24.7-1.8-37.2-2c-7.3-29.1-11.5-56.3-6.5-87.3c2.4-14.7-18.7-21.4-22.9-6.3
		c-8.3,29.7-9.2,63.7,0.7,93.7c-9.9,0.2-19.9,0.5-29.8,0.8c-0.5,0-1.1,0.1-1.6,0.1c-14-15.1-19.8-31.2-20.1-52
		c-0.2-13.1-19.4-16-23-3.1c-5.4,19.7-0.4,41.4,11.5,57.8c-27.6,2.6-58.4,4.4-77.7-7.9c-4.1-2.6-8.1-2.7-11.3-1.2
		c1.4-16.5,1.1-33-1.6-49c-11.9-69.8-89.6-101.2-152.4-110.7c-13.3-2-19.3,16.8-5.7,20.6c16.6,4.7,33.5,9.4,49.8,15.3
		c-4.3,3.4-7.7,7.8-9.2,13.1c-2.6,9,0.8,18.5,8.5,23.8c7.3,5.1,15.4,4.5,22.4,0c0.1,0,0.2,0,0.3,0c8.8-0.2,16.9-5.4,21-13.2
		c0.3-0.6,0.6-1.3,0.9-2c30.8,21.2,41.6,51.2,40.2,88.2c-1.4,35.3-11.7,67.9-26.1,99.9c-11.7,26-22.2,50-23,79
		c-0.3,12.6,20,15.9,22.5,3c1-5.2,2.2-10.3,3.7-15.3c18.1-1,55.4-2.2,68.5,3.8c-17.4,13.5-43.4,16.6-64.1,15.9
		c-8.4-0.3-15.8,10.7-10.3,18c3.9,5.2,31.4,48.8,24.6,51.4c-7.1,2.7-30.1-37.6-35.5-47.1c-4.1-7.1-16.1-8-19.9,0
		c-5.1,10.6-10.1,19.6-18.6,28.2c-7.1,7.2-22.1,24.9-26.1,9.4c-4.2-16.5,23.9-38.4,35.3-49.1c9-8.4-0.4-23.2-11.7-20.1
		c-30.2,8-53,3.9-82.9-1.4c-4.7-1.9-9.5-2.5-14.5-1.9c4.7-1.1,9.4-2.3,14.1-3.2c13.4-2.8,27-5,40.6-6.8c0,0,0.1,0.1,0.1,0.1
		c4.9,6.1,14.7,2.3,17.2-4c8.4-5.9,5.7-20-5.7-21.3c-10.9-31-19.7-69.9-6.1-98.9c15-32,45.6-50.5,70.6-72.9
		c8.6-7.7-0.5-21.3-10.9-18.7c-18.4,4.7-38.1,19.7-54.4,37.8c-19.6,3.9-38.2,6.1-57.8,0.4c-24.2-7-35.1-19.8-39.3-44.7
		c-1.5-9.1-16.1-10.8-20-2.6c-6.5,13.7-4.6,27,1.8,38.4c-59.9,29.3-134.1,33.3-202.1,26.8c-27.2-31.5-29.2-69.4-30.6-110.3
		c-0.5-14.1-20.7-13.8-21.7,0c-2.5,35.3-2.4,74.9,15,105.6c-2.5-0.4-5-0.7-7.4-1.1c-13.5-2.2-26.9-5-40.3-8
		c-8.1-20.9-14.2-40.5-14.1-64.1c0-14.6-20.7-13.9-22.2,0c-2,18.8-0.3,38.6,5.9,56.7c-9.9-2.6-19.7-5.3-29.6-8
		c-16.2-24.7-28.8-47.7-28-78.5c0.3-12.7-20.9-16.2-22.7-3.1c-3.2,23.7-0.3,48.8,10.3,69.9c-29.1-8.5-58.2-17.1-87.7-24.2
		c-134.5-32.6-271.3-18.6-388.7,58.5c-26.8,17.6-51.9,38-74.4,60.8c-7.8,7.9-21.2,30.1-30.7,34.8c-1.6,2-3.2,3.9-4.8,5.9
		c-8.5-5.2-9.2-11.2-2.2-17.8c2.8-8.2,11.4-18.7,16.5-25.6c44.7-61.5,109.8-113.1,172.4-155.2c127-85.2,281.7-138.3,435.1-142
		c84.4-2,167.9,15,244.6,49.9c31.9,14.5,61.6,21.2,91,18.7c-6.4,6.3-12.5,13.2-17.9,20.6c-6.3,8.5,7.5,18.9,14.6,11.3
		c13.5-14.5,27.9-27.8,44-39c20.9-9,40.4-22.3,59.2-34.4c29.2-18.9,58.7-36.7,90.4-51.1c63.6-28.8,133.3-45.6,203.3-46.6
		c70.2-1,137.9,15.2,200,47.9c71.1,37.4,138.6,81.7,210.2,118.1c-6.5,22.9-15,44.6-28.9,62.6c-8.6,11.2,9.2,23.2,18.8,14.5
		c29-26.5,34.8-73.4,44.5-109.5c6.4-23.9,10.6-50.6,21.6-72.9c13.4-27.3,38.1-35.7,64.3-46.8c1.3-0.6,2.4-1.3,3.4-2.1
		c1.9-0.3,3.8-1.1,5.7-2.6c33.2-26.8,67.2-47.2,110.7-51c37.2-3.2,74.7,4.6,111.8,5.2c3.5,0.1,6.1-1.7,7.8-4.3
		c23.1-7.9,44-15.3,62.3,2.4c-5.3,33.4,16.9,53.1,45.5,68.2c24.1,12.8,52,41.8,42.6,72.8c-9.4,31-75.9,29.8-100,32.1
		c-53.7,5.1-106.1,2.6-159.8,0c-37.3-1.9-74.1,3.3-95.8,37c-7.8,12.1,11.2,22.9,19.1,11.2c19.9-29.4,55-27.9,86.4-25.8
		c29.5,1.9,58.8,3.5,88.3,2.9c26.2-0.5,52.4-2.3,78.5-5.3c22.7-2.6,49.3-3.5,71.2-11.6c-6.5,44.7-128.5,39.6-158.5,40.7
		c-42,1.5-84.1,3.3-125,13.9c-34.9,9-68.3,24.2-95.2,48.5c-31.8,28.7-48.3,69.5-76,101.6c-10.4,12.1,6,29,17.7,17.7
		c33-31.8,46.3-78.6,82.1-107.8c40.7-33.2,95.9-43.6,146.8-47.7c30-2.4,60.2-3.3,90.3-5.4c-23.5,17.8-47.4,34.8-72.8,49.8
		c-30.4,17.9-65.3,39.9-100.4,45.7c-8.3,1.4-9.7,10.8-6.1,16.8C1956.7,438.2,1900.4,462.3,1837.2,474.5z M2297.2,508.5
		c-7.6,7.9-20.1,12.4-30.7,14.2c-5.5,1-11.3,1.2-16.9,0.7c-6.8-0.6-8-0.7-2.4-6.4c8.1-8.2,20-13,30.3-17.5c2.7-1.2,4.3-3,5.1-5
		C2294.6,493.8,2310.1,495.2,2297.2,508.5z M2359.3,493.2c-2.7,0-5.4-0.5-8-1.3c-9.8-2.2-18.6-7.1-28.3-9.6
		c-11.2-15-36.8-15-54.1-8.5c-3.7,1.4-6,3.8-7.1,6.5c-9.4,3.1-20,8.2-28.7,15.1c-4.5-1.5-9.8-0.6-12.2,4.5
		c-4.8,10.2-11.1,18.9-19.4,26.5c-4.2,3.8-8.7,7.2-13.6,10c-2.9,1.7-7.6,2.9-11.5,4.4c3.6-5.5,7.5-10.9,11.7-16
		c6.9-8.4,14.7-15.9,22.4-23.5c3.5-1.2,6.3-4,7.3-7.9c2.6-4.7,1.3-10.4-1.9-14.3c-8.6-31.9-31.4-62.5-52-86.9
		c-11.5-13.7-27.8-34.3-46.1-45.3c13.6-8.3,27-17.1,39.9-26.5c0.7,2,2.1,3.9,4.6,5.5c21.5,13.3,34.9,43.1,50.7,62.5
		c16.6,20.4,34.3,41,56.3,55.7c3.6,2.4,7.1,2.3,9.8,0.7c2,6.4,10.6,10,16.9,4.4c13.3-11.9,25-23.2,42.5-28.7c0.3-0.1,0.7-0.2,1-0.3
		c-0.1,0.2-0.2,0.3-0.3,0.5c-8.7,4.4-15.2,11.8-24.8,15.6c-11.8,4.6-14.1,22.7,0,26.4c19.2,5.1,36,14.4,48.6,30.1
		c0.3,0.4,0.5,0.8,0.9,1.2C2362.8,493,2361.2,492.8,2359.3,493.2z M2366.6,497.4c-0.1-0.2-0.2-0.3-0.2-0.5c0.4,0.6,0.9,1,1.2,1.6
		C2370.1,502.4,2369.8,502,2366.6,497.4z"/>
</g>
</svg>
